%TF.GenerationSoftware,KiCad,Pcbnew,(5.0.2)-1*%
%TF.CreationDate,2019-01-23T22:57:56+01:00*%
%TF.ProjectId,VGA-Terminal,5647412d-5465-4726-9d69-6e616c2e6b69,rev?*%
%TF.SameCoordinates,Original*%
%TF.FileFunction,Legend,Top*%
%TF.FilePolarity,Positive*%
%FSLAX46Y46*%
G04 Gerber Fmt 4.6, Leading zero omitted, Abs format (unit mm)*
G04 Created by KiCad (PCBNEW (5.0.2)-1) date 23.01.2019 22:57:56*
%MOMM*%
%LPD*%
G01*
G04 APERTURE LIST*
%ADD10C,0.300000*%
%ADD11C,0.120000*%
%ADD12C,0.150000*%
G04 APERTURE END LIST*
D10*
X97837857Y-77303571D02*
X98695000Y-77303571D01*
X98266428Y-78803571D02*
X98266428Y-77303571D01*
X99195000Y-78803571D02*
X99195000Y-77303571D01*
X99837857Y-78803571D02*
X99837857Y-78017857D01*
X99766428Y-77875000D01*
X99623571Y-77803571D01*
X99409285Y-77803571D01*
X99266428Y-77875000D01*
X99195000Y-77946428D01*
X101123571Y-78732142D02*
X100980714Y-78803571D01*
X100695000Y-78803571D01*
X100552142Y-78732142D01*
X100480714Y-78589285D01*
X100480714Y-78017857D01*
X100552142Y-77875000D01*
X100695000Y-77803571D01*
X100980714Y-77803571D01*
X101123571Y-77875000D01*
X101195000Y-78017857D01*
X101195000Y-78160714D01*
X100480714Y-78303571D01*
X101837857Y-78803571D02*
X101837857Y-77803571D01*
X101837857Y-78089285D02*
X101909285Y-77946428D01*
X101980714Y-77875000D01*
X102123571Y-77803571D01*
X102266428Y-77803571D01*
X102766428Y-78803571D02*
X102766428Y-77803571D01*
X102766428Y-77946428D02*
X102837857Y-77875000D01*
X102980714Y-77803571D01*
X103195000Y-77803571D01*
X103337857Y-77875000D01*
X103409285Y-78017857D01*
X103409285Y-78803571D01*
X103409285Y-78017857D02*
X103480714Y-77875000D01*
X103623571Y-77803571D01*
X103837857Y-77803571D01*
X103980714Y-77875000D01*
X104052142Y-78017857D01*
X104052142Y-78803571D01*
X104766428Y-78803571D02*
X104766428Y-77803571D01*
X104766428Y-77303571D02*
X104695000Y-77375000D01*
X104766428Y-77446428D01*
X104837857Y-77375000D01*
X104766428Y-77303571D01*
X104766428Y-77446428D01*
X105409285Y-78732142D02*
X105552142Y-78803571D01*
X105837857Y-78803571D01*
X105980714Y-78732142D01*
X106052142Y-78589285D01*
X106052142Y-78517857D01*
X105980714Y-78375000D01*
X105837857Y-78303571D01*
X105623571Y-78303571D01*
X105480714Y-78232142D01*
X105409285Y-78089285D01*
X105409285Y-78017857D01*
X105480714Y-77875000D01*
X105623571Y-77803571D01*
X105837857Y-77803571D01*
X105980714Y-77875000D01*
X106480714Y-77803571D02*
X107052142Y-77803571D01*
X106695000Y-77303571D02*
X106695000Y-78589285D01*
X106766428Y-78732142D01*
X106909285Y-78803571D01*
X107052142Y-78803571D01*
X107766428Y-78803571D02*
X107623571Y-78732142D01*
X107552142Y-78660714D01*
X107480714Y-78517857D01*
X107480714Y-78089285D01*
X107552142Y-77946428D01*
X107623571Y-77875000D01*
X107766428Y-77803571D01*
X107980714Y-77803571D01*
X108123571Y-77875000D01*
X108195000Y-77946428D01*
X108266428Y-78089285D01*
X108266428Y-78517857D01*
X108195000Y-78660714D01*
X108123571Y-78732142D01*
X107980714Y-78803571D01*
X107766428Y-78803571D01*
X108909285Y-78803571D02*
X108909285Y-77803571D01*
X108909285Y-78089285D02*
X108980714Y-77946428D01*
X109052142Y-77875000D01*
X109195000Y-77803571D01*
X109337857Y-77803571D01*
X109480714Y-78946428D02*
X110623571Y-78946428D01*
X110909285Y-78375000D02*
X111623571Y-78375000D01*
X110766428Y-78803571D02*
X111266428Y-77303571D01*
X111766428Y-78803571D01*
X97837857Y-79853571D02*
X98695000Y-79853571D01*
X98266428Y-81353571D02*
X98266428Y-79853571D01*
X99195000Y-81353571D02*
X99195000Y-79853571D01*
X99837857Y-81353571D02*
X99837857Y-80567857D01*
X99766428Y-80425000D01*
X99623571Y-80353571D01*
X99409285Y-80353571D01*
X99266428Y-80425000D01*
X99195000Y-80496428D01*
X101123571Y-81282142D02*
X100980714Y-81353571D01*
X100695000Y-81353571D01*
X100552142Y-81282142D01*
X100480714Y-81139285D01*
X100480714Y-80567857D01*
X100552142Y-80425000D01*
X100695000Y-80353571D01*
X100980714Y-80353571D01*
X101123571Y-80425000D01*
X101195000Y-80567857D01*
X101195000Y-80710714D01*
X100480714Y-80853571D01*
X101837857Y-81353571D02*
X101837857Y-80353571D01*
X101837857Y-80639285D02*
X101909285Y-80496428D01*
X101980714Y-80425000D01*
X102123571Y-80353571D01*
X102266428Y-80353571D01*
X102766428Y-81353571D02*
X102766428Y-80353571D01*
X102766428Y-80496428D02*
X102837857Y-80425000D01*
X102980714Y-80353571D01*
X103195000Y-80353571D01*
X103337857Y-80425000D01*
X103409285Y-80567857D01*
X103409285Y-81353571D01*
X103409285Y-80567857D02*
X103480714Y-80425000D01*
X103623571Y-80353571D01*
X103837857Y-80353571D01*
X103980714Y-80425000D01*
X104052142Y-80567857D01*
X104052142Y-81353571D01*
X104766428Y-81353571D02*
X104766428Y-80353571D01*
X104766428Y-79853571D02*
X104695000Y-79925000D01*
X104766428Y-79996428D01*
X104837857Y-79925000D01*
X104766428Y-79853571D01*
X104766428Y-79996428D01*
X105409285Y-81282142D02*
X105552142Y-81353571D01*
X105837857Y-81353571D01*
X105980714Y-81282142D01*
X106052142Y-81139285D01*
X106052142Y-81067857D01*
X105980714Y-80925000D01*
X105837857Y-80853571D01*
X105623571Y-80853571D01*
X105480714Y-80782142D01*
X105409285Y-80639285D01*
X105409285Y-80567857D01*
X105480714Y-80425000D01*
X105623571Y-80353571D01*
X105837857Y-80353571D01*
X105980714Y-80425000D01*
X106480714Y-80353571D02*
X107052142Y-80353571D01*
X106695000Y-79853571D02*
X106695000Y-81139285D01*
X106766428Y-81282142D01*
X106909285Y-81353571D01*
X107052142Y-81353571D01*
X107766428Y-81353571D02*
X107623571Y-81282142D01*
X107552142Y-81210714D01*
X107480714Y-81067857D01*
X107480714Y-80639285D01*
X107552142Y-80496428D01*
X107623571Y-80425000D01*
X107766428Y-80353571D01*
X107980714Y-80353571D01*
X108123571Y-80425000D01*
X108195000Y-80496428D01*
X108266428Y-80639285D01*
X108266428Y-81067857D01*
X108195000Y-81210714D01*
X108123571Y-81282142D01*
X107980714Y-81353571D01*
X107766428Y-81353571D01*
X108909285Y-81353571D02*
X108909285Y-80353571D01*
X108909285Y-80639285D02*
X108980714Y-80496428D01*
X109052142Y-80425000D01*
X109195000Y-80353571D01*
X109337857Y-80353571D01*
X109480714Y-81496428D02*
X110623571Y-81496428D01*
X111480714Y-80567857D02*
X111695000Y-80639285D01*
X111766428Y-80710714D01*
X111837857Y-80853571D01*
X111837857Y-81067857D01*
X111766428Y-81210714D01*
X111695000Y-81282142D01*
X111552142Y-81353571D01*
X110980714Y-81353571D01*
X110980714Y-79853571D01*
X111480714Y-79853571D01*
X111623571Y-79925000D01*
X111695000Y-79996428D01*
X111766428Y-80139285D01*
X111766428Y-80282142D01*
X111695000Y-80425000D01*
X111623571Y-80496428D01*
X111480714Y-80567857D01*
X110980714Y-80567857D01*
X98052142Y-83903571D02*
X98052142Y-82403571D01*
X98052142Y-83117857D02*
X98909285Y-83117857D01*
X98909285Y-83903571D02*
X98909285Y-82403571D01*
X100195000Y-83832142D02*
X100052142Y-83903571D01*
X99766428Y-83903571D01*
X99623571Y-83832142D01*
X99552142Y-83689285D01*
X99552142Y-83117857D01*
X99623571Y-82975000D01*
X99766428Y-82903571D01*
X100052142Y-82903571D01*
X100195000Y-82975000D01*
X100266428Y-83117857D01*
X100266428Y-83260714D01*
X99552142Y-83403571D01*
X101552142Y-83903571D02*
X101552142Y-83117857D01*
X101480714Y-82975000D01*
X101337857Y-82903571D01*
X101052142Y-82903571D01*
X100909285Y-82975000D01*
X101552142Y-83832142D02*
X101409285Y-83903571D01*
X101052142Y-83903571D01*
X100909285Y-83832142D01*
X100837857Y-83689285D01*
X100837857Y-83546428D01*
X100909285Y-83403571D01*
X101052142Y-83332142D01*
X101409285Y-83332142D01*
X101552142Y-83260714D01*
X102052142Y-82903571D02*
X102623571Y-82903571D01*
X102266428Y-82403571D02*
X102266428Y-83689285D01*
X102337857Y-83832142D01*
X102480714Y-83903571D01*
X102623571Y-83903571D01*
X103695000Y-83832142D02*
X103552142Y-83903571D01*
X103266428Y-83903571D01*
X103123571Y-83832142D01*
X103052142Y-83689285D01*
X103052142Y-83117857D01*
X103123571Y-82975000D01*
X103266428Y-82903571D01*
X103552142Y-82903571D01*
X103695000Y-82975000D01*
X103766428Y-83117857D01*
X103766428Y-83260714D01*
X103052142Y-83403571D01*
X104409285Y-83903571D02*
X104409285Y-82903571D01*
X104409285Y-83189285D02*
X104480714Y-83046428D01*
X104552142Y-82975000D01*
X104695000Y-82903571D01*
X104837857Y-82903571D01*
X104980714Y-84046428D02*
X106123571Y-84046428D01*
X106409285Y-83475000D02*
X107123571Y-83475000D01*
X106266428Y-83903571D02*
X106766428Y-82403571D01*
X107266428Y-83903571D01*
X98052142Y-86453571D02*
X98052142Y-84953571D01*
X98052142Y-85667857D02*
X98909285Y-85667857D01*
X98909285Y-86453571D02*
X98909285Y-84953571D01*
X100195000Y-86382142D02*
X100052142Y-86453571D01*
X99766428Y-86453571D01*
X99623571Y-86382142D01*
X99552142Y-86239285D01*
X99552142Y-85667857D01*
X99623571Y-85525000D01*
X99766428Y-85453571D01*
X100052142Y-85453571D01*
X100195000Y-85525000D01*
X100266428Y-85667857D01*
X100266428Y-85810714D01*
X99552142Y-85953571D01*
X101552142Y-86453571D02*
X101552142Y-85667857D01*
X101480714Y-85525000D01*
X101337857Y-85453571D01*
X101052142Y-85453571D01*
X100909285Y-85525000D01*
X101552142Y-86382142D02*
X101409285Y-86453571D01*
X101052142Y-86453571D01*
X100909285Y-86382142D01*
X100837857Y-86239285D01*
X100837857Y-86096428D01*
X100909285Y-85953571D01*
X101052142Y-85882142D01*
X101409285Y-85882142D01*
X101552142Y-85810714D01*
X102052142Y-85453571D02*
X102623571Y-85453571D01*
X102266428Y-84953571D02*
X102266428Y-86239285D01*
X102337857Y-86382142D01*
X102480714Y-86453571D01*
X102623571Y-86453571D01*
X103695000Y-86382142D02*
X103552142Y-86453571D01*
X103266428Y-86453571D01*
X103123571Y-86382142D01*
X103052142Y-86239285D01*
X103052142Y-85667857D01*
X103123571Y-85525000D01*
X103266428Y-85453571D01*
X103552142Y-85453571D01*
X103695000Y-85525000D01*
X103766428Y-85667857D01*
X103766428Y-85810714D01*
X103052142Y-85953571D01*
X104409285Y-86453571D02*
X104409285Y-85453571D01*
X104409285Y-85739285D02*
X104480714Y-85596428D01*
X104552142Y-85525000D01*
X104695000Y-85453571D01*
X104837857Y-85453571D01*
X104980714Y-86596428D02*
X106123571Y-86596428D01*
X106980714Y-85667857D02*
X107195000Y-85739285D01*
X107266428Y-85810714D01*
X107337857Y-85953571D01*
X107337857Y-86167857D01*
X107266428Y-86310714D01*
X107195000Y-86382142D01*
X107052142Y-86453571D01*
X106480714Y-86453571D01*
X106480714Y-84953571D01*
X106980714Y-84953571D01*
X107123571Y-85025000D01*
X107195000Y-85096428D01*
X107266428Y-85239285D01*
X107266428Y-85382142D01*
X107195000Y-85525000D01*
X107123571Y-85596428D01*
X106980714Y-85667857D01*
X106480714Y-85667857D01*
X98052142Y-88217857D02*
X98552142Y-88217857D01*
X98766428Y-89003571D02*
X98052142Y-89003571D01*
X98052142Y-87503571D01*
X98766428Y-87503571D01*
X99266428Y-87503571D02*
X100195000Y-87503571D01*
X99695000Y-88075000D01*
X99909285Y-88075000D01*
X100052142Y-88146428D01*
X100123571Y-88217857D01*
X100195000Y-88360714D01*
X100195000Y-88717857D01*
X100123571Y-88860714D01*
X100052142Y-88932142D01*
X99909285Y-89003571D01*
X99480714Y-89003571D01*
X99337857Y-88932142D01*
X99266428Y-88860714D01*
X100837857Y-89003571D02*
X100837857Y-87503571D01*
X101195000Y-87503571D01*
X101409285Y-87575000D01*
X101552142Y-87717857D01*
X101623571Y-87860714D01*
X101695000Y-88146428D01*
X101695000Y-88360714D01*
X101623571Y-88646428D01*
X101552142Y-88789285D01*
X101409285Y-88932142D01*
X101195000Y-89003571D01*
X100837857Y-89003571D01*
X103266428Y-88003571D02*
X103837857Y-88003571D01*
X103480714Y-89003571D02*
X103480714Y-87717857D01*
X103552142Y-87575000D01*
X103695000Y-87503571D01*
X103837857Y-87503571D01*
X104980714Y-89003571D02*
X104980714Y-88217857D01*
X104909285Y-88075000D01*
X104766428Y-88003571D01*
X104480714Y-88003571D01*
X104337857Y-88075000D01*
X104980714Y-88932142D02*
X104837857Y-89003571D01*
X104480714Y-89003571D01*
X104337857Y-88932142D01*
X104266428Y-88789285D01*
X104266428Y-88646428D01*
X104337857Y-88503571D01*
X104480714Y-88432142D01*
X104837857Y-88432142D01*
X104980714Y-88360714D01*
X105695000Y-88003571D02*
X105695000Y-89003571D01*
X105695000Y-88146428D02*
X105766428Y-88075000D01*
X105909285Y-88003571D01*
X106123571Y-88003571D01*
X106266428Y-88075000D01*
X106337857Y-88217857D01*
X106337857Y-89003571D01*
X108195000Y-88432142D02*
X109337857Y-88432142D01*
X108766428Y-89003571D02*
X108766428Y-87860714D01*
X98052142Y-90767857D02*
X98552142Y-90767857D01*
X98766428Y-91553571D02*
X98052142Y-91553571D01*
X98052142Y-90053571D01*
X98766428Y-90053571D01*
X99266428Y-90053571D02*
X100195000Y-90053571D01*
X99695000Y-90625000D01*
X99909285Y-90625000D01*
X100052142Y-90696428D01*
X100123571Y-90767857D01*
X100195000Y-90910714D01*
X100195000Y-91267857D01*
X100123571Y-91410714D01*
X100052142Y-91482142D01*
X99909285Y-91553571D01*
X99480714Y-91553571D01*
X99337857Y-91482142D01*
X99266428Y-91410714D01*
X100837857Y-91553571D02*
X100837857Y-90053571D01*
X101195000Y-90053571D01*
X101409285Y-90125000D01*
X101552142Y-90267857D01*
X101623571Y-90410714D01*
X101695000Y-90696428D01*
X101695000Y-90910714D01*
X101623571Y-91196428D01*
X101552142Y-91339285D01*
X101409285Y-91482142D01*
X101195000Y-91553571D01*
X100837857Y-91553571D01*
X103266428Y-90553571D02*
X103837857Y-90553571D01*
X103480714Y-91553571D02*
X103480714Y-90267857D01*
X103552142Y-90125000D01*
X103695000Y-90053571D01*
X103837857Y-90053571D01*
X104980714Y-91553571D02*
X104980714Y-90767857D01*
X104909285Y-90625000D01*
X104766428Y-90553571D01*
X104480714Y-90553571D01*
X104337857Y-90625000D01*
X104980714Y-91482142D02*
X104837857Y-91553571D01*
X104480714Y-91553571D01*
X104337857Y-91482142D01*
X104266428Y-91339285D01*
X104266428Y-91196428D01*
X104337857Y-91053571D01*
X104480714Y-90982142D01*
X104837857Y-90982142D01*
X104980714Y-90910714D01*
X105695000Y-90553571D02*
X105695000Y-91553571D01*
X105695000Y-90696428D02*
X105766428Y-90625000D01*
X105909285Y-90553571D01*
X106123571Y-90553571D01*
X106266428Y-90625000D01*
X106337857Y-90767857D01*
X106337857Y-91553571D01*
X108195000Y-90982142D02*
X109337857Y-90982142D01*
X125876428Y-77475000D02*
X125733571Y-77403571D01*
X125519285Y-77403571D01*
X125305000Y-77475000D01*
X125162142Y-77617857D01*
X125090714Y-77760714D01*
X125019285Y-78046428D01*
X125019285Y-78260714D01*
X125090714Y-78546428D01*
X125162142Y-78689285D01*
X125305000Y-78832142D01*
X125519285Y-78903571D01*
X125662142Y-78903571D01*
X125876428Y-78832142D01*
X125947857Y-78760714D01*
X125947857Y-78260714D01*
X125662142Y-78260714D01*
X126590714Y-78903571D02*
X126590714Y-77403571D01*
X127447857Y-78903571D01*
X127447857Y-77403571D01*
X128162142Y-78903571D02*
X128162142Y-77403571D01*
X128519285Y-77403571D01*
X128733571Y-77475000D01*
X128876428Y-77617857D01*
X128947857Y-77760714D01*
X129019285Y-78046428D01*
X129019285Y-78260714D01*
X128947857Y-78546428D01*
X128876428Y-78689285D01*
X128733571Y-78832142D01*
X128519285Y-78903571D01*
X128162142Y-78903571D01*
X123162142Y-80667857D02*
X122662142Y-80667857D01*
X122662142Y-81453571D02*
X122662142Y-79953571D01*
X123376428Y-79953571D01*
X124590714Y-81453571D02*
X124590714Y-80667857D01*
X124519285Y-80525000D01*
X124376428Y-80453571D01*
X124090714Y-80453571D01*
X123947857Y-80525000D01*
X124590714Y-81382142D02*
X124447857Y-81453571D01*
X124090714Y-81453571D01*
X123947857Y-81382142D01*
X123876428Y-81239285D01*
X123876428Y-81096428D01*
X123947857Y-80953571D01*
X124090714Y-80882142D01*
X124447857Y-80882142D01*
X124590714Y-80810714D01*
X125305000Y-80453571D02*
X125305000Y-81453571D01*
X125305000Y-80596428D02*
X125376428Y-80525000D01*
X125519285Y-80453571D01*
X125733571Y-80453571D01*
X125876428Y-80525000D01*
X125947857Y-80667857D01*
X125947857Y-81453571D01*
X127805000Y-80882142D02*
X128947857Y-80882142D01*
X128376428Y-81453571D02*
X128376428Y-80310714D01*
X117305000Y-84003571D02*
X117305000Y-82503571D01*
X117876428Y-82503571D01*
X118019285Y-82575000D01*
X118090714Y-82646428D01*
X118162142Y-82789285D01*
X118162142Y-83003571D01*
X118090714Y-83146428D01*
X118019285Y-83217857D01*
X117876428Y-83289285D01*
X117305000Y-83289285D01*
X119447857Y-84003571D02*
X119447857Y-83217857D01*
X119376428Y-83075000D01*
X119233571Y-83003571D01*
X118947857Y-83003571D01*
X118805000Y-83075000D01*
X119447857Y-83932142D02*
X119305000Y-84003571D01*
X118947857Y-84003571D01*
X118805000Y-83932142D01*
X118733571Y-83789285D01*
X118733571Y-83646428D01*
X118805000Y-83503571D01*
X118947857Y-83432142D01*
X119305000Y-83432142D01*
X119447857Y-83360714D01*
X120162142Y-84003571D02*
X120162142Y-83003571D01*
X120162142Y-83289285D02*
X120233571Y-83146428D01*
X120305000Y-83075000D01*
X120447857Y-83003571D01*
X120590714Y-83003571D01*
X120876428Y-83003571D02*
X121447857Y-83003571D01*
X121090714Y-82503571D02*
X121090714Y-83789285D01*
X121162142Y-83932142D01*
X121305000Y-84003571D01*
X121447857Y-84003571D01*
X122876428Y-83003571D02*
X123447857Y-83003571D01*
X123090714Y-84003571D02*
X123090714Y-82717857D01*
X123162142Y-82575000D01*
X123305000Y-82503571D01*
X123447857Y-82503571D01*
X124590714Y-84003571D02*
X124590714Y-83217857D01*
X124519285Y-83075000D01*
X124376428Y-83003571D01*
X124090714Y-83003571D01*
X123947857Y-83075000D01*
X124590714Y-83932142D02*
X124447857Y-84003571D01*
X124090714Y-84003571D01*
X123947857Y-83932142D01*
X123876428Y-83789285D01*
X123876428Y-83646428D01*
X123947857Y-83503571D01*
X124090714Y-83432142D01*
X124447857Y-83432142D01*
X124590714Y-83360714D01*
X125305000Y-83003571D02*
X125305000Y-84003571D01*
X125305000Y-83146428D02*
X125376428Y-83075000D01*
X125519285Y-83003571D01*
X125733571Y-83003571D01*
X125876428Y-83075000D01*
X125947857Y-83217857D01*
X125947857Y-84003571D01*
X127805000Y-83432142D02*
X128947857Y-83432142D01*
X117305000Y-86553571D02*
X117305000Y-85053571D01*
X117876428Y-85053571D01*
X118019285Y-85125000D01*
X118090714Y-85196428D01*
X118162142Y-85339285D01*
X118162142Y-85553571D01*
X118090714Y-85696428D01*
X118019285Y-85767857D01*
X117876428Y-85839285D01*
X117305000Y-85839285D01*
X119447857Y-86553571D02*
X119447857Y-85767857D01*
X119376428Y-85625000D01*
X119233571Y-85553571D01*
X118947857Y-85553571D01*
X118805000Y-85625000D01*
X119447857Y-86482142D02*
X119305000Y-86553571D01*
X118947857Y-86553571D01*
X118805000Y-86482142D01*
X118733571Y-86339285D01*
X118733571Y-86196428D01*
X118805000Y-86053571D01*
X118947857Y-85982142D01*
X119305000Y-85982142D01*
X119447857Y-85910714D01*
X120162142Y-86553571D02*
X120162142Y-85553571D01*
X120162142Y-85839285D02*
X120233571Y-85696428D01*
X120305000Y-85625000D01*
X120447857Y-85553571D01*
X120590714Y-85553571D01*
X120876428Y-85553571D02*
X121447857Y-85553571D01*
X121090714Y-85053571D02*
X121090714Y-86339285D01*
X121162142Y-86482142D01*
X121305000Y-86553571D01*
X121447857Y-86553571D01*
X122876428Y-85553571D02*
X123447857Y-85553571D01*
X123090714Y-86553571D02*
X123090714Y-85267857D01*
X123162142Y-85125000D01*
X123305000Y-85053571D01*
X123447857Y-85053571D01*
X124590714Y-86553571D02*
X124590714Y-85767857D01*
X124519285Y-85625000D01*
X124376428Y-85553571D01*
X124090714Y-85553571D01*
X123947857Y-85625000D01*
X124590714Y-86482142D02*
X124447857Y-86553571D01*
X124090714Y-86553571D01*
X123947857Y-86482142D01*
X123876428Y-86339285D01*
X123876428Y-86196428D01*
X123947857Y-86053571D01*
X124090714Y-85982142D01*
X124447857Y-85982142D01*
X124590714Y-85910714D01*
X125305000Y-85553571D02*
X125305000Y-86553571D01*
X125305000Y-85696428D02*
X125376428Y-85625000D01*
X125519285Y-85553571D01*
X125733571Y-85553571D01*
X125876428Y-85625000D01*
X125947857Y-85767857D01*
X125947857Y-86553571D01*
X127805000Y-85982142D02*
X128947857Y-85982142D01*
X128376428Y-86553571D02*
X128376428Y-85410714D01*
X122090714Y-89103571D02*
X122090714Y-87603571D01*
X122662142Y-87603571D01*
X122805000Y-87675000D01*
X122876428Y-87746428D01*
X122947857Y-87889285D01*
X122947857Y-88103571D01*
X122876428Y-88246428D01*
X122805000Y-88317857D01*
X122662142Y-88389285D01*
X122090714Y-88389285D01*
X123590714Y-89103571D02*
X123590714Y-88103571D01*
X123590714Y-87603571D02*
X123519285Y-87675000D01*
X123590714Y-87746428D01*
X123662142Y-87675000D01*
X123590714Y-87603571D01*
X123590714Y-87746428D01*
X124305000Y-88103571D02*
X124305000Y-89103571D01*
X124305000Y-88246428D02*
X124376428Y-88175000D01*
X124519285Y-88103571D01*
X124733571Y-88103571D01*
X124876428Y-88175000D01*
X124947857Y-88317857D01*
X124947857Y-89103571D01*
X127590714Y-89103571D02*
X126733571Y-89103571D01*
X127162142Y-89103571D02*
X127162142Y-87603571D01*
X127019285Y-87817857D01*
X126876428Y-87960714D01*
X126733571Y-88032142D01*
X128876428Y-88103571D02*
X128876428Y-89103571D01*
X128519285Y-87532142D02*
X128162142Y-88603571D01*
X129090714Y-88603571D01*
X125876428Y-90225000D02*
X125733571Y-90153571D01*
X125519285Y-90153571D01*
X125305000Y-90225000D01*
X125162142Y-90367857D01*
X125090714Y-90510714D01*
X125019285Y-90796428D01*
X125019285Y-91010714D01*
X125090714Y-91296428D01*
X125162142Y-91439285D01*
X125305000Y-91582142D01*
X125519285Y-91653571D01*
X125662142Y-91653571D01*
X125876428Y-91582142D01*
X125947857Y-91510714D01*
X125947857Y-91010714D01*
X125662142Y-91010714D01*
X126590714Y-91653571D02*
X126590714Y-90153571D01*
X127447857Y-91653571D01*
X127447857Y-90153571D01*
X128162142Y-91653571D02*
X128162142Y-90153571D01*
X128519285Y-90153571D01*
X128733571Y-90225000D01*
X128876428Y-90367857D01*
X128947857Y-90510714D01*
X129019285Y-90796428D01*
X129019285Y-91010714D01*
X128947857Y-91296428D01*
X128876428Y-91439285D01*
X128733571Y-91582142D01*
X128519285Y-91653571D01*
X128162142Y-91653571D01*
X124735714Y-103607142D02*
X124950000Y-103678571D01*
X125307142Y-103678571D01*
X125450000Y-103607142D01*
X125521428Y-103535714D01*
X125592857Y-103392857D01*
X125592857Y-103250000D01*
X125521428Y-103107142D01*
X125450000Y-103035714D01*
X125307142Y-102964285D01*
X125021428Y-102892857D01*
X124878571Y-102821428D01*
X124807142Y-102750000D01*
X124735714Y-102607142D01*
X124735714Y-102464285D01*
X124807142Y-102321428D01*
X124878571Y-102250000D01*
X125021428Y-102178571D01*
X125378571Y-102178571D01*
X125592857Y-102250000D01*
X126235714Y-103678571D02*
X126235714Y-102678571D01*
X126235714Y-102178571D02*
X126164285Y-102250000D01*
X126235714Y-102321428D01*
X126307142Y-102250000D01*
X126235714Y-102178571D01*
X126235714Y-102321428D01*
X127592857Y-102678571D02*
X127592857Y-103892857D01*
X127521428Y-104035714D01*
X127450000Y-104107142D01*
X127307142Y-104178571D01*
X127092857Y-104178571D01*
X126950000Y-104107142D01*
X127592857Y-103607142D02*
X127450000Y-103678571D01*
X127164285Y-103678571D01*
X127021428Y-103607142D01*
X126950000Y-103535714D01*
X126878571Y-103392857D01*
X126878571Y-102964285D01*
X126950000Y-102821428D01*
X127021428Y-102750000D01*
X127164285Y-102678571D01*
X127450000Y-102678571D01*
X127592857Y-102750000D01*
X119653228Y-102175571D02*
X120653228Y-102175571D01*
X119653228Y-103675571D01*
X120653228Y-103675571D01*
X121224657Y-103104142D02*
X122367514Y-103104142D01*
X114671428Y-102178571D02*
X115671428Y-102178571D01*
X114671428Y-103678571D01*
X115671428Y-103678571D01*
X116242857Y-103107142D02*
X117385714Y-103107142D01*
X116814285Y-103678571D02*
X116814285Y-102535714D01*
X109569428Y-102150171D02*
X110569428Y-103650171D01*
X110569428Y-102150171D02*
X109569428Y-103650171D01*
X111140857Y-103078742D02*
X112283714Y-103078742D01*
X104435714Y-103607142D02*
X104650000Y-103678571D01*
X105007142Y-103678571D01*
X105150000Y-103607142D01*
X105221428Y-103535714D01*
X105292857Y-103392857D01*
X105292857Y-103250000D01*
X105221428Y-103107142D01*
X105150000Y-103035714D01*
X105007142Y-102964285D01*
X104721428Y-102892857D01*
X104578571Y-102821428D01*
X104507142Y-102750000D01*
X104435714Y-102607142D01*
X104435714Y-102464285D01*
X104507142Y-102321428D01*
X104578571Y-102250000D01*
X104721428Y-102178571D01*
X105078571Y-102178571D01*
X105292857Y-102250000D01*
X105935714Y-103678571D02*
X105935714Y-102678571D01*
X105935714Y-102178571D02*
X105864285Y-102250000D01*
X105935714Y-102321428D01*
X106007142Y-102250000D01*
X105935714Y-102178571D01*
X105935714Y-102321428D01*
X107292857Y-102678571D02*
X107292857Y-103892857D01*
X107221428Y-104035714D01*
X107150000Y-104107142D01*
X107007142Y-104178571D01*
X106792857Y-104178571D01*
X106650000Y-104107142D01*
X107292857Y-103607142D02*
X107150000Y-103678571D01*
X106864285Y-103678571D01*
X106721428Y-103607142D01*
X106650000Y-103535714D01*
X106578571Y-103392857D01*
X106578571Y-102964285D01*
X106650000Y-102821428D01*
X106721428Y-102750000D01*
X106864285Y-102678571D01*
X107150000Y-102678571D01*
X107292857Y-102750000D01*
X99471428Y-102178571D02*
X100471428Y-103678571D01*
X100471428Y-102178571D02*
X99471428Y-103678571D01*
X101042857Y-103107142D02*
X102185714Y-103107142D01*
X101614285Y-103678571D02*
X101614285Y-102535714D01*
D11*
X129650000Y-70660000D02*
X129650000Y-71160000D01*
X130390000Y-70660000D02*
X129650000Y-70660000D01*
X138400000Y-100150000D02*
X137400000Y-100150000D01*
X138400000Y-97650000D02*
X137400000Y-97650000D01*
X137400000Y-97650000D02*
X137400000Y-100150000D01*
X138400000Y-97650000D02*
X138400000Y-100150000D01*
X133150000Y-97876000D02*
X133090000Y-97816000D01*
X135085000Y-99811000D02*
X135045000Y-99771000D01*
X132955000Y-98030000D02*
X132915000Y-97990000D01*
X134910000Y-99985000D02*
X134851000Y-99925000D01*
X138400000Y-95070000D02*
X137400000Y-95070000D01*
X138400000Y-92570000D02*
X137400000Y-92570000D01*
X137400000Y-92570000D02*
X137400000Y-95070000D01*
X138400000Y-92570000D02*
X138400000Y-95070000D01*
X133150000Y-92796000D02*
X133090000Y-92736000D01*
X135085000Y-94731000D02*
X135045000Y-94691000D01*
X132955000Y-92950000D02*
X132915000Y-92910000D01*
X134910000Y-94905000D02*
X134851000Y-94845000D01*
X138400000Y-89990000D02*
X137400000Y-89990000D01*
X138400000Y-87490000D02*
X137400000Y-87490000D01*
X137400000Y-87490000D02*
X137400000Y-89990000D01*
X138400000Y-87490000D02*
X138400000Y-89990000D01*
X133150000Y-87716000D02*
X133090000Y-87656000D01*
X135085000Y-89651000D02*
X135045000Y-89611000D01*
X132955000Y-87870000D02*
X132915000Y-87830000D01*
X134910000Y-89825000D02*
X134851000Y-89765000D01*
X138400000Y-84910000D02*
X137400000Y-84910000D01*
X138400000Y-82410000D02*
X137400000Y-82410000D01*
X137400000Y-82410000D02*
X137400000Y-84910000D01*
X138400000Y-82410000D02*
X138400000Y-84910000D01*
X133150000Y-82636000D02*
X133090000Y-82576000D01*
X135085000Y-84571000D02*
X135045000Y-84531000D01*
X132955000Y-82790000D02*
X132915000Y-82750000D01*
X134910000Y-84745000D02*
X134851000Y-84685000D01*
X138400000Y-79830000D02*
X137400000Y-79830000D01*
X138400000Y-77330000D02*
X137400000Y-77330000D01*
X137400000Y-77330000D02*
X137400000Y-79830000D01*
X138400000Y-77330000D02*
X138400000Y-79830000D01*
X133150000Y-77556000D02*
X133090000Y-77496000D01*
X135085000Y-79491000D02*
X135045000Y-79451000D01*
X132955000Y-77710000D02*
X132915000Y-77670000D01*
X134910000Y-79665000D02*
X134851000Y-79605000D01*
X138400000Y-74750000D02*
X137400000Y-74750000D01*
X138400000Y-72250000D02*
X137400000Y-72250000D01*
X137400000Y-72250000D02*
X137400000Y-74750000D01*
X138400000Y-72250000D02*
X138400000Y-74750000D01*
X138460000Y-101500000D02*
X129890000Y-101500000D01*
X138460000Y-70900000D02*
X129890000Y-70900000D01*
X129890000Y-70900000D02*
X129890000Y-101500000D01*
X138460000Y-70900000D02*
X138460000Y-101500000D01*
X136550000Y-70900000D02*
X136550000Y-101500000D01*
X131550000Y-70900000D02*
X131550000Y-101500000D01*
X130450000Y-70900000D02*
X130450000Y-101500000D01*
X135430000Y-98900000D02*
G75*
G03X135430000Y-98900000I-1430000J0D01*
G01*
X135430000Y-93820000D02*
G75*
G03X135430000Y-93820000I-1430000J0D01*
G01*
X135430000Y-88740000D02*
G75*
G03X135430000Y-88740000I-1430000J0D01*
G01*
X135430000Y-83660000D02*
G75*
G03X135430000Y-83660000I-1430000J0D01*
G01*
X135430000Y-78580000D02*
G75*
G03X135430000Y-78580000I-1430000J0D01*
G01*
X132569060Y-73524280D02*
G75*
G02X132714000Y-72872000I1430940J24280D01*
G01*
X133373254Y-72213389D02*
G75*
G02X134628000Y-72214000I626746J-1286611D01*
G01*
X135285824Y-72872638D02*
G75*
G02X135286000Y-74127000I-1285824J-627362D01*
G01*
X134627362Y-74785824D02*
G75*
G02X133373000Y-74786000I-627362J1285824D01*
G01*
X132714725Y-74126871D02*
G75*
G02X132570000Y-73500000I1285275J626871D01*
G01*
X125585729Y-95768125D02*
G75*
G02X126212600Y-95623400I626871J-1285275D01*
G01*
X124926776Y-97680762D02*
G75*
G02X124926600Y-96426400I1285824J627362D01*
G01*
X126839962Y-98339224D02*
G75*
G02X125585600Y-98339400I-627362J1285824D01*
G01*
X127499211Y-96426654D02*
G75*
G02X127498600Y-97681400I-1286611J-626746D01*
G01*
X126188320Y-95622460D02*
G75*
G02X126840600Y-95767400I24280J-1430940D01*
G01*
X122562600Y-97053400D02*
G75*
G03X122562600Y-97053400I-1430000J0D01*
G01*
X117482600Y-97053400D02*
G75*
G03X117482600Y-97053400I-1430000J0D01*
G01*
X112402600Y-97053400D02*
G75*
G03X112402600Y-97053400I-1430000J0D01*
G01*
X107322600Y-97053400D02*
G75*
G03X107322600Y-97053400I-1430000J0D01*
G01*
X102242600Y-97053400D02*
G75*
G03X102242600Y-97053400I-1430000J0D01*
G01*
X128812600Y-93503400D02*
X98212600Y-93503400D01*
X128812600Y-94603400D02*
X98212600Y-94603400D01*
X128812600Y-99603400D02*
X98212600Y-99603400D01*
X128812600Y-101513400D02*
X98212600Y-101513400D01*
X128812600Y-92943400D02*
X98212600Y-92943400D01*
X128812600Y-101513400D02*
X128812600Y-92943400D01*
X98212600Y-101513400D02*
X98212600Y-92943400D01*
X127462600Y-101453400D02*
X124962600Y-101453400D01*
X127462600Y-100453400D02*
X124962600Y-100453400D01*
X127462600Y-101453400D02*
X127462600Y-100453400D01*
X124962600Y-101453400D02*
X124962600Y-100453400D01*
X120047600Y-97963400D02*
X120107600Y-97904400D01*
X122002600Y-96008400D02*
X122042600Y-95968400D01*
X120221600Y-98138400D02*
X120261600Y-98098400D01*
X122156600Y-96203400D02*
X122216600Y-96143400D01*
X122382600Y-101453400D02*
X119882600Y-101453400D01*
X122382600Y-100453400D02*
X119882600Y-100453400D01*
X122382600Y-101453400D02*
X122382600Y-100453400D01*
X119882600Y-101453400D02*
X119882600Y-100453400D01*
X114967600Y-97963400D02*
X115027600Y-97904400D01*
X116922600Y-96008400D02*
X116962600Y-95968400D01*
X115141600Y-98138400D02*
X115181600Y-98098400D01*
X117076600Y-96203400D02*
X117136600Y-96143400D01*
X117302600Y-101453400D02*
X114802600Y-101453400D01*
X117302600Y-100453400D02*
X114802600Y-100453400D01*
X117302600Y-101453400D02*
X117302600Y-100453400D01*
X114802600Y-101453400D02*
X114802600Y-100453400D01*
X109887600Y-97963400D02*
X109947600Y-97904400D01*
X111842600Y-96008400D02*
X111882600Y-95968400D01*
X110061600Y-98138400D02*
X110101600Y-98098400D01*
X111996600Y-96203400D02*
X112056600Y-96143400D01*
X112222600Y-101453400D02*
X109722600Y-101453400D01*
X112222600Y-100453400D02*
X109722600Y-100453400D01*
X112222600Y-101453400D02*
X112222600Y-100453400D01*
X109722600Y-101453400D02*
X109722600Y-100453400D01*
X104807600Y-97963400D02*
X104867600Y-97904400D01*
X106762600Y-96008400D02*
X106802600Y-95968400D01*
X104981600Y-98138400D02*
X105021600Y-98098400D01*
X106916600Y-96203400D02*
X106976600Y-96143400D01*
X107142600Y-101453400D02*
X104642600Y-101453400D01*
X107142600Y-100453400D02*
X104642600Y-100453400D01*
X107142600Y-101453400D02*
X107142600Y-100453400D01*
X104642600Y-101453400D02*
X104642600Y-100453400D01*
X99727600Y-97963400D02*
X99787600Y-97904400D01*
X101682600Y-96008400D02*
X101722600Y-95968400D01*
X99901600Y-98138400D02*
X99941600Y-98098400D01*
X101836600Y-96203400D02*
X101896600Y-96143400D01*
X102062600Y-101453400D02*
X99562600Y-101453400D01*
X102062600Y-100453400D02*
X99562600Y-100453400D01*
X102062600Y-101453400D02*
X102062600Y-100453400D01*
X99562600Y-101453400D02*
X99562600Y-100453400D01*
X129052600Y-93443400D02*
X129052600Y-92703400D01*
X129052600Y-92703400D02*
X128552600Y-92703400D01*
X94285275Y-98273129D02*
G75*
G02X94430000Y-98900000I-1285275J-626871D01*
G01*
X92372638Y-97614176D02*
G75*
G02X93627000Y-97614000I627362J-1285824D01*
G01*
X91714176Y-99527362D02*
G75*
G02X91714000Y-98273000I1285824J627362D01*
G01*
X93626746Y-100186611D02*
G75*
G02X92372000Y-100186000I-626746J1286611D01*
G01*
X94430940Y-98875720D02*
G75*
G02X94286000Y-99528000I-1430940J-24280D01*
G01*
X94430000Y-93820000D02*
G75*
G03X94430000Y-93820000I-1430000J0D01*
G01*
X94430000Y-88740000D02*
G75*
G03X94430000Y-88740000I-1430000J0D01*
G01*
X94430000Y-83660000D02*
G75*
G03X94430000Y-83660000I-1430000J0D01*
G01*
X94430000Y-78580000D02*
G75*
G03X94430000Y-78580000I-1430000J0D01*
G01*
X94430000Y-73500000D02*
G75*
G03X94430000Y-73500000I-1430000J0D01*
G01*
X96550000Y-101500000D02*
X96550000Y-70900000D01*
X95450000Y-101500000D02*
X95450000Y-70900000D01*
X90450000Y-101500000D02*
X90450000Y-70900000D01*
X88540000Y-101500000D02*
X88540000Y-70900000D01*
X97110000Y-101500000D02*
X97110000Y-70900000D01*
X88540000Y-101500000D02*
X97110000Y-101500000D01*
X88540000Y-70900000D02*
X97110000Y-70900000D01*
X88600000Y-100150000D02*
X88600000Y-97650000D01*
X89600000Y-100150000D02*
X89600000Y-97650000D01*
X88600000Y-100150000D02*
X89600000Y-100150000D01*
X88600000Y-97650000D02*
X89600000Y-97650000D01*
X92090000Y-92735000D02*
X92149000Y-92795000D01*
X94045000Y-94690000D02*
X94085000Y-94730000D01*
X91915000Y-92909000D02*
X91955000Y-92949000D01*
X93850000Y-94844000D02*
X93910000Y-94904000D01*
X88600000Y-95070000D02*
X88600000Y-92570000D01*
X89600000Y-95070000D02*
X89600000Y-92570000D01*
X88600000Y-95070000D02*
X89600000Y-95070000D01*
X88600000Y-92570000D02*
X89600000Y-92570000D01*
X92090000Y-87655000D02*
X92149000Y-87715000D01*
X94045000Y-89610000D02*
X94085000Y-89650000D01*
X91915000Y-87829000D02*
X91955000Y-87869000D01*
X93850000Y-89764000D02*
X93910000Y-89824000D01*
X88600000Y-89990000D02*
X88600000Y-87490000D01*
X89600000Y-89990000D02*
X89600000Y-87490000D01*
X88600000Y-89990000D02*
X89600000Y-89990000D01*
X88600000Y-87490000D02*
X89600000Y-87490000D01*
X92090000Y-82575000D02*
X92149000Y-82635000D01*
X94045000Y-84530000D02*
X94085000Y-84570000D01*
X91915000Y-82749000D02*
X91955000Y-82789000D01*
X93850000Y-84684000D02*
X93910000Y-84744000D01*
X88600000Y-84910000D02*
X88600000Y-82410000D01*
X89600000Y-84910000D02*
X89600000Y-82410000D01*
X88600000Y-84910000D02*
X89600000Y-84910000D01*
X88600000Y-82410000D02*
X89600000Y-82410000D01*
X92090000Y-77495000D02*
X92149000Y-77555000D01*
X94045000Y-79450000D02*
X94085000Y-79490000D01*
X91915000Y-77669000D02*
X91955000Y-77709000D01*
X93850000Y-79604000D02*
X93910000Y-79664000D01*
X88600000Y-79830000D02*
X88600000Y-77330000D01*
X89600000Y-79830000D02*
X89600000Y-77330000D01*
X88600000Y-79830000D02*
X89600000Y-79830000D01*
X88600000Y-77330000D02*
X89600000Y-77330000D01*
X92090000Y-72415000D02*
X92149000Y-72475000D01*
X94045000Y-74370000D02*
X94085000Y-74410000D01*
X91915000Y-72589000D02*
X91955000Y-72629000D01*
X93850000Y-74524000D02*
X93910000Y-74584000D01*
X88600000Y-74750000D02*
X88600000Y-72250000D01*
X89600000Y-74750000D02*
X89600000Y-72250000D01*
X88600000Y-74750000D02*
X89600000Y-74750000D01*
X88600000Y-72250000D02*
X89600000Y-72250000D01*
X96610000Y-101740000D02*
X97350000Y-101740000D01*
X97350000Y-101740000D02*
X97350000Y-101240000D01*
X129000000Y-62330000D02*
X129000000Y-76220000D01*
X129000000Y-76220000D02*
X98030000Y-76220000D01*
X98030000Y-76220000D02*
X98030000Y-62330000D01*
X109450000Y-77114338D02*
X108950000Y-77114338D01*
X108950000Y-77114338D02*
X109200000Y-76681325D01*
X109200000Y-76681325D02*
X109450000Y-77114338D01*
D12*
X136982380Y-86563333D02*
X137696666Y-86563333D01*
X137839523Y-86610952D01*
X137934761Y-86706190D01*
X137982380Y-86849047D01*
X137982380Y-86944285D01*
X137315714Y-85658571D02*
X137982380Y-85658571D01*
X136934761Y-85896666D02*
X137649047Y-86134761D01*
X137649047Y-85515714D01*
X113279266Y-99985780D02*
X113279266Y-100700066D01*
X113231647Y-100842923D01*
X113136409Y-100938161D01*
X112993552Y-100985780D01*
X112898314Y-100985780D01*
X113660219Y-99985780D02*
X114279266Y-99985780D01*
X113945933Y-100366733D01*
X114088790Y-100366733D01*
X114184028Y-100414352D01*
X114231647Y-100461971D01*
X114279266Y-100557209D01*
X114279266Y-100795304D01*
X114231647Y-100890542D01*
X114184028Y-100938161D01*
X114088790Y-100985780D01*
X113803076Y-100985780D01*
X113707838Y-100938161D01*
X113660219Y-100890542D01*
X89967619Y-85796666D02*
X89253333Y-85796666D01*
X89110476Y-85749047D01*
X89015238Y-85653809D01*
X88967619Y-85510952D01*
X88967619Y-85415714D01*
X89872380Y-86225238D02*
X89920000Y-86272857D01*
X89967619Y-86368095D01*
X89967619Y-86606190D01*
X89920000Y-86701428D01*
X89872380Y-86749047D01*
X89777142Y-86796666D01*
X89681904Y-86796666D01*
X89539047Y-86749047D01*
X88967619Y-86177619D01*
X88967619Y-86796666D01*
X113181666Y-76612380D02*
X113181666Y-77326666D01*
X113134047Y-77469523D01*
X113038809Y-77564761D01*
X112895952Y-77612380D01*
X112800714Y-77612380D01*
X114181666Y-77612380D02*
X113610238Y-77612380D01*
X113895952Y-77612380D02*
X113895952Y-76612380D01*
X113800714Y-76755238D01*
X113705476Y-76850476D01*
X113610238Y-76898095D01*
M02*
