M48
;DRILL file {KiCad (5.0.2)-1} date 23.01.2019 22:57:59
;FORMAT={-:-/ absolute / inch / decimal}
FMAT,2
INCH,TZ
T1C0.0157
T2C0.0394
T3C0.0433
T4C0.1260
T5C0.1378
%
G90
G05
T1
X4.5244Y-3.1673
X4.5246Y-3.0163
T2
X4.2541Y-2.8583
X4.2992Y-2.7803
X4.2992Y-2.9362
X4.3443Y-2.8583
X4.3894Y-2.7803
X4.3894Y-2.9362
X4.4344Y-2.8583
X4.4795Y-2.7803
X4.4795Y-2.9362
X4.5246Y-2.8583
X4.5697Y-2.7803
X4.5697Y-2.9362
X4.6148Y-2.8583
X4.6598Y-2.7803
X4.6598Y-2.9362
T3
X3.969Y-3.821
X4.169Y-3.821
X4.369Y-3.821
X4.569Y-3.821
X4.769Y-3.821
X4.969Y-3.821
X3.6614Y-2.8937
X3.6614Y-3.0937
X3.6614Y-3.2937
X3.6614Y-3.4937
X3.6614Y-3.6937
X3.6614Y-3.8937
X5.2756Y-2.8937
X5.2756Y-3.0937
X5.2756Y-3.2937
X5.2756Y-3.4937
X5.2756Y-3.6937
X5.2756Y-3.8937
T4
X3.977Y-2.8603
X4.9612Y-2.8603
T5
X3.6614Y-2.6134
X4.4685Y-3.4815
X5.2756Y-2.6134
T0
M30
