%TF.GenerationSoftware,KiCad,Pcbnew,(5.0.2)-1*%
%TF.CreationDate,2019-01-23T22:57:56+01:00*%
%TF.ProjectId,VGA-Terminal,5647412d-5465-4726-9d69-6e616c2e6b69,rev?*%
%TF.SameCoordinates,Original*%
%TF.FileFunction,Copper,L1,Top*%
%TF.FilePolarity,Positive*%
%FSLAX46Y46*%
G04 Gerber Fmt 4.6, Leading zero omitted, Abs format (unit mm)*
G04 Created by KiCad (PCBNEW (5.0.2)-1) date 23.01.2019 22:57:56*
%MOMM*%
%LPD*%
G01*
G04 APERTURE LIST*
%ADD10C,2.100000*%
%ADD11R,2.100000X2.100000*%
%ADD12R,1.600000X1.600000*%
%ADD13C,1.600000*%
%ADD14C,4.000000*%
%ADD15C,0.800000*%
%ADD16C,0.250000*%
%ADD17C,1.270000*%
G04 APERTURE END LIST*
D10*
X134000000Y-98900000D03*
X134000000Y-93820000D03*
X134000000Y-88740000D03*
X134000000Y-83660000D03*
X134000000Y-78580000D03*
D11*
X134000000Y-73500000D03*
X126212600Y-97053400D03*
D10*
X121132600Y-97053400D03*
X116052600Y-97053400D03*
X110972600Y-97053400D03*
X105892600Y-97053400D03*
X100812600Y-97053400D03*
D11*
X93000000Y-98900000D03*
D10*
X93000000Y-93820000D03*
X93000000Y-88740000D03*
X93000000Y-83660000D03*
X93000000Y-78580000D03*
X93000000Y-73500000D03*
D12*
X109200000Y-74580000D03*
D13*
X111490000Y-74580000D03*
X113780000Y-74580000D03*
X116070000Y-74580000D03*
X118360000Y-74580000D03*
X108055000Y-72600000D03*
X110345000Y-72600000D03*
X112635000Y-72600000D03*
X114925000Y-72600000D03*
X117215000Y-72600000D03*
X109200000Y-70620000D03*
X111490000Y-70620000D03*
X113780000Y-70620000D03*
X116070000Y-70620000D03*
X118360000Y-70620000D03*
D14*
X126015000Y-72652000D03*
X101015000Y-72652000D03*
D15*
X114920000Y-80450000D03*
X114925000Y-76615000D03*
D16*
X112635000Y-73731370D02*
X112635000Y-72600000D01*
X112635000Y-75924028D02*
X112635000Y-73731370D01*
X104341564Y-84217464D02*
X112635000Y-75924028D01*
X105892600Y-97053400D02*
X104341564Y-95502364D01*
X104341564Y-95502364D02*
X104341564Y-84217464D01*
D17*
X121132600Y-95568476D02*
X121132600Y-97053400D01*
X121132600Y-78108165D02*
X121132600Y-95568476D01*
X119159999Y-76135564D02*
X121132600Y-78108165D01*
X118360000Y-74580000D02*
X119159999Y-75379999D01*
X119159999Y-75379999D02*
X119159999Y-76135564D01*
X120082601Y-98103399D02*
X121132600Y-97053400D01*
X119247599Y-98938401D02*
X120082601Y-98103399D01*
X111372677Y-98938401D02*
X119247599Y-98938401D01*
X110972600Y-97053400D02*
X110972600Y-98538324D01*
X110972600Y-98538324D02*
X111372677Y-98938401D01*
X132515076Y-98900000D02*
X134000000Y-98900000D01*
X131669276Y-99745800D02*
X132515076Y-98900000D01*
X121132600Y-97053400D02*
X123825000Y-99745800D01*
X123825000Y-99745800D02*
X131669276Y-99745800D01*
X135049999Y-97850001D02*
X134000000Y-98900000D01*
X137355011Y-95544989D02*
X135049999Y-97850001D01*
X137355011Y-74535011D02*
X137355011Y-95544989D01*
X134000000Y-73500000D02*
X136320000Y-73500000D01*
X136320000Y-73500000D02*
X137355011Y-74535011D01*
X116869999Y-75379999D02*
X116869999Y-83849999D01*
X116070000Y-74580000D02*
X116869999Y-75379999D01*
X116869999Y-83849999D02*
X118745000Y-85725000D01*
X118745000Y-94361000D02*
X116052600Y-97053400D01*
X118745000Y-85725000D02*
X118745000Y-94361000D01*
D16*
X114925000Y-80445000D02*
X114920000Y-80450000D01*
X114925000Y-76615000D02*
X114925000Y-80445000D01*
D17*
X113780000Y-69488630D02*
X113780000Y-70620000D01*
X113276369Y-68984999D02*
X113780000Y-69488630D01*
X100486199Y-68984999D02*
X113276369Y-68984999D01*
X94885001Y-74586197D02*
X100486199Y-68984999D01*
X93000000Y-78580000D02*
X94885001Y-76694999D01*
X94885001Y-76694999D02*
X94885001Y-74586197D01*
X94049999Y-72450001D02*
X93000000Y-73500000D01*
X98985011Y-67514989D02*
X94049999Y-72450001D01*
X113885267Y-67514989D02*
X98985011Y-67514989D01*
X115270001Y-68899723D02*
X113885267Y-67514989D01*
X116070000Y-70620000D02*
X115270001Y-69820001D01*
X115270001Y-69820001D02*
X115270001Y-68899723D01*
X108055000Y-72600000D02*
X110345000Y-72600000D01*
X94885001Y-86854999D02*
X94885001Y-83853907D01*
X93000000Y-88740000D02*
X94885001Y-86854999D01*
X107255001Y-73399999D02*
X108055000Y-72600000D01*
X103697989Y-76957011D02*
X107255001Y-73399999D01*
X94885001Y-83853907D02*
X101781897Y-76957011D01*
X101781897Y-76957011D02*
X103697989Y-76957011D01*
X111490000Y-70620000D02*
X109200000Y-70620000D01*
X107242802Y-70620000D02*
X109200000Y-70620000D01*
X102375801Y-75487001D02*
X107242802Y-70620000D01*
X93000000Y-83660000D02*
X101172999Y-75487001D01*
X101172999Y-75487001D02*
X102375801Y-75487001D01*
X99714990Y-84065010D02*
X109200000Y-74580000D01*
X99714990Y-89865010D02*
X99714990Y-84065010D01*
X93000000Y-98900000D02*
X93000000Y-96580000D01*
X93000000Y-96580000D02*
X99714990Y-89865010D01*
X119491370Y-70620000D02*
X118360000Y-70620000D01*
X129336371Y-80465001D02*
X119491370Y-70620000D01*
X134541601Y-80465001D02*
X129336371Y-80465001D01*
X135885001Y-81808401D02*
X134541601Y-80465001D01*
X134000000Y-93820000D02*
X135885001Y-91934999D01*
X135885001Y-91934999D02*
X135885001Y-81808401D01*
X132515076Y-83660000D02*
X134000000Y-83660000D01*
X129859802Y-83660000D02*
X132515076Y-83660000D01*
X117215000Y-72600000D02*
X118799802Y-72600000D01*
X118799802Y-72600000D02*
X129859802Y-83660000D01*
X109096370Y-78105000D02*
X107753908Y-78105000D01*
X111490000Y-74580000D02*
X111490000Y-75711370D01*
X111490000Y-75711370D02*
X109096370Y-78105000D01*
X107753908Y-78105000D02*
X103381554Y-82477354D01*
X103381554Y-94484446D02*
X100812600Y-97053400D01*
X103381554Y-82477354D02*
X103381554Y-94484446D01*
M02*
