M48
;DRILL file {KiCad (5.0.2)-1} date 23.01.2019 22:58:34
;FORMAT={-:-/ absolute / inch / decimal}
FMAT,2
INCH,TZ
T1C0.0157
T2C0.0315
T3C0.0433
T4C0.1378
%
G90
G05
T1
X4.3386Y-2.7598
X4.5358Y-2.9193
X4.5433Y-2.6811
X4.5906Y-2.6535
X5.1795Y-2.9858
T2
X4.3386Y-2.9571
X4.4567Y-2.7362
T3
X3.969Y-3.821
X4.169Y-3.821
X4.369Y-3.821
X4.569Y-3.821
X4.769Y-3.821
X4.969Y-3.821
X3.6614Y-2.8937
X3.6614Y-3.0937
X3.6614Y-3.2937
X3.6614Y-3.4937
X3.6614Y-3.6937
X3.6614Y-3.8937
X5.2756Y-2.8937
X5.2756Y-3.0937
X5.2756Y-3.2937
X5.2756Y-3.4937
X5.2756Y-3.6937
X5.2756Y-3.8937
T4
X5.2756Y-2.6134
X3.6614Y-2.6134
X4.4685Y-3.4815
T2
X4.1811Y-2.602G85X4.1811Y-2.5626
G05
X4.1811Y-2.8484G85X4.1811Y-2.7854
G05
X4.752Y-2.602G85X4.752Y-2.5626
G05
X4.752Y-2.8484G85X4.752Y-2.7854
G05
T0
M30
