%TF.GenerationSoftware,KiCad,Pcbnew,(5.0.2)-1*%
%TF.CreationDate,2019-01-23T22:58:30+01:00*%
%TF.ProjectId,HDMI-Terminal,48444d49-2d54-4657-926d-696e616c2e6b,rev?*%
%TF.SameCoordinates,Original*%
%TF.FileFunction,Copper,L1,Top*%
%TF.FilePolarity,Positive*%
%FSLAX46Y46*%
G04 Gerber Fmt 4.6, Leading zero omitted, Abs format (unit mm)*
G04 Created by KiCad (PCBNEW (5.0.2)-1) date 23.01.2019 22:58:30*
%MOMM*%
%LPD*%
G01*
G04 APERTURE LIST*
%ADD10R,0.290000X2.600000*%
%ADD11O,1.800000X3.400000*%
%ADD12O,1.800000X2.600000*%
%ADD13C,1.400000*%
%ADD14C,0.150000*%
%ADD15C,2.100000*%
%ADD16R,2.100000X2.100000*%
%ADD17C,0.800000*%
%ADD18C,0.500000*%
%ADD19C,0.250000*%
%ADD20C,1.270000*%
%ADD21C,2.540000*%
G04 APERTURE END LIST*
D10*
X117950000Y-72310000D03*
X117450000Y-72310000D03*
X116950000Y-72310000D03*
X116450000Y-72310000D03*
X115950000Y-72310000D03*
X115450000Y-72310000D03*
X114950000Y-72310000D03*
X114450000Y-72310000D03*
X113950000Y-72310000D03*
X113450000Y-72310000D03*
X112950000Y-72310000D03*
X112450000Y-72310000D03*
X111950000Y-72310000D03*
X111450000Y-72310000D03*
X110950000Y-72310000D03*
X110450000Y-72310000D03*
X109950000Y-72310000D03*
X109450000Y-72310000D03*
X108950000Y-72310000D03*
D11*
X106200000Y-71550000D03*
D12*
X106200000Y-65590000D03*
X120700000Y-65590000D03*
D11*
X120700000Y-71550000D03*
D13*
X113200000Y-69500000D03*
D14*
G36*
X114325153Y-71028426D02*
X114320462Y-71027009D01*
X114316137Y-71024704D01*
X114312344Y-71021600D01*
X114309231Y-71017815D01*
X114306915Y-71013496D01*
X114305486Y-71008808D01*
X114305000Y-71003900D01*
X114305000Y-70741090D01*
X113595000Y-70740810D01*
X113595000Y-71003600D01*
X113594520Y-71008477D01*
X113593097Y-71013167D01*
X113590787Y-71017489D01*
X113587678Y-71021278D01*
X113583889Y-71024387D01*
X113579567Y-71026697D01*
X113574877Y-71028120D01*
X113570000Y-71028600D01*
X111830000Y-71028600D01*
X111825123Y-71028120D01*
X111820433Y-71026697D01*
X111816111Y-71024387D01*
X111812322Y-71021278D01*
X111809213Y-71017489D01*
X111806903Y-71013167D01*
X111805480Y-71008477D01*
X111805000Y-71003600D01*
X111805000Y-69276400D01*
X111805480Y-69271523D01*
X111806903Y-69266833D01*
X111809213Y-69262511D01*
X111812322Y-69258722D01*
X111816111Y-69255613D01*
X111820433Y-69253303D01*
X111825123Y-69251880D01*
X111830000Y-69251400D01*
X112546211Y-69251400D01*
X112567207Y-69200711D01*
X112599590Y-69140128D01*
X112637755Y-69083010D01*
X112681334Y-69029909D01*
X112729909Y-68981334D01*
X112783010Y-68937755D01*
X112840128Y-68899590D01*
X112900711Y-68867207D01*
X112964177Y-68840919D01*
X113029914Y-68820978D01*
X113097289Y-68807576D01*
X113165653Y-68800843D01*
X113234347Y-68800843D01*
X113302711Y-68807576D01*
X113370086Y-68820978D01*
X113435823Y-68840919D01*
X113499289Y-68867207D01*
X113559872Y-68899590D01*
X113616990Y-68937755D01*
X113670091Y-68981334D01*
X113718666Y-69029909D01*
X113762245Y-69083010D01*
X113800410Y-69140128D01*
X113832793Y-69200711D01*
X113853789Y-69251400D01*
X114570000Y-69251400D01*
X114574877Y-69251880D01*
X114579567Y-69253303D01*
X114583889Y-69255613D01*
X114587678Y-69258722D01*
X114590787Y-69262511D01*
X114593097Y-69266833D01*
X114594520Y-69271523D01*
X114595000Y-69276400D01*
X114595000Y-71003600D01*
X114594520Y-71008477D01*
X114593097Y-71013167D01*
X114590787Y-71017489D01*
X114587678Y-71021278D01*
X114583889Y-71024387D01*
X114579567Y-71026697D01*
X114574877Y-71028120D01*
X114570031Y-71028600D01*
X114330031Y-71028900D01*
X114325153Y-71028426D01*
X114325153Y-71028426D01*
G37*
D13*
X110200000Y-75110000D03*
D14*
G36*
X111570031Y-73581400D02*
X111574908Y-73581886D01*
X111579596Y-73583315D01*
X111583915Y-73585631D01*
X111587700Y-73588744D01*
X111590804Y-73592537D01*
X111593109Y-73596862D01*
X111594526Y-73601553D01*
X111595000Y-73606400D01*
X111595000Y-75333600D01*
X111594520Y-75338477D01*
X111593097Y-75343167D01*
X111590787Y-75347489D01*
X111587678Y-75351278D01*
X111583889Y-75354387D01*
X111579567Y-75356697D01*
X111574877Y-75358120D01*
X111570000Y-75358600D01*
X110853789Y-75358600D01*
X110832793Y-75409289D01*
X110800410Y-75469872D01*
X110762245Y-75526990D01*
X110718666Y-75580091D01*
X110670091Y-75628666D01*
X110616990Y-75672245D01*
X110559872Y-75710410D01*
X110499289Y-75742793D01*
X110435823Y-75769081D01*
X110370086Y-75789022D01*
X110302711Y-75802424D01*
X110234347Y-75809157D01*
X110165653Y-75809157D01*
X110097289Y-75802424D01*
X110029914Y-75789022D01*
X109964177Y-75769081D01*
X109900711Y-75742793D01*
X109840128Y-75710410D01*
X109783010Y-75672245D01*
X109729909Y-75628666D01*
X109681334Y-75580091D01*
X109637755Y-75526990D01*
X109599590Y-75469872D01*
X109567207Y-75409289D01*
X109546211Y-75358600D01*
X108830000Y-75358600D01*
X108825123Y-75358120D01*
X108820433Y-75356697D01*
X108816111Y-75354387D01*
X108812322Y-75351278D01*
X108809213Y-75347489D01*
X108806903Y-75343167D01*
X108805480Y-75338477D01*
X108805000Y-75333600D01*
X108805000Y-73606400D01*
X108805480Y-73601523D01*
X108806903Y-73596833D01*
X108809213Y-73592511D01*
X108812322Y-73588722D01*
X108816111Y-73585613D01*
X108820433Y-73583303D01*
X108825123Y-73581880D01*
X108830000Y-73581400D01*
X110570000Y-73581400D01*
X110574877Y-73581880D01*
X110579567Y-73583303D01*
X110583889Y-73585613D01*
X110587678Y-73588722D01*
X110590787Y-73592511D01*
X110593097Y-73596833D01*
X110594520Y-73601523D01*
X110595000Y-73606400D01*
X110595000Y-73869190D01*
X111305000Y-73868910D01*
X111305000Y-73606100D01*
X111305480Y-73601223D01*
X111306903Y-73596533D01*
X111309213Y-73592211D01*
X111312322Y-73588422D01*
X111316111Y-73585313D01*
X111320433Y-73583003D01*
X111325123Y-73581580D01*
X111330031Y-73581100D01*
X111570031Y-73581400D01*
X111570031Y-73581400D01*
G37*
D15*
X134000000Y-98900000D03*
X134000000Y-93820000D03*
X134000000Y-88740000D03*
X134000000Y-83660000D03*
X134000000Y-78580000D03*
D16*
X134000000Y-73500000D03*
D15*
X100812600Y-97053400D03*
X105892600Y-97053400D03*
X110972600Y-97053400D03*
X116052600Y-97053400D03*
X121132600Y-97053400D03*
D16*
X126212600Y-97053400D03*
D15*
X93000000Y-73500000D03*
X93000000Y-78580000D03*
X93000000Y-83660000D03*
X93000000Y-88740000D03*
X93000000Y-93820000D03*
D16*
X93000000Y-98900000D03*
D17*
X115210000Y-74150000D03*
X115400000Y-68100000D03*
X116600000Y-67400000D03*
X131560000Y-75840000D03*
X110200000Y-70100000D03*
D18*
X105892600Y-97053400D02*
X105892600Y-86004400D01*
X105892600Y-86004400D02*
X117983000Y-73914000D01*
D19*
X117950000Y-73881000D02*
X117950000Y-72310000D01*
X117983000Y-73914000D02*
X117950000Y-73881000D01*
D20*
X120082601Y-98103399D02*
X121132600Y-97053400D01*
X118786000Y-99400000D02*
X120082601Y-98103399D01*
X110972600Y-97053400D02*
X113319200Y-99400000D01*
X113319200Y-99400000D02*
X118786000Y-99400000D01*
X132950001Y-99949999D02*
X134000000Y-98900000D01*
X121132600Y-97053400D02*
X124029199Y-99949999D01*
X124029199Y-99949999D02*
X132950001Y-99949999D01*
X134000000Y-98900000D02*
X134000000Y-93820000D01*
X135049999Y-92770001D02*
X134000000Y-93820000D01*
X135885001Y-91934999D02*
X135049999Y-92770001D01*
X135885001Y-77705001D02*
X135885001Y-91934999D01*
X134000000Y-73500000D02*
X134000000Y-75820000D01*
X134000000Y-75820000D02*
X135885001Y-77705001D01*
D19*
X114644315Y-74150000D02*
X115210000Y-74150000D01*
X114240000Y-74150000D02*
X114644315Y-74150000D01*
X113950000Y-72310000D02*
X113950000Y-73860000D01*
X113950000Y-73860000D02*
X114240000Y-74150000D01*
X126212600Y-95753400D02*
X126212600Y-97053400D01*
X117450000Y-70760000D02*
X117525001Y-70684999D01*
X117450000Y-72310000D02*
X117450000Y-70760000D01*
X117525001Y-70684999D02*
X118355001Y-70684999D01*
X118355001Y-70684999D02*
X119474990Y-71804988D01*
X119474990Y-71804988D02*
X119474990Y-89015790D01*
X119474990Y-89015790D02*
X126212600Y-95753400D01*
X114950000Y-68550000D02*
X114950000Y-72310000D01*
X115400000Y-68100000D02*
X114950000Y-68550000D01*
X115450000Y-70760000D02*
X115450000Y-72310000D01*
X115450000Y-69115685D02*
X115450000Y-70760000D01*
X116600000Y-67400000D02*
X116600000Y-67965685D01*
X116600000Y-67965685D02*
X115450000Y-69115685D01*
D21*
X96570000Y-88740000D02*
X110200000Y-75110000D01*
X93000000Y-88740000D02*
X96570000Y-88740000D01*
X112636699Y-68936699D02*
X113200000Y-69500000D01*
X112079990Y-68379990D02*
X112636699Y-68936699D01*
X105218310Y-68379990D02*
X112079990Y-68379990D01*
X103829990Y-69768310D02*
X105218310Y-68379990D01*
X93000000Y-83660000D02*
X103829990Y-72830010D01*
X103829990Y-72830010D02*
X103829990Y-69768310D01*
D18*
X93000000Y-97350000D02*
X115951000Y-74399000D01*
X93000000Y-98900000D02*
X93000000Y-97350000D01*
X115951000Y-74399000D02*
X115951000Y-73914000D01*
D19*
X115950000Y-73786000D02*
X115950000Y-72310000D01*
X115951000Y-73914000D02*
X115951000Y-73787000D01*
X115951000Y-73787000D02*
X115950000Y-73786000D01*
D18*
X123335066Y-69399990D02*
X118110010Y-69399990D01*
X134000000Y-78580000D02*
X132515076Y-78580000D01*
X132515076Y-78580000D02*
X123335066Y-69399990D01*
X116959991Y-70550009D02*
X118120000Y-69390000D01*
D19*
X116950000Y-72310000D02*
X116950001Y-70559999D01*
X117871834Y-68824980D02*
X124544980Y-68824980D01*
X116450000Y-72310000D02*
X116450000Y-70246814D01*
X116450000Y-70246814D02*
X117871834Y-68824980D01*
X124544980Y-68824980D02*
X131560000Y-75840000D01*
X131560000Y-75840000D02*
X131600000Y-75880000D01*
X110950000Y-70760000D02*
X110950000Y-72310000D01*
X110950000Y-70284315D02*
X110950000Y-70760000D01*
X110200000Y-70100000D02*
X110765685Y-70100000D01*
X110765685Y-70100000D02*
X110950000Y-70284315D01*
M02*
