%TF.GenerationSoftware,KiCad,Pcbnew,(5.0.2)-1*%
%TF.CreationDate,2019-01-23T22:58:30+01:00*%
%TF.ProjectId,HDMI-Terminal,48444d49-2d54-4657-926d-696e616c2e6b,rev?*%
%TF.SameCoordinates,Original*%
%TF.FileFunction,Copper,L2,Bot*%
%TF.FilePolarity,Positive*%
%FSLAX46Y46*%
G04 Gerber Fmt 4.6, Leading zero omitted, Abs format (unit mm)*
G04 Created by KiCad (PCBNEW (5.0.2)-1) date 23.01.2019 22:58:30*
%MOMM*%
%LPD*%
G01*
G04 APERTURE LIST*
%ADD10O,1.800000X3.400000*%
%ADD11O,1.800000X2.600000*%
%ADD12C,1.400000*%
%ADD13C,0.150000*%
%ADD14C,2.100000*%
%ADD15R,2.100000X2.100000*%
%ADD16C,0.800000*%
%ADD17C,0.500000*%
%ADD18C,1.270000*%
%ADD19C,0.250000*%
G04 APERTURE END LIST*
D10*
X106200000Y-71550000D03*
D11*
X106200000Y-65590000D03*
X120700000Y-65590000D03*
D10*
X120700000Y-71550000D03*
D12*
X113200000Y-69500000D03*
D13*
G36*
X114325153Y-71028426D02*
X114320462Y-71027009D01*
X114316137Y-71024704D01*
X114312344Y-71021600D01*
X114309231Y-71017815D01*
X114306915Y-71013496D01*
X114305486Y-71008808D01*
X114305000Y-71003900D01*
X114305000Y-70741090D01*
X113595000Y-70740810D01*
X113595000Y-71003600D01*
X113594520Y-71008477D01*
X113593097Y-71013167D01*
X113590787Y-71017489D01*
X113587678Y-71021278D01*
X113583889Y-71024387D01*
X113579567Y-71026697D01*
X113574877Y-71028120D01*
X113570000Y-71028600D01*
X111830000Y-71028600D01*
X111825123Y-71028120D01*
X111820433Y-71026697D01*
X111816111Y-71024387D01*
X111812322Y-71021278D01*
X111809213Y-71017489D01*
X111806903Y-71013167D01*
X111805480Y-71008477D01*
X111805000Y-71003600D01*
X111805000Y-69276400D01*
X111805480Y-69271523D01*
X111806903Y-69266833D01*
X111809213Y-69262511D01*
X111812322Y-69258722D01*
X111816111Y-69255613D01*
X111820433Y-69253303D01*
X111825123Y-69251880D01*
X111830000Y-69251400D01*
X112546211Y-69251400D01*
X112567207Y-69200711D01*
X112599590Y-69140128D01*
X112637755Y-69083010D01*
X112681334Y-69029909D01*
X112729909Y-68981334D01*
X112783010Y-68937755D01*
X112840128Y-68899590D01*
X112900711Y-68867207D01*
X112964177Y-68840919D01*
X113029914Y-68820978D01*
X113097289Y-68807576D01*
X113165653Y-68800843D01*
X113234347Y-68800843D01*
X113302711Y-68807576D01*
X113370086Y-68820978D01*
X113435823Y-68840919D01*
X113499289Y-68867207D01*
X113559872Y-68899590D01*
X113616990Y-68937755D01*
X113670091Y-68981334D01*
X113718666Y-69029909D01*
X113762245Y-69083010D01*
X113800410Y-69140128D01*
X113832793Y-69200711D01*
X113853789Y-69251400D01*
X114570000Y-69251400D01*
X114574877Y-69251880D01*
X114579567Y-69253303D01*
X114583889Y-69255613D01*
X114587678Y-69258722D01*
X114590787Y-69262511D01*
X114593097Y-69266833D01*
X114594520Y-69271523D01*
X114595000Y-69276400D01*
X114595000Y-71003600D01*
X114594520Y-71008477D01*
X114593097Y-71013167D01*
X114590787Y-71017489D01*
X114587678Y-71021278D01*
X114583889Y-71024387D01*
X114579567Y-71026697D01*
X114574877Y-71028120D01*
X114570031Y-71028600D01*
X114330031Y-71028900D01*
X114325153Y-71028426D01*
X114325153Y-71028426D01*
G37*
D12*
X110200000Y-75110000D03*
D13*
G36*
X111570031Y-73581400D02*
X111574908Y-73581886D01*
X111579596Y-73583315D01*
X111583915Y-73585631D01*
X111587700Y-73588744D01*
X111590804Y-73592537D01*
X111593109Y-73596862D01*
X111594526Y-73601553D01*
X111595000Y-73606400D01*
X111595000Y-75333600D01*
X111594520Y-75338477D01*
X111593097Y-75343167D01*
X111590787Y-75347489D01*
X111587678Y-75351278D01*
X111583889Y-75354387D01*
X111579567Y-75356697D01*
X111574877Y-75358120D01*
X111570000Y-75358600D01*
X110853789Y-75358600D01*
X110832793Y-75409289D01*
X110800410Y-75469872D01*
X110762245Y-75526990D01*
X110718666Y-75580091D01*
X110670091Y-75628666D01*
X110616990Y-75672245D01*
X110559872Y-75710410D01*
X110499289Y-75742793D01*
X110435823Y-75769081D01*
X110370086Y-75789022D01*
X110302711Y-75802424D01*
X110234347Y-75809157D01*
X110165653Y-75809157D01*
X110097289Y-75802424D01*
X110029914Y-75789022D01*
X109964177Y-75769081D01*
X109900711Y-75742793D01*
X109840128Y-75710410D01*
X109783010Y-75672245D01*
X109729909Y-75628666D01*
X109681334Y-75580091D01*
X109637755Y-75526990D01*
X109599590Y-75469872D01*
X109567207Y-75409289D01*
X109546211Y-75358600D01*
X108830000Y-75358600D01*
X108825123Y-75358120D01*
X108820433Y-75356697D01*
X108816111Y-75354387D01*
X108812322Y-75351278D01*
X108809213Y-75347489D01*
X108806903Y-75343167D01*
X108805480Y-75338477D01*
X108805000Y-75333600D01*
X108805000Y-73606400D01*
X108805480Y-73601523D01*
X108806903Y-73596833D01*
X108809213Y-73592511D01*
X108812322Y-73588722D01*
X108816111Y-73585613D01*
X108820433Y-73583303D01*
X108825123Y-73581880D01*
X108830000Y-73581400D01*
X110570000Y-73581400D01*
X110574877Y-73581880D01*
X110579567Y-73583303D01*
X110583889Y-73585613D01*
X110587678Y-73588722D01*
X110590787Y-73592511D01*
X110593097Y-73596833D01*
X110594520Y-73601523D01*
X110595000Y-73606400D01*
X110595000Y-73869190D01*
X111305000Y-73868910D01*
X111305000Y-73606100D01*
X111305480Y-73601223D01*
X111306903Y-73596533D01*
X111309213Y-73592211D01*
X111312322Y-73588422D01*
X111316111Y-73585313D01*
X111320433Y-73583003D01*
X111325123Y-73581580D01*
X111330031Y-73581100D01*
X111570031Y-73581400D01*
X111570031Y-73581400D01*
G37*
D14*
X134000000Y-98900000D03*
X134000000Y-93820000D03*
X134000000Y-88740000D03*
X134000000Y-83660000D03*
X134000000Y-78580000D03*
D15*
X134000000Y-73500000D03*
D14*
X100812600Y-97053400D03*
X105892600Y-97053400D03*
X110972600Y-97053400D03*
X116052600Y-97053400D03*
X121132600Y-97053400D03*
D15*
X126212600Y-97053400D03*
D14*
X93000000Y-73500000D03*
X93000000Y-78580000D03*
X93000000Y-83660000D03*
X93000000Y-88740000D03*
X93000000Y-93820000D03*
D15*
X93000000Y-98900000D03*
D16*
X115210000Y-74150000D03*
X115400000Y-68100000D03*
X116600000Y-67400000D03*
X131560000Y-75840000D03*
X110200000Y-70100000D03*
D17*
X115619962Y-74530000D02*
X115224981Y-74135019D01*
X131420000Y-74530000D02*
X115619962Y-74530000D01*
X134000000Y-73500000D02*
X132450000Y-73500000D01*
X132450000Y-73500000D02*
X131420000Y-74530000D01*
X115400000Y-68100000D02*
X115400000Y-68100000D01*
X114834315Y-68100000D02*
X115400000Y-68100000D01*
X97379990Y-74200010D02*
X106259192Y-74200010D01*
X93000000Y-78580000D02*
X97379990Y-74200010D01*
X106259192Y-74200010D02*
X109349999Y-71109203D01*
X109349999Y-71109203D02*
X109349999Y-69691999D01*
X109349999Y-69691999D02*
X110941998Y-68100000D01*
X110941998Y-68100000D02*
X114834315Y-68100000D01*
X100599202Y-73500000D02*
X106699202Y-67400000D01*
X93000000Y-73500000D02*
X100599202Y-73500000D01*
X106699202Y-67400000D02*
X116600000Y-67400000D01*
X116600000Y-67400000D02*
X116600000Y-67400000D01*
D18*
X135049999Y-87690001D02*
X134000000Y-88740000D01*
X135885001Y-86854999D02*
X135049999Y-87690001D01*
X135885001Y-78980077D02*
X135885001Y-86854999D01*
X134000000Y-78580000D02*
X135484924Y-78580000D01*
X135484924Y-78580000D02*
X135885001Y-78980077D01*
X135049999Y-89789999D02*
X134000000Y-88740000D01*
X135885001Y-90625001D02*
X135049999Y-89789999D01*
X93000000Y-93820000D02*
X98118401Y-98938401D01*
X98118401Y-98938401D02*
X131161599Y-98938401D01*
X131161599Y-98938401D02*
X134394999Y-95705001D01*
X134394999Y-95705001D02*
X134904801Y-95705001D01*
X134904801Y-95705001D02*
X135885001Y-94724801D01*
X135885001Y-94724801D02*
X135885001Y-90625001D01*
D19*
X131560000Y-81220000D02*
X131560000Y-75840000D01*
X134000000Y-83660000D02*
X131560000Y-81220000D01*
D17*
X101862599Y-96003401D02*
X100812600Y-97053400D01*
X102312601Y-95553399D02*
X101862599Y-96003401D01*
X111692601Y-95553399D02*
X102312601Y-95553399D01*
X116052600Y-97053400D02*
X113192602Y-97053400D01*
X113192602Y-97053400D02*
X111692601Y-95553399D01*
X112045010Y-71945010D02*
X112045010Y-80875010D01*
X110200000Y-70100000D02*
X112045010Y-71945010D01*
X112045010Y-80875010D02*
X118220000Y-87050000D01*
X118220000Y-94886000D02*
X116052600Y-97053400D01*
X118220000Y-87050000D02*
X118220000Y-94886000D01*
M02*
