%TF.GenerationSoftware,KiCad,Pcbnew,(5.0.2)-1*%
%TF.CreationDate,2019-02-13T20:03:15+01:00*%
%TF.ProjectId,VGA-Terminal_XT,5647412d-5465-4726-9d69-6e616c5f5854,rev?*%
%TF.SameCoordinates,Original*%
%TF.FileFunction,Legend,Bot*%
%TF.FilePolarity,Positive*%
%FSLAX46Y46*%
G04 Gerber Fmt 4.6, Leading zero omitted, Abs format (unit mm)*
G04 Created by KiCad (PCBNEW (5.0.2)-1) date 13.02.2019 20:03:15*
%MOMM*%
%LPD*%
G01*
G04 APERTURE LIST*
%ADD10C,0.300000*%
G04 APERTURE END LIST*
D10*
X138152857Y-103708571D02*
X137795714Y-104708571D01*
X137438571Y-103708571D01*
X136581428Y-103208571D02*
X136438571Y-103208571D01*
X136295714Y-103280000D01*
X136224285Y-103351428D01*
X136152857Y-103494285D01*
X136081428Y-103780000D01*
X136081428Y-104137142D01*
X136152857Y-104422857D01*
X136224285Y-104565714D01*
X136295714Y-104637142D01*
X136438571Y-104708571D01*
X136581428Y-104708571D01*
X136724285Y-104637142D01*
X136795714Y-104565714D01*
X136867142Y-104422857D01*
X136938571Y-104137142D01*
X136938571Y-103780000D01*
X136867142Y-103494285D01*
X136795714Y-103351428D01*
X136724285Y-103280000D01*
X136581428Y-103208571D01*
X135438571Y-104565714D02*
X135367142Y-104637142D01*
X135438571Y-104708571D01*
X135510000Y-104637142D01*
X135438571Y-104565714D01*
X135438571Y-104708571D01*
X134867142Y-103208571D02*
X133938571Y-103208571D01*
X134438571Y-103780000D01*
X134224285Y-103780000D01*
X134081428Y-103851428D01*
X134010000Y-103922857D01*
X133938571Y-104065714D01*
X133938571Y-104422857D01*
X134010000Y-104565714D01*
X134081428Y-104637142D01*
X134224285Y-104708571D01*
X134652857Y-104708571D01*
X134795714Y-104637142D01*
X134867142Y-104565714D01*
X131081428Y-103137142D02*
X132367142Y-105065714D01*
X129510000Y-103351428D02*
X129438571Y-103280000D01*
X129295714Y-103208571D01*
X128938571Y-103208571D01*
X128795714Y-103280000D01*
X128724285Y-103351428D01*
X128652857Y-103494285D01*
X128652857Y-103637142D01*
X128724285Y-103851428D01*
X129581428Y-104708571D01*
X128652857Y-104708571D01*
X127724285Y-103208571D02*
X127581428Y-103208571D01*
X127438571Y-103280000D01*
X127367142Y-103351428D01*
X127295714Y-103494285D01*
X127224285Y-103780000D01*
X127224285Y-104137142D01*
X127295714Y-104422857D01*
X127367142Y-104565714D01*
X127438571Y-104637142D01*
X127581428Y-104708571D01*
X127724285Y-104708571D01*
X127867142Y-104637142D01*
X127938571Y-104565714D01*
X128010000Y-104422857D01*
X128081428Y-104137142D01*
X128081428Y-103780000D01*
X128010000Y-103494285D01*
X127938571Y-103351428D01*
X127867142Y-103280000D01*
X127724285Y-103208571D01*
X125795714Y-104708571D02*
X126652857Y-104708571D01*
X126224285Y-104708571D02*
X126224285Y-103208571D01*
X126367142Y-103422857D01*
X126510000Y-103565714D01*
X126652857Y-103637142D01*
X125081428Y-104708571D02*
X124795714Y-104708571D01*
X124652857Y-104637142D01*
X124581428Y-104565714D01*
X124438571Y-104351428D01*
X124367142Y-104065714D01*
X124367142Y-103494285D01*
X124438571Y-103351428D01*
X124510000Y-103280000D01*
X124652857Y-103208571D01*
X124938571Y-103208571D01*
X125081428Y-103280000D01*
X125152857Y-103351428D01*
X125224285Y-103494285D01*
X125224285Y-103851428D01*
X125152857Y-103994285D01*
X125081428Y-104065714D01*
X124938571Y-104137142D01*
X124652857Y-104137142D01*
X124510000Y-104065714D01*
X124438571Y-103994285D01*
X124367142Y-103851428D01*
X123724285Y-104137142D02*
X122581428Y-104137142D01*
X121581428Y-103208571D02*
X121438571Y-103208571D01*
X121295714Y-103280000D01*
X121224285Y-103351428D01*
X121152857Y-103494285D01*
X121081428Y-103780000D01*
X121081428Y-104137142D01*
X121152857Y-104422857D01*
X121224285Y-104565714D01*
X121295714Y-104637142D01*
X121438571Y-104708571D01*
X121581428Y-104708571D01*
X121724285Y-104637142D01*
X121795714Y-104565714D01*
X121867142Y-104422857D01*
X121938571Y-104137142D01*
X121938571Y-103780000D01*
X121867142Y-103494285D01*
X121795714Y-103351428D01*
X121724285Y-103280000D01*
X121581428Y-103208571D01*
X120510000Y-103351428D02*
X120438571Y-103280000D01*
X120295714Y-103208571D01*
X119938571Y-103208571D01*
X119795714Y-103280000D01*
X119724285Y-103351428D01*
X119652857Y-103494285D01*
X119652857Y-103637142D01*
X119724285Y-103851428D01*
X120581428Y-104708571D01*
X119652857Y-104708571D01*
X119010000Y-104137142D02*
X117867142Y-104137142D01*
X116367142Y-104708571D02*
X117224285Y-104708571D01*
X116795714Y-104708571D02*
X116795714Y-103208571D01*
X116938571Y-103422857D01*
X117081428Y-103565714D01*
X117224285Y-103637142D01*
X115867142Y-103208571D02*
X114938571Y-103208571D01*
X115438571Y-103780000D01*
X115224285Y-103780000D01*
X115081428Y-103851428D01*
X115010000Y-103922857D01*
X114938571Y-104065714D01*
X114938571Y-104422857D01*
X115010000Y-104565714D01*
X115081428Y-104637142D01*
X115224285Y-104708571D01*
X115652857Y-104708571D01*
X115795714Y-104637142D01*
X115867142Y-104565714D01*
X130971428Y-64753571D02*
X130971428Y-63253571D01*
X130971428Y-63967857D02*
X130114285Y-63967857D01*
X130114285Y-64753571D02*
X130114285Y-63253571D01*
X129400000Y-63967857D02*
X128900000Y-63967857D01*
X128685714Y-64753571D02*
X129400000Y-64753571D01*
X129400000Y-63253571D01*
X128685714Y-63253571D01*
X128257142Y-63253571D02*
X127757142Y-64753571D01*
X127257142Y-63253571D01*
X126471428Y-63253571D02*
X126185714Y-63253571D01*
X126042857Y-63325000D01*
X125900000Y-63467857D01*
X125828571Y-63753571D01*
X125828571Y-64253571D01*
X125900000Y-64539285D01*
X126042857Y-64682142D01*
X126185714Y-64753571D01*
X126471428Y-64753571D01*
X126614285Y-64682142D01*
X126757142Y-64539285D01*
X126828571Y-64253571D01*
X126828571Y-63753571D01*
X126757142Y-63467857D01*
X126614285Y-63325000D01*
X126471428Y-63253571D01*
X124185714Y-63253571D02*
X123185714Y-64753571D01*
X123185714Y-63253571D02*
X124185714Y-64753571D01*
X122614285Y-64182142D02*
X121471428Y-64182142D01*
X119900000Y-64610714D02*
X119971428Y-64682142D01*
X120185714Y-64753571D01*
X120328571Y-64753571D01*
X120542857Y-64682142D01*
X120685714Y-64539285D01*
X120757142Y-64396428D01*
X120828571Y-64110714D01*
X120828571Y-63896428D01*
X120757142Y-63610714D01*
X120685714Y-63467857D01*
X120542857Y-63325000D01*
X120328571Y-63253571D01*
X120185714Y-63253571D01*
X119971428Y-63325000D01*
X119900000Y-63396428D01*
X118614285Y-64753571D02*
X118614285Y-63967857D01*
X118685714Y-63825000D01*
X118828571Y-63753571D01*
X119114285Y-63753571D01*
X119257142Y-63825000D01*
X118614285Y-64682142D02*
X118757142Y-64753571D01*
X119114285Y-64753571D01*
X119257142Y-64682142D01*
X119328571Y-64539285D01*
X119328571Y-64396428D01*
X119257142Y-64253571D01*
X119114285Y-64182142D01*
X118757142Y-64182142D01*
X118614285Y-64110714D01*
X117900000Y-64753571D02*
X117900000Y-63753571D01*
X117900000Y-64039285D02*
X117828571Y-63896428D01*
X117757142Y-63825000D01*
X117614285Y-63753571D01*
X117471428Y-63753571D01*
X116971428Y-64753571D02*
X116971428Y-63753571D01*
X116971428Y-64039285D02*
X116900000Y-63896428D01*
X116828571Y-63825000D01*
X116685714Y-63753571D01*
X116542857Y-63753571D01*
X116042857Y-64753571D02*
X116042857Y-63753571D01*
X116042857Y-63253571D02*
X116114285Y-63325000D01*
X116042857Y-63396428D01*
X115971428Y-63325000D01*
X116042857Y-63253571D01*
X116042857Y-63396428D01*
X114685714Y-64753571D02*
X114685714Y-63967857D01*
X114757142Y-63825000D01*
X114900000Y-63753571D01*
X115185714Y-63753571D01*
X115328571Y-63825000D01*
X114685714Y-64682142D02*
X114828571Y-64753571D01*
X115185714Y-64753571D01*
X115328571Y-64682142D01*
X115400000Y-64539285D01*
X115400000Y-64396428D01*
X115328571Y-64253571D01*
X115185714Y-64182142D01*
X114828571Y-64182142D01*
X114685714Y-64110714D01*
X113328571Y-63753571D02*
X113328571Y-64967857D01*
X113400000Y-65110714D01*
X113471428Y-65182142D01*
X113614285Y-65253571D01*
X113828571Y-65253571D01*
X113971428Y-65182142D01*
X113328571Y-64682142D02*
X113471428Y-64753571D01*
X113757142Y-64753571D01*
X113900000Y-64682142D01*
X113971428Y-64610714D01*
X114042857Y-64467857D01*
X114042857Y-64039285D01*
X113971428Y-63896428D01*
X113900000Y-63825000D01*
X113757142Y-63753571D01*
X113471428Y-63753571D01*
X113328571Y-63825000D01*
X112042857Y-64682142D02*
X112185714Y-64753571D01*
X112471428Y-64753571D01*
X112614285Y-64682142D01*
X112685714Y-64539285D01*
X112685714Y-63967857D01*
X112614285Y-63825000D01*
X112471428Y-63753571D01*
X112185714Y-63753571D01*
X112042857Y-63825000D01*
X111971428Y-63967857D01*
X111971428Y-64110714D01*
X112685714Y-64253571D01*
X110400000Y-63253571D02*
X109900000Y-64753571D01*
X109400000Y-63253571D01*
X108114285Y-63325000D02*
X108257142Y-63253571D01*
X108471428Y-63253571D01*
X108685714Y-63325000D01*
X108828571Y-63467857D01*
X108900000Y-63610714D01*
X108971428Y-63896428D01*
X108971428Y-64110714D01*
X108900000Y-64396428D01*
X108828571Y-64539285D01*
X108685714Y-64682142D01*
X108471428Y-64753571D01*
X108328571Y-64753571D01*
X108114285Y-64682142D01*
X108042857Y-64610714D01*
X108042857Y-64110714D01*
X108328571Y-64110714D01*
X107471428Y-64325000D02*
X106757142Y-64325000D01*
X107614285Y-64753571D02*
X107114285Y-63253571D01*
X106614285Y-64753571D01*
X104471428Y-63967857D02*
X104257142Y-64039285D01*
X104185714Y-64110714D01*
X104114285Y-64253571D01*
X104114285Y-64467857D01*
X104185714Y-64610714D01*
X104257142Y-64682142D01*
X104400000Y-64753571D01*
X104971428Y-64753571D01*
X104971428Y-63253571D01*
X104471428Y-63253571D01*
X104328571Y-63325000D01*
X104257142Y-63396428D01*
X104185714Y-63539285D01*
X104185714Y-63682142D01*
X104257142Y-63825000D01*
X104328571Y-63896428D01*
X104471428Y-63967857D01*
X104971428Y-63967857D01*
X103471428Y-64753571D02*
X103471428Y-63753571D01*
X103471428Y-64039285D02*
X103400000Y-63896428D01*
X103328571Y-63825000D01*
X103185714Y-63753571D01*
X103042857Y-63753571D01*
X101971428Y-64682142D02*
X102114285Y-64753571D01*
X102400000Y-64753571D01*
X102542857Y-64682142D01*
X102614285Y-64539285D01*
X102614285Y-63967857D01*
X102542857Y-63825000D01*
X102400000Y-63753571D01*
X102114285Y-63753571D01*
X101971428Y-63825000D01*
X101900000Y-63967857D01*
X101900000Y-64110714D01*
X102614285Y-64253571D01*
X100614285Y-64753571D02*
X100614285Y-63967857D01*
X100685714Y-63825000D01*
X100828571Y-63753571D01*
X101114285Y-63753571D01*
X101257142Y-63825000D01*
X100614285Y-64682142D02*
X100757142Y-64753571D01*
X101114285Y-64753571D01*
X101257142Y-64682142D01*
X101328571Y-64539285D01*
X101328571Y-64396428D01*
X101257142Y-64253571D01*
X101114285Y-64182142D01*
X100757142Y-64182142D01*
X100614285Y-64110714D01*
X99900000Y-64753571D02*
X99900000Y-63253571D01*
X99757142Y-64182142D02*
X99328571Y-64753571D01*
X99328571Y-63753571D02*
X99900000Y-64325000D01*
X98471428Y-64753571D02*
X98614285Y-64682142D01*
X98685714Y-64610714D01*
X98757142Y-64467857D01*
X98757142Y-64039285D01*
X98685714Y-63896428D01*
X98614285Y-63825000D01*
X98471428Y-63753571D01*
X98257142Y-63753571D01*
X98114285Y-63825000D01*
X98042857Y-63896428D01*
X97971428Y-64039285D01*
X97971428Y-64467857D01*
X98042857Y-64610714D01*
X98114285Y-64682142D01*
X98257142Y-64753571D01*
X98471428Y-64753571D01*
X96685714Y-63753571D02*
X96685714Y-64753571D01*
X97328571Y-63753571D02*
X97328571Y-64539285D01*
X97257142Y-64682142D01*
X97114285Y-64753571D01*
X96900000Y-64753571D01*
X96757142Y-64682142D01*
X96685714Y-64610714D01*
X96185714Y-63753571D02*
X95614285Y-63753571D01*
X95971428Y-63253571D02*
X95971428Y-64539285D01*
X95900000Y-64682142D01*
X95757142Y-64753571D01*
X95614285Y-64753571D01*
X124721428Y-67303571D02*
X124721428Y-65803571D01*
X124721428Y-66375000D02*
X124578571Y-66303571D01*
X124292857Y-66303571D01*
X124150000Y-66375000D01*
X124078571Y-66446428D01*
X124007142Y-66589285D01*
X124007142Y-67017857D01*
X124078571Y-67160714D01*
X124150000Y-67232142D01*
X124292857Y-67303571D01*
X124578571Y-67303571D01*
X124721428Y-67232142D01*
X123507142Y-66303571D02*
X123150000Y-67303571D01*
X122792857Y-66303571D02*
X123150000Y-67303571D01*
X123292857Y-67660714D01*
X123364285Y-67732142D01*
X123507142Y-67803571D01*
X121292857Y-65803571D02*
X120435714Y-65803571D01*
X120864285Y-67303571D02*
X120864285Y-65803571D01*
X119935714Y-67303571D02*
X119935714Y-65803571D01*
X119292857Y-67303571D02*
X119292857Y-66517857D01*
X119364285Y-66375000D01*
X119507142Y-66303571D01*
X119721428Y-66303571D01*
X119864285Y-66375000D01*
X119935714Y-66446428D01*
X118364285Y-67303571D02*
X118507142Y-67232142D01*
X118578571Y-67160714D01*
X118650000Y-67017857D01*
X118650000Y-66589285D01*
X118578571Y-66446428D01*
X118507142Y-66375000D01*
X118364285Y-66303571D01*
X118150000Y-66303571D01*
X118007142Y-66375000D01*
X117935714Y-66446428D01*
X117864285Y-66589285D01*
X117864285Y-67017857D01*
X117935714Y-67160714D01*
X118007142Y-67232142D01*
X118150000Y-67303571D01*
X118364285Y-67303571D01*
X117221428Y-67303571D02*
X117221428Y-66303571D01*
X117221428Y-66589285D02*
X117150000Y-66446428D01*
X117078571Y-66375000D01*
X116935714Y-66303571D01*
X116792857Y-66303571D01*
X116364285Y-67232142D02*
X116221428Y-67303571D01*
X115935714Y-67303571D01*
X115792857Y-67232142D01*
X115721428Y-67089285D01*
X115721428Y-67017857D01*
X115792857Y-66875000D01*
X115935714Y-66803571D01*
X116150000Y-66803571D01*
X116292857Y-66732142D01*
X116364285Y-66589285D01*
X116364285Y-66517857D01*
X116292857Y-66375000D01*
X116150000Y-66303571D01*
X115935714Y-66303571D01*
X115792857Y-66375000D01*
X115292857Y-66303571D02*
X114721428Y-66303571D01*
X115078571Y-65803571D02*
X115078571Y-67089285D01*
X115007142Y-67232142D01*
X114864285Y-67303571D01*
X114721428Y-67303571D01*
X113650000Y-67232142D02*
X113792857Y-67303571D01*
X114078571Y-67303571D01*
X114221428Y-67232142D01*
X114292857Y-67089285D01*
X114292857Y-66517857D01*
X114221428Y-66375000D01*
X114078571Y-66303571D01*
X113792857Y-66303571D01*
X113650000Y-66375000D01*
X113578571Y-66517857D01*
X113578571Y-66660714D01*
X114292857Y-66803571D01*
X112935714Y-66303571D02*
X112935714Y-67303571D01*
X112935714Y-66446428D02*
X112864285Y-66375000D01*
X112721428Y-66303571D01*
X112507142Y-66303571D01*
X112364285Y-66375000D01*
X112292857Y-66517857D01*
X112292857Y-67303571D01*
X109578571Y-67303571D02*
X110078571Y-66589285D01*
X110435714Y-67303571D02*
X110435714Y-65803571D01*
X109864285Y-65803571D01*
X109721428Y-65875000D01*
X109650000Y-65946428D01*
X109578571Y-66089285D01*
X109578571Y-66303571D01*
X109650000Y-66446428D01*
X109721428Y-66517857D01*
X109864285Y-66589285D01*
X110435714Y-66589285D01*
X108364285Y-67232142D02*
X108507142Y-67303571D01*
X108792857Y-67303571D01*
X108935714Y-67232142D01*
X109007142Y-67089285D01*
X109007142Y-66517857D01*
X108935714Y-66375000D01*
X108792857Y-66303571D01*
X108507142Y-66303571D01*
X108364285Y-66375000D01*
X108292857Y-66517857D01*
X108292857Y-66660714D01*
X109007142Y-66803571D01*
X107650000Y-67303571D02*
X107650000Y-66303571D01*
X107650000Y-65803571D02*
X107721428Y-65875000D01*
X107650000Y-65946428D01*
X107578571Y-65875000D01*
X107650000Y-65803571D01*
X107650000Y-65946428D01*
X106292857Y-67232142D02*
X106435714Y-67303571D01*
X106721428Y-67303571D01*
X106864285Y-67232142D01*
X106935714Y-67160714D01*
X107007142Y-67017857D01*
X107007142Y-66589285D01*
X106935714Y-66446428D01*
X106864285Y-66375000D01*
X106721428Y-66303571D01*
X106435714Y-66303571D01*
X106292857Y-66375000D01*
X105650000Y-67303571D02*
X105650000Y-65803571D01*
X105007142Y-67303571D02*
X105007142Y-66517857D01*
X105078571Y-66375000D01*
X105221428Y-66303571D01*
X105435714Y-66303571D01*
X105578571Y-66375000D01*
X105650000Y-66446428D01*
X103721428Y-67232142D02*
X103864285Y-67303571D01*
X104150000Y-67303571D01*
X104292857Y-67232142D01*
X104364285Y-67089285D01*
X104364285Y-66517857D01*
X104292857Y-66375000D01*
X104150000Y-66303571D01*
X103864285Y-66303571D01*
X103721428Y-66375000D01*
X103650000Y-66517857D01*
X103650000Y-66660714D01*
X104364285Y-66803571D01*
X102792857Y-67303571D02*
X102935714Y-67232142D01*
X103007142Y-67089285D01*
X103007142Y-65803571D01*
X102435714Y-66303571D02*
X101864285Y-66303571D01*
X102221428Y-65803571D02*
X102221428Y-67089285D01*
X102150000Y-67232142D01*
X102007142Y-67303571D01*
X101864285Y-67303571D01*
M02*
