%TF.GenerationSoftware,KiCad,Pcbnew,(5.0.2)-1*%
%TF.CreationDate,2019-02-14T19:53:03+01:00*%
%TF.ProjectId,VGA-Terminal_JSTXH,5647412d-5465-4726-9d69-6e616c5f4a53,rev?*%
%TF.SameCoordinates,Original*%
%TF.FileFunction,Copper,L1,Top*%
%TF.FilePolarity,Positive*%
%FSLAX46Y46*%
G04 Gerber Fmt 4.6, Leading zero omitted, Abs format (unit mm)*
G04 Created by KiCad (PCBNEW (5.0.2)-1) date 14.02.2019 19:53:03*
%MOMM*%
%LPD*%
G01*
G04 APERTURE LIST*
%ADD10R,2.100000X2.100000*%
%ADD11C,2.100000*%
%ADD12O,2.000000X1.700000*%
%ADD13C,0.150000*%
%ADD14C,1.700000*%
%ADD15O,1.700000X1.950000*%
%ADD16C,4.000000*%
%ADD17C,1.600000*%
%ADD18R,1.600000X1.600000*%
%ADD19C,1.270000*%
%ADD20C,0.254000*%
G04 APERTURE END LIST*
D10*
X134930000Y-96950000D03*
D11*
X129850000Y-96950000D03*
D12*
X134070000Y-76140000D03*
D13*
G36*
X134844504Y-77791204D02*
X134868773Y-77794804D01*
X134892571Y-77800765D01*
X134915671Y-77809030D01*
X134937849Y-77819520D01*
X134958893Y-77832133D01*
X134978598Y-77846747D01*
X134996777Y-77863223D01*
X135013253Y-77881402D01*
X135027867Y-77901107D01*
X135040480Y-77922151D01*
X135050970Y-77944329D01*
X135059235Y-77967429D01*
X135065196Y-77991227D01*
X135068796Y-78015496D01*
X135070000Y-78040000D01*
X135070000Y-79240000D01*
X135068796Y-79264504D01*
X135065196Y-79288773D01*
X135059235Y-79312571D01*
X135050970Y-79335671D01*
X135040480Y-79357849D01*
X135027867Y-79378893D01*
X135013253Y-79398598D01*
X134996777Y-79416777D01*
X134978598Y-79433253D01*
X134958893Y-79447867D01*
X134937849Y-79460480D01*
X134915671Y-79470970D01*
X134892571Y-79479235D01*
X134868773Y-79485196D01*
X134844504Y-79488796D01*
X134820000Y-79490000D01*
X133320000Y-79490000D01*
X133295496Y-79488796D01*
X133271227Y-79485196D01*
X133247429Y-79479235D01*
X133224329Y-79470970D01*
X133202151Y-79460480D01*
X133181107Y-79447867D01*
X133161402Y-79433253D01*
X133143223Y-79416777D01*
X133126747Y-79398598D01*
X133112133Y-79378893D01*
X133099520Y-79357849D01*
X133089030Y-79335671D01*
X133080765Y-79312571D01*
X133074804Y-79288773D01*
X133071204Y-79264504D01*
X133070000Y-79240000D01*
X133070000Y-78040000D01*
X133071204Y-78015496D01*
X133074804Y-77991227D01*
X133080765Y-77967429D01*
X133089030Y-77944329D01*
X133099520Y-77922151D01*
X133112133Y-77901107D01*
X133126747Y-77881402D01*
X133143223Y-77863223D01*
X133161402Y-77846747D01*
X133181107Y-77832133D01*
X133202151Y-77819520D01*
X133224329Y-77809030D01*
X133247429Y-77800765D01*
X133271227Y-77794804D01*
X133295496Y-77791204D01*
X133320000Y-77790000D01*
X134820000Y-77790000D01*
X134844504Y-77791204D01*
X134844504Y-77791204D01*
G37*
D14*
X134070000Y-78640000D03*
D13*
G36*
X134844504Y-86351204D02*
X134868773Y-86354804D01*
X134892571Y-86360765D01*
X134915671Y-86369030D01*
X134937849Y-86379520D01*
X134958893Y-86392133D01*
X134978598Y-86406747D01*
X134996777Y-86423223D01*
X135013253Y-86441402D01*
X135027867Y-86461107D01*
X135040480Y-86482151D01*
X135050970Y-86504329D01*
X135059235Y-86527429D01*
X135065196Y-86551227D01*
X135068796Y-86575496D01*
X135070000Y-86600000D01*
X135070000Y-87800000D01*
X135068796Y-87824504D01*
X135065196Y-87848773D01*
X135059235Y-87872571D01*
X135050970Y-87895671D01*
X135040480Y-87917849D01*
X135027867Y-87938893D01*
X135013253Y-87958598D01*
X134996777Y-87976777D01*
X134978598Y-87993253D01*
X134958893Y-88007867D01*
X134937849Y-88020480D01*
X134915671Y-88030970D01*
X134892571Y-88039235D01*
X134868773Y-88045196D01*
X134844504Y-88048796D01*
X134820000Y-88050000D01*
X133320000Y-88050000D01*
X133295496Y-88048796D01*
X133271227Y-88045196D01*
X133247429Y-88039235D01*
X133224329Y-88030970D01*
X133202151Y-88020480D01*
X133181107Y-88007867D01*
X133161402Y-87993253D01*
X133143223Y-87976777D01*
X133126747Y-87958598D01*
X133112133Y-87938893D01*
X133099520Y-87917849D01*
X133089030Y-87895671D01*
X133080765Y-87872571D01*
X133074804Y-87848773D01*
X133071204Y-87824504D01*
X133070000Y-87800000D01*
X133070000Y-86600000D01*
X133071204Y-86575496D01*
X133074804Y-86551227D01*
X133080765Y-86527429D01*
X133089030Y-86504329D01*
X133099520Y-86482151D01*
X133112133Y-86461107D01*
X133126747Y-86441402D01*
X133143223Y-86423223D01*
X133161402Y-86406747D01*
X133181107Y-86392133D01*
X133202151Y-86379520D01*
X133224329Y-86369030D01*
X133247429Y-86360765D01*
X133271227Y-86354804D01*
X133295496Y-86351204D01*
X133320000Y-86350000D01*
X134820000Y-86350000D01*
X134844504Y-86351204D01*
X134844504Y-86351204D01*
G37*
D14*
X134070000Y-87200000D03*
D12*
X134070000Y-84700000D03*
X122870000Y-84700000D03*
D13*
G36*
X123644504Y-86351204D02*
X123668773Y-86354804D01*
X123692571Y-86360765D01*
X123715671Y-86369030D01*
X123737849Y-86379520D01*
X123758893Y-86392133D01*
X123778598Y-86406747D01*
X123796777Y-86423223D01*
X123813253Y-86441402D01*
X123827867Y-86461107D01*
X123840480Y-86482151D01*
X123850970Y-86504329D01*
X123859235Y-86527429D01*
X123865196Y-86551227D01*
X123868796Y-86575496D01*
X123870000Y-86600000D01*
X123870000Y-87800000D01*
X123868796Y-87824504D01*
X123865196Y-87848773D01*
X123859235Y-87872571D01*
X123850970Y-87895671D01*
X123840480Y-87917849D01*
X123827867Y-87938893D01*
X123813253Y-87958598D01*
X123796777Y-87976777D01*
X123778598Y-87993253D01*
X123758893Y-88007867D01*
X123737849Y-88020480D01*
X123715671Y-88030970D01*
X123692571Y-88039235D01*
X123668773Y-88045196D01*
X123644504Y-88048796D01*
X123620000Y-88050000D01*
X122120000Y-88050000D01*
X122095496Y-88048796D01*
X122071227Y-88045196D01*
X122047429Y-88039235D01*
X122024329Y-88030970D01*
X122002151Y-88020480D01*
X121981107Y-88007867D01*
X121961402Y-87993253D01*
X121943223Y-87976777D01*
X121926747Y-87958598D01*
X121912133Y-87938893D01*
X121899520Y-87917849D01*
X121889030Y-87895671D01*
X121880765Y-87872571D01*
X121874804Y-87848773D01*
X121871204Y-87824504D01*
X121870000Y-87800000D01*
X121870000Y-86600000D01*
X121871204Y-86575496D01*
X121874804Y-86551227D01*
X121880765Y-86527429D01*
X121889030Y-86504329D01*
X121899520Y-86482151D01*
X121912133Y-86461107D01*
X121926747Y-86441402D01*
X121943223Y-86423223D01*
X121961402Y-86406747D01*
X121981107Y-86392133D01*
X122002151Y-86379520D01*
X122024329Y-86369030D01*
X122047429Y-86360765D01*
X122071227Y-86354804D01*
X122095496Y-86351204D01*
X122120000Y-86350000D01*
X123620000Y-86350000D01*
X123644504Y-86351204D01*
X123644504Y-86351204D01*
G37*
D14*
X122870000Y-87200000D03*
D13*
G36*
X105154504Y-83851204D02*
X105178773Y-83854804D01*
X105202571Y-83860765D01*
X105225671Y-83869030D01*
X105247849Y-83879520D01*
X105268893Y-83892133D01*
X105288598Y-83906747D01*
X105306777Y-83923223D01*
X105323253Y-83941402D01*
X105337867Y-83961107D01*
X105350480Y-83982151D01*
X105360970Y-84004329D01*
X105369235Y-84027429D01*
X105375196Y-84051227D01*
X105378796Y-84075496D01*
X105380000Y-84100000D01*
X105380000Y-85300000D01*
X105378796Y-85324504D01*
X105375196Y-85348773D01*
X105369235Y-85372571D01*
X105360970Y-85395671D01*
X105350480Y-85417849D01*
X105337867Y-85438893D01*
X105323253Y-85458598D01*
X105306777Y-85476777D01*
X105288598Y-85493253D01*
X105268893Y-85507867D01*
X105247849Y-85520480D01*
X105225671Y-85530970D01*
X105202571Y-85539235D01*
X105178773Y-85545196D01*
X105154504Y-85548796D01*
X105130000Y-85550000D01*
X103630000Y-85550000D01*
X103605496Y-85548796D01*
X103581227Y-85545196D01*
X103557429Y-85539235D01*
X103534329Y-85530970D01*
X103512151Y-85520480D01*
X103491107Y-85507867D01*
X103471402Y-85493253D01*
X103453223Y-85476777D01*
X103436747Y-85458598D01*
X103422133Y-85438893D01*
X103409520Y-85417849D01*
X103399030Y-85395671D01*
X103390765Y-85372571D01*
X103384804Y-85348773D01*
X103381204Y-85324504D01*
X103380000Y-85300000D01*
X103380000Y-84100000D01*
X103381204Y-84075496D01*
X103384804Y-84051227D01*
X103390765Y-84027429D01*
X103399030Y-84004329D01*
X103409520Y-83982151D01*
X103422133Y-83961107D01*
X103436747Y-83941402D01*
X103453223Y-83923223D01*
X103471402Y-83906747D01*
X103491107Y-83892133D01*
X103512151Y-83879520D01*
X103534329Y-83869030D01*
X103557429Y-83860765D01*
X103581227Y-83854804D01*
X103605496Y-83851204D01*
X103630000Y-83850000D01*
X105130000Y-83850000D01*
X105154504Y-83851204D01*
X105154504Y-83851204D01*
G37*
D14*
X104380000Y-84700000D03*
D12*
X104380000Y-87200000D03*
D15*
X117280000Y-99000000D03*
X119780000Y-99000000D03*
D13*
G36*
X122904504Y-98026204D02*
X122928773Y-98029804D01*
X122952571Y-98035765D01*
X122975671Y-98044030D01*
X122997849Y-98054520D01*
X123018893Y-98067133D01*
X123038598Y-98081747D01*
X123056777Y-98098223D01*
X123073253Y-98116402D01*
X123087867Y-98136107D01*
X123100480Y-98157151D01*
X123110970Y-98179329D01*
X123119235Y-98202429D01*
X123125196Y-98226227D01*
X123128796Y-98250496D01*
X123130000Y-98275000D01*
X123130000Y-99725000D01*
X123128796Y-99749504D01*
X123125196Y-99773773D01*
X123119235Y-99797571D01*
X123110970Y-99820671D01*
X123100480Y-99842849D01*
X123087867Y-99863893D01*
X123073253Y-99883598D01*
X123056777Y-99901777D01*
X123038598Y-99918253D01*
X123018893Y-99932867D01*
X122997849Y-99945480D01*
X122975671Y-99955970D01*
X122952571Y-99964235D01*
X122928773Y-99970196D01*
X122904504Y-99973796D01*
X122880000Y-99975000D01*
X121680000Y-99975000D01*
X121655496Y-99973796D01*
X121631227Y-99970196D01*
X121607429Y-99964235D01*
X121584329Y-99955970D01*
X121562151Y-99945480D01*
X121541107Y-99932867D01*
X121521402Y-99918253D01*
X121503223Y-99901777D01*
X121486747Y-99883598D01*
X121472133Y-99863893D01*
X121459520Y-99842849D01*
X121449030Y-99820671D01*
X121440765Y-99797571D01*
X121434804Y-99773773D01*
X121431204Y-99749504D01*
X121430000Y-99725000D01*
X121430000Y-98275000D01*
X121431204Y-98250496D01*
X121434804Y-98226227D01*
X121440765Y-98202429D01*
X121449030Y-98179329D01*
X121459520Y-98157151D01*
X121472133Y-98136107D01*
X121486747Y-98116402D01*
X121503223Y-98098223D01*
X121521402Y-98081747D01*
X121541107Y-98067133D01*
X121562151Y-98054520D01*
X121584329Y-98044030D01*
X121607429Y-98035765D01*
X121631227Y-98029804D01*
X121655496Y-98026204D01*
X121680000Y-98025000D01*
X122880000Y-98025000D01*
X122904504Y-98026204D01*
X122904504Y-98026204D01*
G37*
D14*
X122280000Y-99000000D03*
D13*
G36*
X110434504Y-98026204D02*
X110458773Y-98029804D01*
X110482571Y-98035765D01*
X110505671Y-98044030D01*
X110527849Y-98054520D01*
X110548893Y-98067133D01*
X110568598Y-98081747D01*
X110586777Y-98098223D01*
X110603253Y-98116402D01*
X110617867Y-98136107D01*
X110630480Y-98157151D01*
X110640970Y-98179329D01*
X110649235Y-98202429D01*
X110655196Y-98226227D01*
X110658796Y-98250496D01*
X110660000Y-98275000D01*
X110660000Y-99725000D01*
X110658796Y-99749504D01*
X110655196Y-99773773D01*
X110649235Y-99797571D01*
X110640970Y-99820671D01*
X110630480Y-99842849D01*
X110617867Y-99863893D01*
X110603253Y-99883598D01*
X110586777Y-99901777D01*
X110568598Y-99918253D01*
X110548893Y-99932867D01*
X110527849Y-99945480D01*
X110505671Y-99955970D01*
X110482571Y-99964235D01*
X110458773Y-99970196D01*
X110434504Y-99973796D01*
X110410000Y-99975000D01*
X109210000Y-99975000D01*
X109185496Y-99973796D01*
X109161227Y-99970196D01*
X109137429Y-99964235D01*
X109114329Y-99955970D01*
X109092151Y-99945480D01*
X109071107Y-99932867D01*
X109051402Y-99918253D01*
X109033223Y-99901777D01*
X109016747Y-99883598D01*
X109002133Y-99863893D01*
X108989520Y-99842849D01*
X108979030Y-99820671D01*
X108970765Y-99797571D01*
X108964804Y-99773773D01*
X108961204Y-99749504D01*
X108960000Y-99725000D01*
X108960000Y-98275000D01*
X108961204Y-98250496D01*
X108964804Y-98226227D01*
X108970765Y-98202429D01*
X108979030Y-98179329D01*
X108989520Y-98157151D01*
X109002133Y-98136107D01*
X109016747Y-98116402D01*
X109033223Y-98098223D01*
X109051402Y-98081747D01*
X109071107Y-98067133D01*
X109092151Y-98054520D01*
X109114329Y-98044030D01*
X109137429Y-98035765D01*
X109161227Y-98029804D01*
X109185496Y-98026204D01*
X109210000Y-98025000D01*
X110410000Y-98025000D01*
X110434504Y-98026204D01*
X110434504Y-98026204D01*
G37*
D14*
X109810000Y-99000000D03*
D15*
X107310000Y-99000000D03*
X104810000Y-99000000D03*
D13*
G36*
X93794504Y-83851204D02*
X93818773Y-83854804D01*
X93842571Y-83860765D01*
X93865671Y-83869030D01*
X93887849Y-83879520D01*
X93908893Y-83892133D01*
X93928598Y-83906747D01*
X93946777Y-83923223D01*
X93963253Y-83941402D01*
X93977867Y-83961107D01*
X93990480Y-83982151D01*
X94000970Y-84004329D01*
X94009235Y-84027429D01*
X94015196Y-84051227D01*
X94018796Y-84075496D01*
X94020000Y-84100000D01*
X94020000Y-85300000D01*
X94018796Y-85324504D01*
X94015196Y-85348773D01*
X94009235Y-85372571D01*
X94000970Y-85395671D01*
X93990480Y-85417849D01*
X93977867Y-85438893D01*
X93963253Y-85458598D01*
X93946777Y-85476777D01*
X93928598Y-85493253D01*
X93908893Y-85507867D01*
X93887849Y-85520480D01*
X93865671Y-85530970D01*
X93842571Y-85539235D01*
X93818773Y-85545196D01*
X93794504Y-85548796D01*
X93770000Y-85550000D01*
X92270000Y-85550000D01*
X92245496Y-85548796D01*
X92221227Y-85545196D01*
X92197429Y-85539235D01*
X92174329Y-85530970D01*
X92152151Y-85520480D01*
X92131107Y-85507867D01*
X92111402Y-85493253D01*
X92093223Y-85476777D01*
X92076747Y-85458598D01*
X92062133Y-85438893D01*
X92049520Y-85417849D01*
X92039030Y-85395671D01*
X92030765Y-85372571D01*
X92024804Y-85348773D01*
X92021204Y-85324504D01*
X92020000Y-85300000D01*
X92020000Y-84100000D01*
X92021204Y-84075496D01*
X92024804Y-84051227D01*
X92030765Y-84027429D01*
X92039030Y-84004329D01*
X92049520Y-83982151D01*
X92062133Y-83961107D01*
X92076747Y-83941402D01*
X92093223Y-83923223D01*
X92111402Y-83906747D01*
X92131107Y-83892133D01*
X92152151Y-83879520D01*
X92174329Y-83869030D01*
X92197429Y-83860765D01*
X92221227Y-83854804D01*
X92245496Y-83851204D01*
X92270000Y-83850000D01*
X93770000Y-83850000D01*
X93794504Y-83851204D01*
X93794504Y-83851204D01*
G37*
D14*
X93020000Y-84700000D03*
D12*
X93020000Y-87200000D03*
D10*
X97250000Y-96950000D03*
D11*
X92170000Y-96950000D03*
D16*
X101005000Y-73320000D03*
X126005000Y-73320000D03*
D17*
X118350000Y-70780000D03*
X116060000Y-70780000D03*
X113770000Y-70780000D03*
X111480000Y-70780000D03*
X109190000Y-70780000D03*
X117205000Y-73320000D03*
X114915000Y-73320000D03*
X112625000Y-73320000D03*
X110335000Y-73320000D03*
X108045000Y-73320000D03*
X118350000Y-75860000D03*
X116060000Y-75860000D03*
X113770000Y-75860000D03*
X111480000Y-75860000D03*
D18*
X109190000Y-75860000D03*
D19*
X122280000Y-100075000D02*
X122280000Y-99000000D01*
X121544990Y-100810010D02*
X122280000Y-100075000D01*
X109810000Y-99000000D02*
X111620010Y-100810010D01*
X111620010Y-100810010D02*
X121544990Y-100810010D01*
X134930000Y-99270000D02*
X134930000Y-96950000D01*
X134301628Y-99898372D02*
X134930000Y-99270000D01*
X123178372Y-99898372D02*
X134301628Y-99898372D01*
X122280000Y-99000000D02*
X123178372Y-99898372D01*
X134975553Y-79545553D02*
X134070000Y-78640000D01*
X135905010Y-80475010D02*
X134975553Y-79545553D01*
X135905010Y-93654990D02*
X135905010Y-80475010D01*
X134930000Y-96950000D02*
X134930000Y-94630000D01*
X134930000Y-94630000D02*
X135905010Y-93654990D01*
X128833427Y-73320000D02*
X126005000Y-73320000D01*
X133782963Y-73320000D02*
X128833427Y-73320000D01*
X135905010Y-75442047D02*
X133782963Y-73320000D01*
X135905010Y-77904990D02*
X135905010Y-75442047D01*
X134070000Y-78640000D02*
X135170000Y-78640000D01*
X135170000Y-78640000D02*
X135905010Y-77904990D01*
X120890000Y-73320000D02*
X118350000Y-75860000D01*
X126005000Y-73320000D02*
X120890000Y-73320000D01*
X122870000Y-98410000D02*
X122280000Y-99000000D01*
X122870000Y-87200000D02*
X122870000Y-98410000D01*
X94219428Y-86385010D02*
X97669999Y-82934439D01*
X93654990Y-86385010D02*
X94219428Y-86385010D01*
X93020000Y-87200000D02*
X93020000Y-87020000D01*
X93020000Y-87020000D02*
X93654990Y-86385010D01*
X97669999Y-82934439D02*
X97670000Y-82128908D01*
X113770000Y-69648630D02*
X113770000Y-70780000D01*
X113266369Y-69144999D02*
X113770000Y-69648630D01*
X99905001Y-69144999D02*
X113266369Y-69144999D01*
X97670000Y-82128908D02*
X97670000Y-71380000D01*
X97670000Y-71380000D02*
X99905001Y-69144999D01*
X93020000Y-84700000D02*
X96199990Y-81520010D01*
X96199990Y-81520010D02*
X96199990Y-70200010D01*
X116060000Y-69648630D02*
X116060000Y-70780000D01*
X113651361Y-67239991D02*
X116060000Y-69648630D01*
X96199990Y-70200010D02*
X99160009Y-67239991D01*
X99160009Y-67239991D02*
X113651361Y-67239991D01*
X97250000Y-96950000D02*
X97250000Y-87948908D01*
X97250000Y-87948908D02*
X100610020Y-84588888D01*
X100610020Y-84588888D02*
X100610020Y-79408888D01*
X110335000Y-73320000D02*
X108045000Y-73320000D01*
X103075000Y-78290000D02*
X101728908Y-78290000D01*
X108045000Y-73320000D02*
X103075000Y-78290000D01*
X101728908Y-78290000D02*
X100610020Y-79408888D01*
X109190000Y-70780000D02*
X111480000Y-70780000D01*
X108390001Y-71579999D02*
X107365199Y-71579999D01*
X92170000Y-90950000D02*
X92170000Y-95465076D01*
X99140009Y-83979991D02*
X92170000Y-90950000D01*
X99140009Y-78679991D02*
X99140009Y-83979991D01*
X102125208Y-76819990D02*
X101000010Y-76819990D01*
X92170000Y-95465076D02*
X92170000Y-96950000D01*
X109190000Y-70780000D02*
X108390001Y-71579999D01*
X101000010Y-76819990D02*
X99140009Y-78679991D01*
X107365199Y-71579999D02*
X102125208Y-76819990D01*
X104380000Y-80670000D02*
X109190000Y-75860000D01*
X104380000Y-84700000D02*
X104380000Y-80670000D01*
X113770000Y-76991370D02*
X113770000Y-75860000D01*
X113770000Y-78194438D02*
X113770000Y-76991370D01*
X104380000Y-87200000D02*
X104764438Y-87200000D01*
X128050000Y-79890000D02*
X112074438Y-79890000D01*
X131800000Y-76140000D02*
X128050000Y-79890000D01*
X134070000Y-76140000D02*
X131800000Y-76140000D01*
X104764438Y-87200000D02*
X112074438Y-79890000D01*
X112074438Y-79890000D02*
X113770000Y-78194438D01*
X128050000Y-80950000D02*
X128050000Y-79890000D01*
X134070000Y-84700000D02*
X131800000Y-84700000D01*
X131800000Y-84700000D02*
X128050000Y-80950000D01*
D20*
G36*
X138265001Y-105265000D02*
X88735000Y-105265000D01*
X88735000Y-98728744D01*
X103325000Y-98728744D01*
X103325000Y-99271255D01*
X103411161Y-99704417D01*
X103739375Y-100195625D01*
X104230582Y-100523839D01*
X104810000Y-100639092D01*
X105389417Y-100523839D01*
X105880625Y-100195625D01*
X106060000Y-99927171D01*
X106239375Y-100195625D01*
X106730582Y-100523839D01*
X107310000Y-100639092D01*
X107889417Y-100523839D01*
X108367656Y-100204291D01*
X108421673Y-100334699D01*
X108600302Y-100513327D01*
X108833691Y-100610000D01*
X109524250Y-100610000D01*
X109683000Y-100451250D01*
X109683000Y-99127000D01*
X109937000Y-99127000D01*
X109937000Y-100451250D01*
X110095750Y-100610000D01*
X110786309Y-100610000D01*
X111019698Y-100513327D01*
X111198327Y-100334699D01*
X111295000Y-100101310D01*
X111295000Y-99285750D01*
X111136250Y-99127000D01*
X109937000Y-99127000D01*
X109683000Y-99127000D01*
X109663000Y-99127000D01*
X109663000Y-98873000D01*
X109683000Y-98873000D01*
X109683000Y-97548750D01*
X109937000Y-97548750D01*
X109937000Y-98873000D01*
X111136250Y-98873000D01*
X111280506Y-98728744D01*
X115795000Y-98728744D01*
X115795000Y-99271255D01*
X115881161Y-99704417D01*
X116209375Y-100195625D01*
X116700582Y-100523839D01*
X117280000Y-100639092D01*
X117859417Y-100523839D01*
X118350625Y-100195625D01*
X118530000Y-99927171D01*
X118709375Y-100195625D01*
X119200582Y-100523839D01*
X119780000Y-100639092D01*
X120359417Y-100523839D01*
X120837656Y-100204291D01*
X120891673Y-100334699D01*
X121070302Y-100513327D01*
X121303691Y-100610000D01*
X121994250Y-100610000D01*
X122153000Y-100451250D01*
X122153000Y-99127000D01*
X122407000Y-99127000D01*
X122407000Y-100451250D01*
X122565750Y-100610000D01*
X123256309Y-100610000D01*
X123489698Y-100513327D01*
X123668327Y-100334699D01*
X123765000Y-100101310D01*
X123765000Y-99285750D01*
X123606250Y-99127000D01*
X122407000Y-99127000D01*
X122153000Y-99127000D01*
X122133000Y-99127000D01*
X122133000Y-98873000D01*
X122153000Y-98873000D01*
X122153000Y-97548750D01*
X122407000Y-97548750D01*
X122407000Y-98873000D01*
X123606250Y-98873000D01*
X123765000Y-98714250D01*
X123765000Y-97898690D01*
X123668327Y-97665301D01*
X123489698Y-97486673D01*
X123256309Y-97390000D01*
X122565750Y-97390000D01*
X122407000Y-97548750D01*
X122153000Y-97548750D01*
X121994250Y-97390000D01*
X121303691Y-97390000D01*
X121070302Y-97486673D01*
X120891673Y-97665301D01*
X120837656Y-97795709D01*
X120359418Y-97476161D01*
X119780000Y-97360908D01*
X119200583Y-97476161D01*
X118709375Y-97804375D01*
X118530000Y-98072829D01*
X118350625Y-97804375D01*
X117859418Y-97476161D01*
X117280000Y-97360908D01*
X116700583Y-97476161D01*
X116209375Y-97804375D01*
X115881161Y-98295582D01*
X115795000Y-98728744D01*
X111280506Y-98728744D01*
X111295000Y-98714250D01*
X111295000Y-97898690D01*
X111198327Y-97665301D01*
X111019698Y-97486673D01*
X110786309Y-97390000D01*
X110095750Y-97390000D01*
X109937000Y-97548750D01*
X109683000Y-97548750D01*
X109524250Y-97390000D01*
X108833691Y-97390000D01*
X108600302Y-97486673D01*
X108421673Y-97665301D01*
X108367656Y-97795709D01*
X107889418Y-97476161D01*
X107310000Y-97360908D01*
X106730583Y-97476161D01*
X106239375Y-97804375D01*
X106060000Y-98072829D01*
X105880625Y-97804375D01*
X105389418Y-97476161D01*
X104810000Y-97360908D01*
X104230583Y-97476161D01*
X103739375Y-97804375D01*
X103411161Y-98295582D01*
X103325000Y-98728744D01*
X88735000Y-98728744D01*
X88735000Y-96614833D01*
X90485000Y-96614833D01*
X90485000Y-97285167D01*
X90741526Y-97904476D01*
X91215524Y-98378474D01*
X91834833Y-98635000D01*
X92505167Y-98635000D01*
X93124476Y-98378474D01*
X93598474Y-97904476D01*
X93855000Y-97285167D01*
X93855000Y-96614833D01*
X93598474Y-95995524D01*
X93440000Y-95837050D01*
X93440000Y-91476050D01*
X95980001Y-88936050D01*
X95980000Y-95296320D01*
X95952235Y-95301843D01*
X95742191Y-95442191D01*
X95601843Y-95652235D01*
X95552560Y-95900000D01*
X95552560Y-98000000D01*
X95601843Y-98247765D01*
X95742191Y-98457809D01*
X95952235Y-98598157D01*
X96200000Y-98647440D01*
X98300000Y-98647440D01*
X98547765Y-98598157D01*
X98757809Y-98457809D01*
X98898157Y-98247765D01*
X98947440Y-98000000D01*
X98947440Y-96614833D01*
X128165000Y-96614833D01*
X128165000Y-97285167D01*
X128421526Y-97904476D01*
X128895524Y-98378474D01*
X129514833Y-98635000D01*
X130185167Y-98635000D01*
X130804476Y-98378474D01*
X131278474Y-97904476D01*
X131535000Y-97285167D01*
X131535000Y-97235750D01*
X133245000Y-97235750D01*
X133245000Y-98126310D01*
X133341673Y-98359699D01*
X133520302Y-98538327D01*
X133753691Y-98635000D01*
X134644250Y-98635000D01*
X134803000Y-98476250D01*
X134803000Y-97077000D01*
X135057000Y-97077000D01*
X135057000Y-98476250D01*
X135215750Y-98635000D01*
X136106309Y-98635000D01*
X136339698Y-98538327D01*
X136518327Y-98359699D01*
X136615000Y-98126310D01*
X136615000Y-97235750D01*
X136456250Y-97077000D01*
X135057000Y-97077000D01*
X134803000Y-97077000D01*
X133403750Y-97077000D01*
X133245000Y-97235750D01*
X131535000Y-97235750D01*
X131535000Y-96614833D01*
X131278474Y-95995524D01*
X131056640Y-95773690D01*
X133245000Y-95773690D01*
X133245000Y-96664250D01*
X133403750Y-96823000D01*
X134803000Y-96823000D01*
X134803000Y-95423750D01*
X135057000Y-95423750D01*
X135057000Y-96823000D01*
X136456250Y-96823000D01*
X136615000Y-96664250D01*
X136615000Y-95773690D01*
X136518327Y-95540301D01*
X136339698Y-95361673D01*
X136106309Y-95265000D01*
X135215750Y-95265000D01*
X135057000Y-95423750D01*
X134803000Y-95423750D01*
X134644250Y-95265000D01*
X133753691Y-95265000D01*
X133520302Y-95361673D01*
X133341673Y-95540301D01*
X133245000Y-95773690D01*
X131056640Y-95773690D01*
X130804476Y-95521526D01*
X130185167Y-95265000D01*
X129514833Y-95265000D01*
X128895524Y-95521526D01*
X128421526Y-95995524D01*
X128165000Y-96614833D01*
X98947440Y-96614833D01*
X98947440Y-95900000D01*
X98898157Y-95652235D01*
X98757809Y-95442191D01*
X98547765Y-95301843D01*
X98520000Y-95296320D01*
X98520000Y-88474958D01*
X101419602Y-85575357D01*
X101525638Y-85504506D01*
X101662285Y-85300000D01*
X101806333Y-85084418D01*
X101857918Y-84825080D01*
X101880020Y-84713968D01*
X101880020Y-84713965D01*
X101904899Y-84588888D01*
X101880020Y-84463812D01*
X101880020Y-79934938D01*
X102254959Y-79560000D01*
X102949925Y-79560000D01*
X103075000Y-79584879D01*
X103200075Y-79560000D01*
X103200080Y-79560000D01*
X103570529Y-79486313D01*
X103990618Y-79205618D01*
X104061471Y-79099579D01*
X107742560Y-75418491D01*
X107742560Y-75511389D01*
X103570419Y-79683531D01*
X103464383Y-79754382D01*
X103393532Y-79860418D01*
X103393530Y-79860420D01*
X103183688Y-80174471D01*
X103085121Y-80670000D01*
X103110001Y-80795080D01*
X103110000Y-83388850D01*
X102995414Y-83465414D01*
X102800874Y-83756565D01*
X102732560Y-84100000D01*
X102732560Y-85300000D01*
X102800874Y-85643435D01*
X102995414Y-85934586D01*
X103223156Y-86086758D01*
X103159375Y-86129375D01*
X102831161Y-86620582D01*
X102715908Y-87200000D01*
X102831161Y-87779418D01*
X103159375Y-88270625D01*
X103650582Y-88598839D01*
X104083744Y-88685000D01*
X104676256Y-88685000D01*
X105109418Y-88598839D01*
X105600625Y-88270625D01*
X105811121Y-87955594D01*
X111115000Y-87955594D01*
X111115000Y-88904406D01*
X111478095Y-89780994D01*
X112149006Y-90451905D01*
X113025594Y-90815000D01*
X113974406Y-90815000D01*
X114850994Y-90451905D01*
X115521905Y-89780994D01*
X115885000Y-88904406D01*
X115885000Y-87955594D01*
X115690385Y-87485750D01*
X121235000Y-87485750D01*
X121235000Y-88176309D01*
X121331673Y-88409698D01*
X121510301Y-88588327D01*
X121743690Y-88685000D01*
X122584250Y-88685000D01*
X122743000Y-88526250D01*
X122743000Y-87327000D01*
X122997000Y-87327000D01*
X122997000Y-88526250D01*
X123155750Y-88685000D01*
X123996310Y-88685000D01*
X124229699Y-88588327D01*
X124408327Y-88409698D01*
X124505000Y-88176309D01*
X124505000Y-87485750D01*
X124346250Y-87327000D01*
X122997000Y-87327000D01*
X122743000Y-87327000D01*
X121393750Y-87327000D01*
X121235000Y-87485750D01*
X115690385Y-87485750D01*
X115521905Y-87079006D01*
X114850994Y-86408095D01*
X113974406Y-86045000D01*
X113025594Y-86045000D01*
X112149006Y-86408095D01*
X111478095Y-87079006D01*
X111115000Y-87955594D01*
X105811121Y-87955594D01*
X105823663Y-87936825D01*
X109060488Y-84700000D01*
X121205908Y-84700000D01*
X121321161Y-85279418D01*
X121640709Y-85757656D01*
X121510301Y-85811673D01*
X121331673Y-85990302D01*
X121235000Y-86223691D01*
X121235000Y-86914250D01*
X121393750Y-87073000D01*
X122743000Y-87073000D01*
X122743000Y-87053000D01*
X122997000Y-87053000D01*
X122997000Y-87073000D01*
X124346250Y-87073000D01*
X124505000Y-86914250D01*
X124505000Y-86223691D01*
X124408327Y-85990302D01*
X124229699Y-85811673D01*
X124099291Y-85757656D01*
X124418839Y-85279418D01*
X124534092Y-84700000D01*
X124418839Y-84120582D01*
X124090625Y-83629375D01*
X123599418Y-83301161D01*
X123166256Y-83215000D01*
X122573744Y-83215000D01*
X122140582Y-83301161D01*
X121649375Y-83629375D01*
X121321161Y-84120582D01*
X121205908Y-84700000D01*
X109060488Y-84700000D01*
X112600489Y-81160000D01*
X126796892Y-81160000D01*
X126853687Y-81445528D01*
X127134382Y-81865618D01*
X127240421Y-81936471D01*
X130813531Y-85509582D01*
X130884382Y-85615618D01*
X130990418Y-85686469D01*
X130990419Y-85686470D01*
X131304470Y-85896313D01*
X131386899Y-85912709D01*
X131674920Y-85970000D01*
X131674923Y-85970000D01*
X131800000Y-85994879D01*
X131925076Y-85970000D01*
X132682350Y-85970000D01*
X132490874Y-86256565D01*
X132422560Y-86600000D01*
X132422560Y-87800000D01*
X132490874Y-88143435D01*
X132685414Y-88434586D01*
X132976565Y-88629126D01*
X133320000Y-88697440D01*
X134820000Y-88697440D01*
X135163435Y-88629126D01*
X135454586Y-88434586D01*
X135649126Y-88143435D01*
X135717440Y-87800000D01*
X135717440Y-86600000D01*
X135649126Y-86256565D01*
X135454586Y-85965414D01*
X135226844Y-85813242D01*
X135290625Y-85770625D01*
X135618839Y-85279418D01*
X135734092Y-84700000D01*
X135618839Y-84120582D01*
X135290625Y-83629375D01*
X134799418Y-83301161D01*
X134366256Y-83215000D01*
X133773744Y-83215000D01*
X133340582Y-83301161D01*
X133147761Y-83430000D01*
X132326051Y-83430000D01*
X129320000Y-80423950D01*
X129320000Y-80416050D01*
X130810300Y-78925750D01*
X132435000Y-78925750D01*
X132435000Y-79616309D01*
X132531673Y-79849698D01*
X132710301Y-80028327D01*
X132943690Y-80125000D01*
X133784250Y-80125000D01*
X133943000Y-79966250D01*
X133943000Y-78767000D01*
X134197000Y-78767000D01*
X134197000Y-79966250D01*
X134355750Y-80125000D01*
X135196310Y-80125000D01*
X135429699Y-80028327D01*
X135608327Y-79849698D01*
X135705000Y-79616309D01*
X135705000Y-78925750D01*
X135546250Y-78767000D01*
X134197000Y-78767000D01*
X133943000Y-78767000D01*
X132593750Y-78767000D01*
X132435000Y-78925750D01*
X130810300Y-78925750D01*
X132326051Y-77410000D01*
X132551975Y-77410000D01*
X132531673Y-77430302D01*
X132435000Y-77663691D01*
X132435000Y-78354250D01*
X132593750Y-78513000D01*
X133943000Y-78513000D01*
X133943000Y-78493000D01*
X134197000Y-78493000D01*
X134197000Y-78513000D01*
X135546250Y-78513000D01*
X135705000Y-78354250D01*
X135705000Y-77663691D01*
X135608327Y-77430302D01*
X135429699Y-77251673D01*
X135299291Y-77197656D01*
X135618839Y-76719418D01*
X135734092Y-76140000D01*
X135618839Y-75560582D01*
X135290625Y-75069375D01*
X134799418Y-74741161D01*
X134366256Y-74655000D01*
X133773744Y-74655000D01*
X133340582Y-74741161D01*
X133147761Y-74870000D01*
X131925076Y-74870000D01*
X131800000Y-74845121D01*
X131674923Y-74870000D01*
X131674920Y-74870000D01*
X131386899Y-74927291D01*
X131304470Y-74943687D01*
X131061560Y-75105995D01*
X130884382Y-75224382D01*
X130813531Y-75330418D01*
X127523950Y-78620000D01*
X114980230Y-78620000D01*
X115040000Y-78319518D01*
X115040000Y-78319514D01*
X115064879Y-78194438D01*
X115040000Y-78069362D01*
X115040000Y-76869396D01*
X115247138Y-77076534D01*
X115774561Y-77295000D01*
X116345439Y-77295000D01*
X116872862Y-77076534D01*
X117081651Y-76867745D01*
X117521861Y-76867745D01*
X117595995Y-77113864D01*
X118133223Y-77306965D01*
X118703454Y-77279778D01*
X119104005Y-77113864D01*
X119178139Y-76867745D01*
X118350000Y-76039605D01*
X117521861Y-76867745D01*
X117081651Y-76867745D01*
X117276534Y-76672862D01*
X117278198Y-76668844D01*
X117342255Y-76688139D01*
X118170395Y-75860000D01*
X118529605Y-75860000D01*
X119357745Y-76688139D01*
X119603864Y-76614005D01*
X119796965Y-76076777D01*
X119769778Y-75506546D01*
X119640741Y-75195022D01*
X124309584Y-75195022D01*
X124530353Y-75565743D01*
X125502012Y-75959119D01*
X126550247Y-75950713D01*
X127479647Y-75565743D01*
X127700416Y-75195022D01*
X126005000Y-73499605D01*
X124309584Y-75195022D01*
X119640741Y-75195022D01*
X119603864Y-75105995D01*
X119357745Y-75031861D01*
X118529605Y-75860000D01*
X118170395Y-75860000D01*
X117342255Y-75031861D01*
X117278198Y-75051156D01*
X117276534Y-75047138D01*
X116984396Y-74755000D01*
X117490439Y-74755000D01*
X117559811Y-74726265D01*
X117521861Y-74852255D01*
X118350000Y-75680395D01*
X119178139Y-74852255D01*
X119104005Y-74606136D01*
X118566777Y-74413035D01*
X118120063Y-74434333D01*
X118421534Y-74132862D01*
X118640000Y-73605439D01*
X118640000Y-73034561D01*
X118549889Y-72817012D01*
X123365881Y-72817012D01*
X123374287Y-73865247D01*
X123759257Y-74794647D01*
X124129978Y-75015416D01*
X125825395Y-73320000D01*
X126184605Y-73320000D01*
X127880022Y-75015416D01*
X128250743Y-74794647D01*
X128644119Y-73822988D01*
X128635713Y-72774753D01*
X128250743Y-71845353D01*
X127880022Y-71624584D01*
X126184605Y-73320000D01*
X125825395Y-73320000D01*
X124129978Y-71624584D01*
X123759257Y-71845353D01*
X123365881Y-72817012D01*
X118549889Y-72817012D01*
X118421534Y-72507138D01*
X118129396Y-72215000D01*
X118635439Y-72215000D01*
X119162862Y-71996534D01*
X119566534Y-71592862D01*
X119627789Y-71444978D01*
X124309584Y-71444978D01*
X126005000Y-73140395D01*
X127700416Y-71444978D01*
X127479647Y-71074257D01*
X126507988Y-70680881D01*
X125459753Y-70689287D01*
X124530353Y-71074257D01*
X124309584Y-71444978D01*
X119627789Y-71444978D01*
X119785000Y-71065439D01*
X119785000Y-70494561D01*
X119566534Y-69967138D01*
X119162862Y-69563466D01*
X118635439Y-69345000D01*
X118064561Y-69345000D01*
X117537138Y-69563466D01*
X117330770Y-69769834D01*
X117354879Y-69648630D01*
X117330000Y-69523555D01*
X117330000Y-69523550D01*
X117256313Y-69153101D01*
X117090624Y-68905130D01*
X117046470Y-68839049D01*
X117046469Y-68839048D01*
X116975618Y-68733012D01*
X116869582Y-68662161D01*
X114637832Y-66430412D01*
X114566979Y-66324373D01*
X114146890Y-66043678D01*
X113776441Y-65969991D01*
X113776436Y-65969991D01*
X113651361Y-65945112D01*
X113526286Y-65969991D01*
X99285083Y-65969991D01*
X99160008Y-65945112D01*
X99034933Y-65969991D01*
X99034929Y-65969991D01*
X98664480Y-66043678D01*
X98244391Y-66324373D01*
X98173540Y-66430410D01*
X95390409Y-69213541D01*
X95284373Y-69284392D01*
X95213522Y-69390428D01*
X95213520Y-69390430D01*
X95003678Y-69704481D01*
X94905111Y-70200010D01*
X94929991Y-70325090D01*
X94929990Y-80993959D01*
X92721390Y-83202560D01*
X92270000Y-83202560D01*
X91926565Y-83270874D01*
X91635414Y-83465414D01*
X91440874Y-83756565D01*
X91372560Y-84100000D01*
X91372560Y-85300000D01*
X91440874Y-85643435D01*
X91635414Y-85934586D01*
X91863156Y-86086758D01*
X91799375Y-86129375D01*
X91471161Y-86620582D01*
X91355908Y-87200000D01*
X91471161Y-87779418D01*
X91799375Y-88270625D01*
X92290582Y-88598839D01*
X92653018Y-88670932D01*
X91360421Y-89963529D01*
X91254382Y-90034382D01*
X90973687Y-90454472D01*
X90900000Y-90824921D01*
X90900000Y-90824925D01*
X90875121Y-90950000D01*
X90900000Y-91075075D01*
X90900001Y-95339992D01*
X90900000Y-95339997D01*
X90900000Y-95837050D01*
X90741526Y-95995524D01*
X90485000Y-96614833D01*
X88735000Y-96614833D01*
X88735000Y-65905594D01*
X90615000Y-65905594D01*
X90615000Y-66854406D01*
X90978095Y-67730994D01*
X91649006Y-68401905D01*
X92525594Y-68765000D01*
X93474406Y-68765000D01*
X94350994Y-68401905D01*
X95021905Y-67730994D01*
X95385000Y-66854406D01*
X95385000Y-65905594D01*
X131615000Y-65905594D01*
X131615000Y-66854406D01*
X131978095Y-67730994D01*
X132649006Y-68401905D01*
X133525594Y-68765000D01*
X134474406Y-68765000D01*
X135350994Y-68401905D01*
X136021905Y-67730994D01*
X136385000Y-66854406D01*
X136385000Y-65905594D01*
X136021905Y-65029006D01*
X135350994Y-64358095D01*
X134474406Y-63995000D01*
X133525594Y-63995000D01*
X132649006Y-64358095D01*
X131978095Y-65029006D01*
X131615000Y-65905594D01*
X95385000Y-65905594D01*
X95021905Y-65029006D01*
X94350994Y-64358095D01*
X93474406Y-63995000D01*
X92525594Y-63995000D01*
X91649006Y-64358095D01*
X90978095Y-65029006D01*
X90615000Y-65905594D01*
X88735000Y-65905594D01*
X88735000Y-62735000D01*
X138265000Y-62735000D01*
X138265001Y-105265000D01*
X138265001Y-105265000D01*
G37*
X138265001Y-105265000D02*
X88735000Y-105265000D01*
X88735000Y-98728744D01*
X103325000Y-98728744D01*
X103325000Y-99271255D01*
X103411161Y-99704417D01*
X103739375Y-100195625D01*
X104230582Y-100523839D01*
X104810000Y-100639092D01*
X105389417Y-100523839D01*
X105880625Y-100195625D01*
X106060000Y-99927171D01*
X106239375Y-100195625D01*
X106730582Y-100523839D01*
X107310000Y-100639092D01*
X107889417Y-100523839D01*
X108367656Y-100204291D01*
X108421673Y-100334699D01*
X108600302Y-100513327D01*
X108833691Y-100610000D01*
X109524250Y-100610000D01*
X109683000Y-100451250D01*
X109683000Y-99127000D01*
X109937000Y-99127000D01*
X109937000Y-100451250D01*
X110095750Y-100610000D01*
X110786309Y-100610000D01*
X111019698Y-100513327D01*
X111198327Y-100334699D01*
X111295000Y-100101310D01*
X111295000Y-99285750D01*
X111136250Y-99127000D01*
X109937000Y-99127000D01*
X109683000Y-99127000D01*
X109663000Y-99127000D01*
X109663000Y-98873000D01*
X109683000Y-98873000D01*
X109683000Y-97548750D01*
X109937000Y-97548750D01*
X109937000Y-98873000D01*
X111136250Y-98873000D01*
X111280506Y-98728744D01*
X115795000Y-98728744D01*
X115795000Y-99271255D01*
X115881161Y-99704417D01*
X116209375Y-100195625D01*
X116700582Y-100523839D01*
X117280000Y-100639092D01*
X117859417Y-100523839D01*
X118350625Y-100195625D01*
X118530000Y-99927171D01*
X118709375Y-100195625D01*
X119200582Y-100523839D01*
X119780000Y-100639092D01*
X120359417Y-100523839D01*
X120837656Y-100204291D01*
X120891673Y-100334699D01*
X121070302Y-100513327D01*
X121303691Y-100610000D01*
X121994250Y-100610000D01*
X122153000Y-100451250D01*
X122153000Y-99127000D01*
X122407000Y-99127000D01*
X122407000Y-100451250D01*
X122565750Y-100610000D01*
X123256309Y-100610000D01*
X123489698Y-100513327D01*
X123668327Y-100334699D01*
X123765000Y-100101310D01*
X123765000Y-99285750D01*
X123606250Y-99127000D01*
X122407000Y-99127000D01*
X122153000Y-99127000D01*
X122133000Y-99127000D01*
X122133000Y-98873000D01*
X122153000Y-98873000D01*
X122153000Y-97548750D01*
X122407000Y-97548750D01*
X122407000Y-98873000D01*
X123606250Y-98873000D01*
X123765000Y-98714250D01*
X123765000Y-97898690D01*
X123668327Y-97665301D01*
X123489698Y-97486673D01*
X123256309Y-97390000D01*
X122565750Y-97390000D01*
X122407000Y-97548750D01*
X122153000Y-97548750D01*
X121994250Y-97390000D01*
X121303691Y-97390000D01*
X121070302Y-97486673D01*
X120891673Y-97665301D01*
X120837656Y-97795709D01*
X120359418Y-97476161D01*
X119780000Y-97360908D01*
X119200583Y-97476161D01*
X118709375Y-97804375D01*
X118530000Y-98072829D01*
X118350625Y-97804375D01*
X117859418Y-97476161D01*
X117280000Y-97360908D01*
X116700583Y-97476161D01*
X116209375Y-97804375D01*
X115881161Y-98295582D01*
X115795000Y-98728744D01*
X111280506Y-98728744D01*
X111295000Y-98714250D01*
X111295000Y-97898690D01*
X111198327Y-97665301D01*
X111019698Y-97486673D01*
X110786309Y-97390000D01*
X110095750Y-97390000D01*
X109937000Y-97548750D01*
X109683000Y-97548750D01*
X109524250Y-97390000D01*
X108833691Y-97390000D01*
X108600302Y-97486673D01*
X108421673Y-97665301D01*
X108367656Y-97795709D01*
X107889418Y-97476161D01*
X107310000Y-97360908D01*
X106730583Y-97476161D01*
X106239375Y-97804375D01*
X106060000Y-98072829D01*
X105880625Y-97804375D01*
X105389418Y-97476161D01*
X104810000Y-97360908D01*
X104230583Y-97476161D01*
X103739375Y-97804375D01*
X103411161Y-98295582D01*
X103325000Y-98728744D01*
X88735000Y-98728744D01*
X88735000Y-96614833D01*
X90485000Y-96614833D01*
X90485000Y-97285167D01*
X90741526Y-97904476D01*
X91215524Y-98378474D01*
X91834833Y-98635000D01*
X92505167Y-98635000D01*
X93124476Y-98378474D01*
X93598474Y-97904476D01*
X93855000Y-97285167D01*
X93855000Y-96614833D01*
X93598474Y-95995524D01*
X93440000Y-95837050D01*
X93440000Y-91476050D01*
X95980001Y-88936050D01*
X95980000Y-95296320D01*
X95952235Y-95301843D01*
X95742191Y-95442191D01*
X95601843Y-95652235D01*
X95552560Y-95900000D01*
X95552560Y-98000000D01*
X95601843Y-98247765D01*
X95742191Y-98457809D01*
X95952235Y-98598157D01*
X96200000Y-98647440D01*
X98300000Y-98647440D01*
X98547765Y-98598157D01*
X98757809Y-98457809D01*
X98898157Y-98247765D01*
X98947440Y-98000000D01*
X98947440Y-96614833D01*
X128165000Y-96614833D01*
X128165000Y-97285167D01*
X128421526Y-97904476D01*
X128895524Y-98378474D01*
X129514833Y-98635000D01*
X130185167Y-98635000D01*
X130804476Y-98378474D01*
X131278474Y-97904476D01*
X131535000Y-97285167D01*
X131535000Y-97235750D01*
X133245000Y-97235750D01*
X133245000Y-98126310D01*
X133341673Y-98359699D01*
X133520302Y-98538327D01*
X133753691Y-98635000D01*
X134644250Y-98635000D01*
X134803000Y-98476250D01*
X134803000Y-97077000D01*
X135057000Y-97077000D01*
X135057000Y-98476250D01*
X135215750Y-98635000D01*
X136106309Y-98635000D01*
X136339698Y-98538327D01*
X136518327Y-98359699D01*
X136615000Y-98126310D01*
X136615000Y-97235750D01*
X136456250Y-97077000D01*
X135057000Y-97077000D01*
X134803000Y-97077000D01*
X133403750Y-97077000D01*
X133245000Y-97235750D01*
X131535000Y-97235750D01*
X131535000Y-96614833D01*
X131278474Y-95995524D01*
X131056640Y-95773690D01*
X133245000Y-95773690D01*
X133245000Y-96664250D01*
X133403750Y-96823000D01*
X134803000Y-96823000D01*
X134803000Y-95423750D01*
X135057000Y-95423750D01*
X135057000Y-96823000D01*
X136456250Y-96823000D01*
X136615000Y-96664250D01*
X136615000Y-95773690D01*
X136518327Y-95540301D01*
X136339698Y-95361673D01*
X136106309Y-95265000D01*
X135215750Y-95265000D01*
X135057000Y-95423750D01*
X134803000Y-95423750D01*
X134644250Y-95265000D01*
X133753691Y-95265000D01*
X133520302Y-95361673D01*
X133341673Y-95540301D01*
X133245000Y-95773690D01*
X131056640Y-95773690D01*
X130804476Y-95521526D01*
X130185167Y-95265000D01*
X129514833Y-95265000D01*
X128895524Y-95521526D01*
X128421526Y-95995524D01*
X128165000Y-96614833D01*
X98947440Y-96614833D01*
X98947440Y-95900000D01*
X98898157Y-95652235D01*
X98757809Y-95442191D01*
X98547765Y-95301843D01*
X98520000Y-95296320D01*
X98520000Y-88474958D01*
X101419602Y-85575357D01*
X101525638Y-85504506D01*
X101662285Y-85300000D01*
X101806333Y-85084418D01*
X101857918Y-84825080D01*
X101880020Y-84713968D01*
X101880020Y-84713965D01*
X101904899Y-84588888D01*
X101880020Y-84463812D01*
X101880020Y-79934938D01*
X102254959Y-79560000D01*
X102949925Y-79560000D01*
X103075000Y-79584879D01*
X103200075Y-79560000D01*
X103200080Y-79560000D01*
X103570529Y-79486313D01*
X103990618Y-79205618D01*
X104061471Y-79099579D01*
X107742560Y-75418491D01*
X107742560Y-75511389D01*
X103570419Y-79683531D01*
X103464383Y-79754382D01*
X103393532Y-79860418D01*
X103393530Y-79860420D01*
X103183688Y-80174471D01*
X103085121Y-80670000D01*
X103110001Y-80795080D01*
X103110000Y-83388850D01*
X102995414Y-83465414D01*
X102800874Y-83756565D01*
X102732560Y-84100000D01*
X102732560Y-85300000D01*
X102800874Y-85643435D01*
X102995414Y-85934586D01*
X103223156Y-86086758D01*
X103159375Y-86129375D01*
X102831161Y-86620582D01*
X102715908Y-87200000D01*
X102831161Y-87779418D01*
X103159375Y-88270625D01*
X103650582Y-88598839D01*
X104083744Y-88685000D01*
X104676256Y-88685000D01*
X105109418Y-88598839D01*
X105600625Y-88270625D01*
X105811121Y-87955594D01*
X111115000Y-87955594D01*
X111115000Y-88904406D01*
X111478095Y-89780994D01*
X112149006Y-90451905D01*
X113025594Y-90815000D01*
X113974406Y-90815000D01*
X114850994Y-90451905D01*
X115521905Y-89780994D01*
X115885000Y-88904406D01*
X115885000Y-87955594D01*
X115690385Y-87485750D01*
X121235000Y-87485750D01*
X121235000Y-88176309D01*
X121331673Y-88409698D01*
X121510301Y-88588327D01*
X121743690Y-88685000D01*
X122584250Y-88685000D01*
X122743000Y-88526250D01*
X122743000Y-87327000D01*
X122997000Y-87327000D01*
X122997000Y-88526250D01*
X123155750Y-88685000D01*
X123996310Y-88685000D01*
X124229699Y-88588327D01*
X124408327Y-88409698D01*
X124505000Y-88176309D01*
X124505000Y-87485750D01*
X124346250Y-87327000D01*
X122997000Y-87327000D01*
X122743000Y-87327000D01*
X121393750Y-87327000D01*
X121235000Y-87485750D01*
X115690385Y-87485750D01*
X115521905Y-87079006D01*
X114850994Y-86408095D01*
X113974406Y-86045000D01*
X113025594Y-86045000D01*
X112149006Y-86408095D01*
X111478095Y-87079006D01*
X111115000Y-87955594D01*
X105811121Y-87955594D01*
X105823663Y-87936825D01*
X109060488Y-84700000D01*
X121205908Y-84700000D01*
X121321161Y-85279418D01*
X121640709Y-85757656D01*
X121510301Y-85811673D01*
X121331673Y-85990302D01*
X121235000Y-86223691D01*
X121235000Y-86914250D01*
X121393750Y-87073000D01*
X122743000Y-87073000D01*
X122743000Y-87053000D01*
X122997000Y-87053000D01*
X122997000Y-87073000D01*
X124346250Y-87073000D01*
X124505000Y-86914250D01*
X124505000Y-86223691D01*
X124408327Y-85990302D01*
X124229699Y-85811673D01*
X124099291Y-85757656D01*
X124418839Y-85279418D01*
X124534092Y-84700000D01*
X124418839Y-84120582D01*
X124090625Y-83629375D01*
X123599418Y-83301161D01*
X123166256Y-83215000D01*
X122573744Y-83215000D01*
X122140582Y-83301161D01*
X121649375Y-83629375D01*
X121321161Y-84120582D01*
X121205908Y-84700000D01*
X109060488Y-84700000D01*
X112600489Y-81160000D01*
X126796892Y-81160000D01*
X126853687Y-81445528D01*
X127134382Y-81865618D01*
X127240421Y-81936471D01*
X130813531Y-85509582D01*
X130884382Y-85615618D01*
X130990418Y-85686469D01*
X130990419Y-85686470D01*
X131304470Y-85896313D01*
X131386899Y-85912709D01*
X131674920Y-85970000D01*
X131674923Y-85970000D01*
X131800000Y-85994879D01*
X131925076Y-85970000D01*
X132682350Y-85970000D01*
X132490874Y-86256565D01*
X132422560Y-86600000D01*
X132422560Y-87800000D01*
X132490874Y-88143435D01*
X132685414Y-88434586D01*
X132976565Y-88629126D01*
X133320000Y-88697440D01*
X134820000Y-88697440D01*
X135163435Y-88629126D01*
X135454586Y-88434586D01*
X135649126Y-88143435D01*
X135717440Y-87800000D01*
X135717440Y-86600000D01*
X135649126Y-86256565D01*
X135454586Y-85965414D01*
X135226844Y-85813242D01*
X135290625Y-85770625D01*
X135618839Y-85279418D01*
X135734092Y-84700000D01*
X135618839Y-84120582D01*
X135290625Y-83629375D01*
X134799418Y-83301161D01*
X134366256Y-83215000D01*
X133773744Y-83215000D01*
X133340582Y-83301161D01*
X133147761Y-83430000D01*
X132326051Y-83430000D01*
X129320000Y-80423950D01*
X129320000Y-80416050D01*
X130810300Y-78925750D01*
X132435000Y-78925750D01*
X132435000Y-79616309D01*
X132531673Y-79849698D01*
X132710301Y-80028327D01*
X132943690Y-80125000D01*
X133784250Y-80125000D01*
X133943000Y-79966250D01*
X133943000Y-78767000D01*
X134197000Y-78767000D01*
X134197000Y-79966250D01*
X134355750Y-80125000D01*
X135196310Y-80125000D01*
X135429699Y-80028327D01*
X135608327Y-79849698D01*
X135705000Y-79616309D01*
X135705000Y-78925750D01*
X135546250Y-78767000D01*
X134197000Y-78767000D01*
X133943000Y-78767000D01*
X132593750Y-78767000D01*
X132435000Y-78925750D01*
X130810300Y-78925750D01*
X132326051Y-77410000D01*
X132551975Y-77410000D01*
X132531673Y-77430302D01*
X132435000Y-77663691D01*
X132435000Y-78354250D01*
X132593750Y-78513000D01*
X133943000Y-78513000D01*
X133943000Y-78493000D01*
X134197000Y-78493000D01*
X134197000Y-78513000D01*
X135546250Y-78513000D01*
X135705000Y-78354250D01*
X135705000Y-77663691D01*
X135608327Y-77430302D01*
X135429699Y-77251673D01*
X135299291Y-77197656D01*
X135618839Y-76719418D01*
X135734092Y-76140000D01*
X135618839Y-75560582D01*
X135290625Y-75069375D01*
X134799418Y-74741161D01*
X134366256Y-74655000D01*
X133773744Y-74655000D01*
X133340582Y-74741161D01*
X133147761Y-74870000D01*
X131925076Y-74870000D01*
X131800000Y-74845121D01*
X131674923Y-74870000D01*
X131674920Y-74870000D01*
X131386899Y-74927291D01*
X131304470Y-74943687D01*
X131061560Y-75105995D01*
X130884382Y-75224382D01*
X130813531Y-75330418D01*
X127523950Y-78620000D01*
X114980230Y-78620000D01*
X115040000Y-78319518D01*
X115040000Y-78319514D01*
X115064879Y-78194438D01*
X115040000Y-78069362D01*
X115040000Y-76869396D01*
X115247138Y-77076534D01*
X115774561Y-77295000D01*
X116345439Y-77295000D01*
X116872862Y-77076534D01*
X117081651Y-76867745D01*
X117521861Y-76867745D01*
X117595995Y-77113864D01*
X118133223Y-77306965D01*
X118703454Y-77279778D01*
X119104005Y-77113864D01*
X119178139Y-76867745D01*
X118350000Y-76039605D01*
X117521861Y-76867745D01*
X117081651Y-76867745D01*
X117276534Y-76672862D01*
X117278198Y-76668844D01*
X117342255Y-76688139D01*
X118170395Y-75860000D01*
X118529605Y-75860000D01*
X119357745Y-76688139D01*
X119603864Y-76614005D01*
X119796965Y-76076777D01*
X119769778Y-75506546D01*
X119640741Y-75195022D01*
X124309584Y-75195022D01*
X124530353Y-75565743D01*
X125502012Y-75959119D01*
X126550247Y-75950713D01*
X127479647Y-75565743D01*
X127700416Y-75195022D01*
X126005000Y-73499605D01*
X124309584Y-75195022D01*
X119640741Y-75195022D01*
X119603864Y-75105995D01*
X119357745Y-75031861D01*
X118529605Y-75860000D01*
X118170395Y-75860000D01*
X117342255Y-75031861D01*
X117278198Y-75051156D01*
X117276534Y-75047138D01*
X116984396Y-74755000D01*
X117490439Y-74755000D01*
X117559811Y-74726265D01*
X117521861Y-74852255D01*
X118350000Y-75680395D01*
X119178139Y-74852255D01*
X119104005Y-74606136D01*
X118566777Y-74413035D01*
X118120063Y-74434333D01*
X118421534Y-74132862D01*
X118640000Y-73605439D01*
X118640000Y-73034561D01*
X118549889Y-72817012D01*
X123365881Y-72817012D01*
X123374287Y-73865247D01*
X123759257Y-74794647D01*
X124129978Y-75015416D01*
X125825395Y-73320000D01*
X126184605Y-73320000D01*
X127880022Y-75015416D01*
X128250743Y-74794647D01*
X128644119Y-73822988D01*
X128635713Y-72774753D01*
X128250743Y-71845353D01*
X127880022Y-71624584D01*
X126184605Y-73320000D01*
X125825395Y-73320000D01*
X124129978Y-71624584D01*
X123759257Y-71845353D01*
X123365881Y-72817012D01*
X118549889Y-72817012D01*
X118421534Y-72507138D01*
X118129396Y-72215000D01*
X118635439Y-72215000D01*
X119162862Y-71996534D01*
X119566534Y-71592862D01*
X119627789Y-71444978D01*
X124309584Y-71444978D01*
X126005000Y-73140395D01*
X127700416Y-71444978D01*
X127479647Y-71074257D01*
X126507988Y-70680881D01*
X125459753Y-70689287D01*
X124530353Y-71074257D01*
X124309584Y-71444978D01*
X119627789Y-71444978D01*
X119785000Y-71065439D01*
X119785000Y-70494561D01*
X119566534Y-69967138D01*
X119162862Y-69563466D01*
X118635439Y-69345000D01*
X118064561Y-69345000D01*
X117537138Y-69563466D01*
X117330770Y-69769834D01*
X117354879Y-69648630D01*
X117330000Y-69523555D01*
X117330000Y-69523550D01*
X117256313Y-69153101D01*
X117090624Y-68905130D01*
X117046470Y-68839049D01*
X117046469Y-68839048D01*
X116975618Y-68733012D01*
X116869582Y-68662161D01*
X114637832Y-66430412D01*
X114566979Y-66324373D01*
X114146890Y-66043678D01*
X113776441Y-65969991D01*
X113776436Y-65969991D01*
X113651361Y-65945112D01*
X113526286Y-65969991D01*
X99285083Y-65969991D01*
X99160008Y-65945112D01*
X99034933Y-65969991D01*
X99034929Y-65969991D01*
X98664480Y-66043678D01*
X98244391Y-66324373D01*
X98173540Y-66430410D01*
X95390409Y-69213541D01*
X95284373Y-69284392D01*
X95213522Y-69390428D01*
X95213520Y-69390430D01*
X95003678Y-69704481D01*
X94905111Y-70200010D01*
X94929991Y-70325090D01*
X94929990Y-80993959D01*
X92721390Y-83202560D01*
X92270000Y-83202560D01*
X91926565Y-83270874D01*
X91635414Y-83465414D01*
X91440874Y-83756565D01*
X91372560Y-84100000D01*
X91372560Y-85300000D01*
X91440874Y-85643435D01*
X91635414Y-85934586D01*
X91863156Y-86086758D01*
X91799375Y-86129375D01*
X91471161Y-86620582D01*
X91355908Y-87200000D01*
X91471161Y-87779418D01*
X91799375Y-88270625D01*
X92290582Y-88598839D01*
X92653018Y-88670932D01*
X91360421Y-89963529D01*
X91254382Y-90034382D01*
X90973687Y-90454472D01*
X90900000Y-90824921D01*
X90900000Y-90824925D01*
X90875121Y-90950000D01*
X90900000Y-91075075D01*
X90900001Y-95339992D01*
X90900000Y-95339997D01*
X90900000Y-95837050D01*
X90741526Y-95995524D01*
X90485000Y-96614833D01*
X88735000Y-96614833D01*
X88735000Y-65905594D01*
X90615000Y-65905594D01*
X90615000Y-66854406D01*
X90978095Y-67730994D01*
X91649006Y-68401905D01*
X92525594Y-68765000D01*
X93474406Y-68765000D01*
X94350994Y-68401905D01*
X95021905Y-67730994D01*
X95385000Y-66854406D01*
X95385000Y-65905594D01*
X131615000Y-65905594D01*
X131615000Y-66854406D01*
X131978095Y-67730994D01*
X132649006Y-68401905D01*
X133525594Y-68765000D01*
X134474406Y-68765000D01*
X135350994Y-68401905D01*
X136021905Y-67730994D01*
X136385000Y-66854406D01*
X136385000Y-65905594D01*
X136021905Y-65029006D01*
X135350994Y-64358095D01*
X134474406Y-63995000D01*
X133525594Y-63995000D01*
X132649006Y-64358095D01*
X131978095Y-65029006D01*
X131615000Y-65905594D01*
X95385000Y-65905594D01*
X95021905Y-65029006D01*
X94350994Y-64358095D01*
X93474406Y-63995000D01*
X92525594Y-63995000D01*
X91649006Y-64358095D01*
X90978095Y-65029006D01*
X90615000Y-65905594D01*
X88735000Y-65905594D01*
X88735000Y-62735000D01*
X138265000Y-62735000D01*
X138265001Y-105265000D01*
G36*
X106449581Y-70664381D02*
X106378730Y-70770417D01*
X103641590Y-73507558D01*
X103635713Y-72774753D01*
X103250743Y-71845353D01*
X102880022Y-71624584D01*
X101184605Y-73320000D01*
X101198748Y-73334142D01*
X101019142Y-73513748D01*
X101005000Y-73499605D01*
X99309584Y-75195022D01*
X99530353Y-75565743D01*
X100190937Y-75833181D01*
X100084392Y-75904372D01*
X100013540Y-76010409D01*
X98940000Y-77083950D01*
X98940000Y-74902282D01*
X99129978Y-75015416D01*
X100825395Y-73320000D01*
X100811252Y-73305858D01*
X100990858Y-73126252D01*
X101005000Y-73140395D01*
X102700416Y-71444978D01*
X102479647Y-71074257D01*
X101507988Y-70680881D01*
X100459753Y-70689287D01*
X99942518Y-70903533D01*
X100431052Y-70414999D01*
X106822807Y-70414999D01*
X106449581Y-70664381D01*
X106449581Y-70664381D01*
G37*
X106449581Y-70664381D02*
X106378730Y-70770417D01*
X103641590Y-73507558D01*
X103635713Y-72774753D01*
X103250743Y-71845353D01*
X102880022Y-71624584D01*
X101184605Y-73320000D01*
X101198748Y-73334142D01*
X101019142Y-73513748D01*
X101005000Y-73499605D01*
X99309584Y-75195022D01*
X99530353Y-75565743D01*
X100190937Y-75833181D01*
X100084392Y-75904372D01*
X100013540Y-76010409D01*
X98940000Y-77083950D01*
X98940000Y-74902282D01*
X99129978Y-75015416D01*
X100825395Y-73320000D01*
X100811252Y-73305858D01*
X100990858Y-73126252D01*
X101005000Y-73140395D01*
X102700416Y-71444978D01*
X102479647Y-71074257D01*
X101507988Y-70680881D01*
X100459753Y-70689287D01*
X99942518Y-70903533D01*
X100431052Y-70414999D01*
X106822807Y-70414999D01*
X106449581Y-70664381D01*
M02*
