M48
;DRILL file {KiCad (5.0.2)-1} date 13.02.2019 20:03:11
;FORMAT={-:-/ absolute / inch / decimal}
FMAT,2
INCH,TZ
T1C0.0374
T2C0.0394
T3C0.0433
T4C0.1260
T5C0.1378
%
G90
G05
T1
X4.624Y-3.9028
X4.7224Y-3.9028
X4.8209Y-3.9028
X4.1228Y-3.9028
X4.2213Y-3.9028
X4.3197Y-3.9028
T2
X5.3106Y-3.4343
X5.3106Y-3.5327
X3.635Y-2.987
X3.635Y-3.0854
X4.2537Y-2.8866
X4.2988Y-2.7866
X4.2988Y-2.9866
X4.3439Y-2.8866
X4.389Y-2.7866
X4.389Y-2.9866
X4.4341Y-2.8866
X4.4791Y-2.7866
X4.4791Y-2.9866
X4.5242Y-2.8866
X4.5693Y-2.7866
X4.5693Y-2.9866
X4.6144Y-2.8866
X4.6594Y-2.7866
X4.6594Y-2.9866
X5.3102Y-3.0953
X5.3102Y-3.1937
X3.7201Y-3.9035
X3.8185Y-3.9035
X5.1252Y-3.9016
X5.2236Y-3.9016
T3
X3.7583Y-3.3287
X3.7583Y-3.5287
T4
X3.9766Y-2.8866
X4.9608Y-2.8866
T5
X5.2756Y-2.6134
X4.4685Y-3.4815
X3.6614Y-2.6134
T0
M30
