%TF.GenerationSoftware,KiCad,Pcbnew,(5.0.2)-1*%
%TF.CreationDate,2019-02-13T20:03:15+01:00*%
%TF.ProjectId,VGA-Terminal_XT,5647412d-5465-4726-9d69-6e616c5f5854,rev?*%
%TF.SameCoordinates,Original*%
%TF.FileFunction,Soldermask,Top*%
%TF.FilePolarity,Negative*%
%FSLAX46Y46*%
G04 Gerber Fmt 4.6, Leading zero omitted, Abs format (unit mm)*
G04 Created by KiCad (PCBNEW (5.0.2)-1) date 13.02.2019 20:03:15*
%MOMM*%
%LPD*%
G01*
G04 APERTURE LIST*
%ADD10C,0.150000*%
G04 APERTURE END LIST*
D10*
G36*
X94666627Y-98112037D02*
X94779853Y-98146384D01*
X94836467Y-98163557D01*
X94945382Y-98221774D01*
X94992991Y-98247222D01*
X95017808Y-98267589D01*
X95130186Y-98359814D01*
X95213448Y-98461271D01*
X95242778Y-98497009D01*
X95326443Y-98653534D01*
X95377963Y-98823374D01*
X95391000Y-98955743D01*
X95391000Y-99344258D01*
X95377963Y-99476627D01*
X95343616Y-99589853D01*
X95326443Y-99646467D01*
X95269505Y-99752989D01*
X95242778Y-99802991D01*
X95213448Y-99838729D01*
X95130186Y-99940186D01*
X94992989Y-100052779D01*
X94836466Y-100136443D01*
X94805263Y-100145908D01*
X94666626Y-100187963D01*
X94490000Y-100205359D01*
X94313373Y-100187963D01*
X94174736Y-100145908D01*
X94143533Y-100136443D01*
X93987011Y-100052779D01*
X93987009Y-100052778D01*
X93932178Y-100007779D01*
X93849814Y-99940186D01*
X93737221Y-99802989D01*
X93653557Y-99646466D01*
X93636384Y-99589852D01*
X93602037Y-99476626D01*
X93589000Y-99344257D01*
X93589000Y-98955742D01*
X93602037Y-98823373D01*
X93652040Y-98658534D01*
X93653557Y-98653533D01*
X93737222Y-98497008D01*
X93849812Y-98359817D01*
X93910741Y-98309814D01*
X93987010Y-98247222D01*
X94034619Y-98221774D01*
X94143534Y-98163557D01*
X94200148Y-98146384D01*
X94313374Y-98112037D01*
X94490000Y-98094641D01*
X94666627Y-98112037D01*
X94666627Y-98112037D01*
G37*
G36*
X97748600Y-98102989D02*
X97781649Y-98113014D01*
X97812106Y-98129294D01*
X97838799Y-98151201D01*
X97860706Y-98177894D01*
X97876986Y-98208351D01*
X97887011Y-98241400D01*
X97891000Y-98281904D01*
X97891000Y-100018096D01*
X97887011Y-100058600D01*
X97876986Y-100091649D01*
X97860706Y-100122106D01*
X97838799Y-100148799D01*
X97812106Y-100170706D01*
X97781649Y-100186986D01*
X97748600Y-100197011D01*
X97708096Y-100201000D01*
X96271904Y-100201000D01*
X96231400Y-100197011D01*
X96198351Y-100186986D01*
X96167894Y-100170706D01*
X96141201Y-100148799D01*
X96119294Y-100122106D01*
X96103014Y-100091649D01*
X96092989Y-100058600D01*
X96089000Y-100018096D01*
X96089000Y-98281904D01*
X96092989Y-98241400D01*
X96103014Y-98208351D01*
X96119294Y-98177894D01*
X96141201Y-98151201D01*
X96167894Y-98129294D01*
X96198351Y-98113014D01*
X96231400Y-98102989D01*
X96271904Y-98099000D01*
X97708096Y-98099000D01*
X97748600Y-98102989D01*
X97748600Y-98102989D01*
G37*
G36*
X120126627Y-98117037D02*
X120239251Y-98151201D01*
X120296467Y-98168557D01*
X120414979Y-98231904D01*
X120452991Y-98252222D01*
X120488729Y-98281552D01*
X120590186Y-98364814D01*
X120657642Y-98447011D01*
X120702778Y-98502009D01*
X120786443Y-98658534D01*
X120837963Y-98828374D01*
X120837963Y-98828376D01*
X120850508Y-98955742D01*
X120851000Y-98960743D01*
X120851000Y-99299258D01*
X120837963Y-99431627D01*
X120824312Y-99476627D01*
X120786443Y-99601467D01*
X120712348Y-99740087D01*
X120702778Y-99757991D01*
X120673448Y-99793729D01*
X120590186Y-99895186D01*
X120452989Y-100007779D01*
X120296466Y-100091443D01*
X120239852Y-100108616D01*
X120126626Y-100142963D01*
X119950000Y-100160359D01*
X119773373Y-100142963D01*
X119660147Y-100108616D01*
X119603533Y-100091443D01*
X119447011Y-100007779D01*
X119447009Y-100007778D01*
X119404749Y-99973096D01*
X119309814Y-99895186D01*
X119197221Y-99757989D01*
X119113557Y-99601466D01*
X119075688Y-99476626D01*
X119062037Y-99431626D01*
X119049000Y-99299257D01*
X119049000Y-98960742D01*
X119049493Y-98955741D01*
X119062037Y-98828375D01*
X119062037Y-98828373D01*
X119113557Y-98658534D01*
X119113557Y-98658533D01*
X119197222Y-98502008D01*
X119309812Y-98364817D01*
X119404750Y-98286904D01*
X119447010Y-98252222D01*
X119485022Y-98231904D01*
X119603534Y-98168557D01*
X119660750Y-98151201D01*
X119773374Y-98117037D01*
X119950000Y-98099641D01*
X120126627Y-98117037D01*
X120126627Y-98117037D01*
G37*
G36*
X107396627Y-98117037D02*
X107509251Y-98151201D01*
X107566467Y-98168557D01*
X107684979Y-98231904D01*
X107722991Y-98252222D01*
X107758729Y-98281552D01*
X107860186Y-98364814D01*
X107927642Y-98447011D01*
X107972778Y-98502009D01*
X108056443Y-98658534D01*
X108107963Y-98828374D01*
X108107963Y-98828376D01*
X108120508Y-98955742D01*
X108121000Y-98960743D01*
X108121000Y-99299258D01*
X108107963Y-99431627D01*
X108094312Y-99476627D01*
X108056443Y-99601467D01*
X107982348Y-99740087D01*
X107972778Y-99757991D01*
X107943448Y-99793729D01*
X107860186Y-99895186D01*
X107722989Y-100007779D01*
X107566466Y-100091443D01*
X107509852Y-100108616D01*
X107396626Y-100142963D01*
X107220000Y-100160359D01*
X107043373Y-100142963D01*
X106930147Y-100108616D01*
X106873533Y-100091443D01*
X106717011Y-100007779D01*
X106717009Y-100007778D01*
X106674749Y-99973096D01*
X106579814Y-99895186D01*
X106467221Y-99757989D01*
X106383557Y-99601466D01*
X106345688Y-99476626D01*
X106332037Y-99431626D01*
X106319000Y-99299257D01*
X106319000Y-98960742D01*
X106319493Y-98955741D01*
X106332037Y-98828375D01*
X106332037Y-98828373D01*
X106383557Y-98658534D01*
X106383557Y-98658533D01*
X106467222Y-98502008D01*
X106579812Y-98364817D01*
X106674750Y-98286904D01*
X106717010Y-98252222D01*
X106755022Y-98231904D01*
X106873534Y-98168557D01*
X106930750Y-98151201D01*
X107043374Y-98117037D01*
X107220000Y-98099641D01*
X107396627Y-98117037D01*
X107396627Y-98117037D01*
G37*
G36*
X104896627Y-98117037D02*
X105009251Y-98151201D01*
X105066467Y-98168557D01*
X105184979Y-98231904D01*
X105222991Y-98252222D01*
X105258729Y-98281552D01*
X105360186Y-98364814D01*
X105427642Y-98447011D01*
X105472778Y-98502009D01*
X105556443Y-98658534D01*
X105607963Y-98828374D01*
X105607963Y-98828376D01*
X105620508Y-98955742D01*
X105621000Y-98960743D01*
X105621000Y-99299258D01*
X105607963Y-99431627D01*
X105594312Y-99476627D01*
X105556443Y-99601467D01*
X105482348Y-99740087D01*
X105472778Y-99757991D01*
X105443448Y-99793729D01*
X105360186Y-99895186D01*
X105222989Y-100007779D01*
X105066466Y-100091443D01*
X105009852Y-100108616D01*
X104896626Y-100142963D01*
X104720000Y-100160359D01*
X104543373Y-100142963D01*
X104430147Y-100108616D01*
X104373533Y-100091443D01*
X104217011Y-100007779D01*
X104217009Y-100007778D01*
X104174749Y-99973096D01*
X104079814Y-99895186D01*
X103967221Y-99757989D01*
X103883557Y-99601466D01*
X103845688Y-99476626D01*
X103832037Y-99431626D01*
X103819000Y-99299257D01*
X103819000Y-98960742D01*
X103819493Y-98955741D01*
X103832037Y-98828375D01*
X103832037Y-98828373D01*
X103883557Y-98658534D01*
X103883557Y-98658533D01*
X103967222Y-98502008D01*
X104079812Y-98364817D01*
X104174750Y-98286904D01*
X104217010Y-98252222D01*
X104255022Y-98231904D01*
X104373534Y-98168557D01*
X104430750Y-98151201D01*
X104543374Y-98117037D01*
X104720000Y-98099641D01*
X104896627Y-98117037D01*
X104896627Y-98117037D01*
G37*
G36*
X117626627Y-98117037D02*
X117739251Y-98151201D01*
X117796467Y-98168557D01*
X117914979Y-98231904D01*
X117952991Y-98252222D01*
X117988729Y-98281552D01*
X118090186Y-98364814D01*
X118157642Y-98447011D01*
X118202778Y-98502009D01*
X118286443Y-98658534D01*
X118337963Y-98828374D01*
X118337963Y-98828376D01*
X118350508Y-98955742D01*
X118351000Y-98960743D01*
X118351000Y-99299258D01*
X118337963Y-99431627D01*
X118324312Y-99476627D01*
X118286443Y-99601467D01*
X118212348Y-99740087D01*
X118202778Y-99757991D01*
X118173448Y-99793729D01*
X118090186Y-99895186D01*
X117952989Y-100007779D01*
X117796466Y-100091443D01*
X117739852Y-100108616D01*
X117626626Y-100142963D01*
X117450000Y-100160359D01*
X117273373Y-100142963D01*
X117160147Y-100108616D01*
X117103533Y-100091443D01*
X116947011Y-100007779D01*
X116947009Y-100007778D01*
X116904749Y-99973096D01*
X116809814Y-99895186D01*
X116697221Y-99757989D01*
X116613557Y-99601466D01*
X116575688Y-99476626D01*
X116562037Y-99431626D01*
X116549000Y-99299257D01*
X116549000Y-98960742D01*
X116549493Y-98955741D01*
X116562037Y-98828375D01*
X116562037Y-98828373D01*
X116613557Y-98658534D01*
X116613557Y-98658533D01*
X116697222Y-98502008D01*
X116809812Y-98364817D01*
X116904750Y-98286904D01*
X116947010Y-98252222D01*
X116985022Y-98231904D01*
X117103534Y-98168557D01*
X117160750Y-98151201D01*
X117273374Y-98117037D01*
X117450000Y-98099641D01*
X117626627Y-98117037D01*
X117626627Y-98117037D01*
G37*
G36*
X123208600Y-98107989D02*
X123241649Y-98118014D01*
X123272106Y-98134294D01*
X123298799Y-98156201D01*
X123320706Y-98182894D01*
X123336986Y-98213351D01*
X123347011Y-98246400D01*
X123351000Y-98286904D01*
X123351000Y-99973096D01*
X123347011Y-100013600D01*
X123336986Y-100046649D01*
X123320706Y-100077106D01*
X123298799Y-100103799D01*
X123272106Y-100125706D01*
X123241649Y-100141986D01*
X123208600Y-100152011D01*
X123168096Y-100156000D01*
X121731904Y-100156000D01*
X121691400Y-100152011D01*
X121658351Y-100141986D01*
X121627894Y-100125706D01*
X121601201Y-100103799D01*
X121579294Y-100077106D01*
X121563014Y-100046649D01*
X121552989Y-100013600D01*
X121549000Y-99973096D01*
X121549000Y-98286904D01*
X121552989Y-98246400D01*
X121563014Y-98213351D01*
X121579294Y-98182894D01*
X121601201Y-98156201D01*
X121627894Y-98134294D01*
X121658351Y-98118014D01*
X121691400Y-98107989D01*
X121731904Y-98104000D01*
X123168096Y-98104000D01*
X123208600Y-98107989D01*
X123208600Y-98107989D01*
G37*
G36*
X110478600Y-98107989D02*
X110511649Y-98118014D01*
X110542106Y-98134294D01*
X110568799Y-98156201D01*
X110590706Y-98182894D01*
X110606986Y-98213351D01*
X110617011Y-98246400D01*
X110621000Y-98286904D01*
X110621000Y-99973096D01*
X110617011Y-100013600D01*
X110606986Y-100046649D01*
X110590706Y-100077106D01*
X110568799Y-100103799D01*
X110542106Y-100125706D01*
X110511649Y-100141986D01*
X110478600Y-100152011D01*
X110438096Y-100156000D01*
X109001904Y-100156000D01*
X108961400Y-100152011D01*
X108928351Y-100141986D01*
X108897894Y-100125706D01*
X108871201Y-100103799D01*
X108849294Y-100077106D01*
X108833014Y-100046649D01*
X108822989Y-100013600D01*
X108819000Y-99973096D01*
X108819000Y-98286904D01*
X108822989Y-98246400D01*
X108833014Y-98213351D01*
X108849294Y-98182894D01*
X108871201Y-98156201D01*
X108897894Y-98134294D01*
X108928351Y-98118014D01*
X108961400Y-98107989D01*
X109001904Y-98104000D01*
X110438096Y-98104000D01*
X110478600Y-98107989D01*
X110478600Y-98107989D01*
G37*
G36*
X130356627Y-98062037D02*
X130464108Y-98094641D01*
X130526467Y-98113557D01*
X130629363Y-98168557D01*
X130682991Y-98197222D01*
X130702644Y-98213351D01*
X130820186Y-98309814D01*
X130903448Y-98411271D01*
X130932778Y-98447009D01*
X131016443Y-98603534D01*
X131067963Y-98773374D01*
X131067963Y-98773376D01*
X131081000Y-98905741D01*
X131081000Y-99294260D01*
X131076076Y-99344257D01*
X131067963Y-99426627D01*
X131033616Y-99539853D01*
X131016443Y-99596467D01*
X130989717Y-99646467D01*
X130932778Y-99752991D01*
X130903448Y-99788729D01*
X130820186Y-99890186D01*
X130682989Y-100002779D01*
X130526466Y-100086443D01*
X130485733Y-100098799D01*
X130356626Y-100137963D01*
X130180000Y-100155359D01*
X130003373Y-100137963D01*
X129874266Y-100098799D01*
X129833533Y-100086443D01*
X129677011Y-100002779D01*
X129677009Y-100002778D01*
X129634749Y-99968096D01*
X129539814Y-99890186D01*
X129427221Y-99752989D01*
X129343557Y-99596466D01*
X129307205Y-99476627D01*
X129292037Y-99426626D01*
X129279493Y-99299260D01*
X129279000Y-99294259D01*
X129279000Y-98905740D01*
X129292037Y-98773375D01*
X129292037Y-98773373D01*
X129343557Y-98603534D01*
X129343557Y-98603533D01*
X129427222Y-98447008D01*
X129539812Y-98309817D01*
X129616086Y-98247221D01*
X129677010Y-98197222D01*
X129730638Y-98168557D01*
X129833534Y-98113557D01*
X129895893Y-98094641D01*
X130003374Y-98062037D01*
X130180000Y-98044641D01*
X130356627Y-98062037D01*
X130356627Y-98062037D01*
G37*
G36*
X133438600Y-98052989D02*
X133471649Y-98063014D01*
X133502106Y-98079294D01*
X133528799Y-98101201D01*
X133550706Y-98127894D01*
X133566986Y-98158351D01*
X133577011Y-98191400D01*
X133581000Y-98231904D01*
X133581000Y-99968096D01*
X133577011Y-100008600D01*
X133566986Y-100041649D01*
X133550706Y-100072106D01*
X133528799Y-100098799D01*
X133502106Y-100120706D01*
X133471649Y-100136986D01*
X133438600Y-100147011D01*
X133398096Y-100151000D01*
X131961904Y-100151000D01*
X131921400Y-100147011D01*
X131888351Y-100136986D01*
X131857894Y-100120706D01*
X131831201Y-100098799D01*
X131809294Y-100072106D01*
X131793014Y-100041649D01*
X131782989Y-100008600D01*
X131779000Y-99968096D01*
X131779000Y-98231904D01*
X131782989Y-98191400D01*
X131793014Y-98158351D01*
X131809294Y-98127894D01*
X131831201Y-98101201D01*
X131857894Y-98079294D01*
X131888351Y-98063014D01*
X131921400Y-98052989D01*
X131961904Y-98049000D01*
X133398096Y-98049000D01*
X133438600Y-98052989D01*
X133438600Y-98052989D01*
G37*
G36*
X96561000Y-90731000D02*
X94359000Y-90731000D01*
X94359000Y-88529000D01*
X96561000Y-88529000D01*
X96561000Y-90731000D01*
X96561000Y-90731000D01*
G37*
G36*
X135150443Y-88835519D02*
X135216627Y-88842037D01*
X135329853Y-88876384D01*
X135386467Y-88893557D01*
X135502036Y-88955331D01*
X135542991Y-88977222D01*
X135578729Y-89006552D01*
X135680186Y-89089814D01*
X135763448Y-89191271D01*
X135792778Y-89227009D01*
X135792779Y-89227011D01*
X135876443Y-89383533D01*
X135876443Y-89383534D01*
X135927963Y-89553373D01*
X135945359Y-89730000D01*
X135927963Y-89906627D01*
X135893616Y-90019853D01*
X135876443Y-90076467D01*
X135830837Y-90161788D01*
X135792778Y-90232991D01*
X135763448Y-90268729D01*
X135680186Y-90370186D01*
X135578729Y-90453448D01*
X135542991Y-90482778D01*
X135542989Y-90482779D01*
X135386467Y-90566443D01*
X135329853Y-90583616D01*
X135216627Y-90617963D01*
X135150443Y-90624481D01*
X135084260Y-90631000D01*
X134695740Y-90631000D01*
X134629557Y-90624481D01*
X134563373Y-90617963D01*
X134450147Y-90583616D01*
X134393533Y-90566443D01*
X134237011Y-90482779D01*
X134237009Y-90482778D01*
X134201271Y-90453448D01*
X134099814Y-90370186D01*
X134016552Y-90268729D01*
X133987222Y-90232991D01*
X133949163Y-90161788D01*
X133903557Y-90076467D01*
X133886384Y-90019853D01*
X133852037Y-89906627D01*
X133834641Y-89730000D01*
X133852037Y-89553373D01*
X133903557Y-89383534D01*
X133903557Y-89383533D01*
X133987221Y-89227011D01*
X133987222Y-89227009D01*
X134016552Y-89191271D01*
X134099814Y-89089814D01*
X134201271Y-89006552D01*
X134237009Y-88977222D01*
X134277964Y-88955331D01*
X134393533Y-88893557D01*
X134450147Y-88876384D01*
X134563373Y-88842037D01*
X134629557Y-88835519D01*
X134695740Y-88829000D01*
X135084260Y-88829000D01*
X135150443Y-88835519D01*
X135150443Y-88835519D01*
G37*
G36*
X114025331Y-86698211D02*
X114353092Y-86833974D01*
X114648073Y-87031074D01*
X114898926Y-87281927D01*
X115096026Y-87576908D01*
X115231789Y-87904669D01*
X115301000Y-88252616D01*
X115301000Y-88607384D01*
X115231789Y-88955331D01*
X115096026Y-89283092D01*
X114898926Y-89578073D01*
X114648073Y-89828926D01*
X114353092Y-90026026D01*
X114025331Y-90161789D01*
X113677384Y-90231000D01*
X113322616Y-90231000D01*
X112974669Y-90161789D01*
X112646908Y-90026026D01*
X112351927Y-89828926D01*
X112101074Y-89578073D01*
X111903974Y-89283092D01*
X111768211Y-88955331D01*
X111699000Y-88607384D01*
X111699000Y-88252616D01*
X111768211Y-87904669D01*
X111903974Y-87576908D01*
X112101074Y-87281927D01*
X112351927Y-87031074D01*
X112646908Y-86833974D01*
X112974669Y-86698211D01*
X113322616Y-86629000D01*
X113677384Y-86629000D01*
X114025331Y-86698211D01*
X114025331Y-86698211D01*
G37*
G36*
X135798600Y-86332989D02*
X135831649Y-86343014D01*
X135862106Y-86359294D01*
X135888799Y-86381201D01*
X135910706Y-86407894D01*
X135926986Y-86438351D01*
X135937011Y-86471400D01*
X135941000Y-86511904D01*
X135941000Y-87948096D01*
X135937011Y-87988600D01*
X135926986Y-88021649D01*
X135910706Y-88052106D01*
X135888799Y-88078799D01*
X135862106Y-88100706D01*
X135831649Y-88116986D01*
X135798600Y-88127011D01*
X135758096Y-88131000D01*
X134021904Y-88131000D01*
X133981400Y-88127011D01*
X133948351Y-88116986D01*
X133917894Y-88100706D01*
X133891201Y-88078799D01*
X133869294Y-88052106D01*
X133853014Y-88021649D01*
X133842989Y-87988600D01*
X133839000Y-87948096D01*
X133839000Y-86511904D01*
X133842989Y-86471400D01*
X133853014Y-86438351D01*
X133869294Y-86407894D01*
X133891201Y-86381201D01*
X133917894Y-86359294D01*
X133948351Y-86343014D01*
X133981400Y-86332989D01*
X134021904Y-86329000D01*
X135758096Y-86329000D01*
X135798600Y-86332989D01*
X135798600Y-86332989D01*
G37*
G36*
X95674795Y-83470156D02*
X95781150Y-83491311D01*
X95851990Y-83520654D01*
X95981516Y-83574305D01*
X96161850Y-83694801D01*
X96315199Y-83848150D01*
X96435695Y-84028484D01*
X96518689Y-84228851D01*
X96561000Y-84441560D01*
X96561000Y-84658440D01*
X96518689Y-84871149D01*
X96435695Y-85071516D01*
X96315199Y-85251850D01*
X96161850Y-85405199D01*
X95981516Y-85525695D01*
X95851990Y-85579346D01*
X95781150Y-85608689D01*
X95674794Y-85629845D01*
X95568440Y-85651000D01*
X95351560Y-85651000D01*
X95245206Y-85629845D01*
X95138850Y-85608689D01*
X95068010Y-85579346D01*
X94938484Y-85525695D01*
X94758150Y-85405199D01*
X94604801Y-85251850D01*
X94484305Y-85071516D01*
X94401311Y-84871149D01*
X94359000Y-84658440D01*
X94359000Y-84441560D01*
X94401311Y-84228851D01*
X94484305Y-84028484D01*
X94604801Y-83848150D01*
X94758150Y-83694801D01*
X94938484Y-83574305D01*
X95068010Y-83520654D01*
X95138850Y-83491311D01*
X95245205Y-83470156D01*
X95351560Y-83449000D01*
X95568440Y-83449000D01*
X95674795Y-83470156D01*
X95674795Y-83470156D01*
G37*
G36*
X135140442Y-80225518D02*
X135206627Y-80232037D01*
X135319853Y-80266384D01*
X135376467Y-80283557D01*
X135515087Y-80357652D01*
X135532991Y-80367222D01*
X135568729Y-80396552D01*
X135670186Y-80479814D01*
X135753448Y-80581271D01*
X135782778Y-80617009D01*
X135782779Y-80617011D01*
X135866443Y-80773533D01*
X135866443Y-80773534D01*
X135917963Y-80943373D01*
X135935359Y-81120000D01*
X135917963Y-81296627D01*
X135883616Y-81409853D01*
X135866443Y-81466467D01*
X135792348Y-81605087D01*
X135782778Y-81622991D01*
X135753448Y-81658729D01*
X135670186Y-81760186D01*
X135568729Y-81843448D01*
X135532991Y-81872778D01*
X135532989Y-81872779D01*
X135376467Y-81956443D01*
X135319853Y-81973616D01*
X135206627Y-82007963D01*
X135140442Y-82014482D01*
X135074260Y-82021000D01*
X134685740Y-82021000D01*
X134619558Y-82014482D01*
X134553373Y-82007963D01*
X134440147Y-81973616D01*
X134383533Y-81956443D01*
X134227011Y-81872779D01*
X134227009Y-81872778D01*
X134191271Y-81843448D01*
X134089814Y-81760186D01*
X134006552Y-81658729D01*
X133977222Y-81622991D01*
X133967652Y-81605087D01*
X133893557Y-81466467D01*
X133876384Y-81409853D01*
X133842037Y-81296627D01*
X133824641Y-81120000D01*
X133842037Y-80943373D01*
X133893557Y-80773534D01*
X133893557Y-80773533D01*
X133977221Y-80617011D01*
X133977222Y-80617009D01*
X134006552Y-80581271D01*
X134089814Y-80479814D01*
X134191271Y-80396552D01*
X134227009Y-80367222D01*
X134244913Y-80357652D01*
X134383533Y-80283557D01*
X134440147Y-80266384D01*
X134553373Y-80232037D01*
X134619558Y-80225518D01*
X134685740Y-80219000D01*
X135074260Y-80219000D01*
X135140442Y-80225518D01*
X135140442Y-80225518D01*
G37*
G36*
X135788600Y-77722989D02*
X135821649Y-77733014D01*
X135852106Y-77749294D01*
X135878799Y-77771201D01*
X135900706Y-77797894D01*
X135916986Y-77828351D01*
X135927011Y-77861400D01*
X135931000Y-77901904D01*
X135931000Y-79338096D01*
X135927011Y-79378600D01*
X135916986Y-79411649D01*
X135900706Y-79442106D01*
X135878799Y-79468799D01*
X135852106Y-79490706D01*
X135821649Y-79506986D01*
X135788600Y-79517011D01*
X135748096Y-79521000D01*
X134011904Y-79521000D01*
X133971400Y-79517011D01*
X133938351Y-79506986D01*
X133907894Y-79490706D01*
X133881201Y-79468799D01*
X133859294Y-79442106D01*
X133843014Y-79411649D01*
X133832989Y-79378600D01*
X133829000Y-79338096D01*
X133829000Y-77901904D01*
X133832989Y-77861400D01*
X133843014Y-77828351D01*
X133859294Y-77797894D01*
X133881201Y-77771201D01*
X133907894Y-77749294D01*
X133938351Y-77733014D01*
X133971400Y-77722989D01*
X134011904Y-77719000D01*
X135748096Y-77719000D01*
X135788600Y-77722989D01*
X135788600Y-77722989D01*
G37*
G36*
X93238600Y-77472989D02*
X93271649Y-77483014D01*
X93302106Y-77499294D01*
X93328799Y-77521201D01*
X93350706Y-77547894D01*
X93366986Y-77578351D01*
X93377011Y-77611400D01*
X93381000Y-77651904D01*
X93381000Y-79088096D01*
X93377011Y-79128600D01*
X93366986Y-79161649D01*
X93350706Y-79192106D01*
X93328799Y-79218799D01*
X93302106Y-79240706D01*
X93271649Y-79256986D01*
X93238600Y-79267011D01*
X93198096Y-79271000D01*
X91461904Y-79271000D01*
X91421400Y-79267011D01*
X91388351Y-79256986D01*
X91357894Y-79240706D01*
X91331201Y-79218799D01*
X91309294Y-79192106D01*
X91293014Y-79161649D01*
X91282989Y-79128600D01*
X91279000Y-79088096D01*
X91279000Y-77651904D01*
X91282989Y-77611400D01*
X91293014Y-77578351D01*
X91309294Y-77547894D01*
X91331201Y-77521201D01*
X91357894Y-77499294D01*
X91388351Y-77483014D01*
X91421400Y-77472989D01*
X91461904Y-77469000D01*
X93198096Y-77469000D01*
X93238600Y-77472989D01*
X93238600Y-77472989D01*
G37*
G36*
X92590443Y-74975519D02*
X92656627Y-74982037D01*
X92745512Y-75009000D01*
X92826467Y-75033557D01*
X92961721Y-75105853D01*
X92982991Y-75117222D01*
X93018729Y-75146552D01*
X93120186Y-75229814D01*
X93203448Y-75331271D01*
X93232778Y-75367009D01*
X93232779Y-75367011D01*
X93316443Y-75523533D01*
X93316443Y-75523534D01*
X93367963Y-75693373D01*
X93385359Y-75870000D01*
X93367963Y-76046627D01*
X93333616Y-76159853D01*
X93316443Y-76216467D01*
X93242348Y-76355087D01*
X93232778Y-76372991D01*
X93208576Y-76402481D01*
X93120186Y-76510186D01*
X93018729Y-76593448D01*
X92982991Y-76622778D01*
X92982989Y-76622779D01*
X92826467Y-76706443D01*
X92811444Y-76711000D01*
X92656627Y-76757963D01*
X92590442Y-76764482D01*
X92524260Y-76771000D01*
X92135740Y-76771000D01*
X92069558Y-76764482D01*
X92003373Y-76757963D01*
X91848556Y-76711000D01*
X91833533Y-76706443D01*
X91677011Y-76622779D01*
X91677009Y-76622778D01*
X91641271Y-76593448D01*
X91539814Y-76510186D01*
X91451424Y-76402481D01*
X91427222Y-76372991D01*
X91417652Y-76355087D01*
X91343557Y-76216467D01*
X91326384Y-76159853D01*
X91292037Y-76046627D01*
X91274641Y-75870000D01*
X91292037Y-75693373D01*
X91343557Y-75523534D01*
X91343557Y-75523533D01*
X91427221Y-75367011D01*
X91427222Y-75367009D01*
X91456552Y-75331271D01*
X91539814Y-75229814D01*
X91641271Y-75146552D01*
X91677009Y-75117222D01*
X91698279Y-75105853D01*
X91833533Y-75033557D01*
X91914488Y-75009000D01*
X92003373Y-74982037D01*
X92069557Y-74975519D01*
X92135740Y-74969000D01*
X92524260Y-74969000D01*
X92590443Y-74975519D01*
X92590443Y-74975519D01*
G37*
G36*
X111728228Y-75041703D02*
X111883100Y-75105853D01*
X112022481Y-75198985D01*
X112141015Y-75317519D01*
X112234147Y-75456900D01*
X112298297Y-75611772D01*
X112331000Y-75776184D01*
X112331000Y-75943816D01*
X112298297Y-76108228D01*
X112234147Y-76263100D01*
X112141015Y-76402481D01*
X112022481Y-76521015D01*
X111883100Y-76614147D01*
X111728228Y-76678297D01*
X111563816Y-76711000D01*
X111396184Y-76711000D01*
X111231772Y-76678297D01*
X111076900Y-76614147D01*
X110937519Y-76521015D01*
X110818985Y-76402481D01*
X110725853Y-76263100D01*
X110661703Y-76108228D01*
X110629000Y-75943816D01*
X110629000Y-75776184D01*
X110661703Y-75611772D01*
X110725853Y-75456900D01*
X110818985Y-75317519D01*
X110937519Y-75198985D01*
X111076900Y-75105853D01*
X111231772Y-75041703D01*
X111396184Y-75009000D01*
X111563816Y-75009000D01*
X111728228Y-75041703D01*
X111728228Y-75041703D01*
G37*
G36*
X110041000Y-76711000D02*
X108339000Y-76711000D01*
X108339000Y-75009000D01*
X110041000Y-75009000D01*
X110041000Y-76711000D01*
X110041000Y-76711000D01*
G37*
G36*
X114018228Y-75041703D02*
X114173100Y-75105853D01*
X114312481Y-75198985D01*
X114431015Y-75317519D01*
X114524147Y-75456900D01*
X114588297Y-75611772D01*
X114621000Y-75776184D01*
X114621000Y-75943816D01*
X114588297Y-76108228D01*
X114524147Y-76263100D01*
X114431015Y-76402481D01*
X114312481Y-76521015D01*
X114173100Y-76614147D01*
X114018228Y-76678297D01*
X113853816Y-76711000D01*
X113686184Y-76711000D01*
X113521772Y-76678297D01*
X113366900Y-76614147D01*
X113227519Y-76521015D01*
X113108985Y-76402481D01*
X113015853Y-76263100D01*
X112951703Y-76108228D01*
X112919000Y-75943816D01*
X112919000Y-75776184D01*
X112951703Y-75611772D01*
X113015853Y-75456900D01*
X113108985Y-75317519D01*
X113227519Y-75198985D01*
X113366900Y-75105853D01*
X113521772Y-75041703D01*
X113686184Y-75009000D01*
X113853816Y-75009000D01*
X114018228Y-75041703D01*
X114018228Y-75041703D01*
G37*
G36*
X116308228Y-75041703D02*
X116463100Y-75105853D01*
X116602481Y-75198985D01*
X116721015Y-75317519D01*
X116814147Y-75456900D01*
X116878297Y-75611772D01*
X116911000Y-75776184D01*
X116911000Y-75943816D01*
X116878297Y-76108228D01*
X116814147Y-76263100D01*
X116721015Y-76402481D01*
X116602481Y-76521015D01*
X116463100Y-76614147D01*
X116308228Y-76678297D01*
X116143816Y-76711000D01*
X115976184Y-76711000D01*
X115811772Y-76678297D01*
X115656900Y-76614147D01*
X115517519Y-76521015D01*
X115398985Y-76402481D01*
X115305853Y-76263100D01*
X115241703Y-76108228D01*
X115209000Y-75943816D01*
X115209000Y-75776184D01*
X115241703Y-75611772D01*
X115305853Y-75456900D01*
X115398985Y-75317519D01*
X115517519Y-75198985D01*
X115656900Y-75105853D01*
X115811772Y-75041703D01*
X115976184Y-75009000D01*
X116143816Y-75009000D01*
X116308228Y-75041703D01*
X116308228Y-75041703D01*
G37*
G36*
X118598228Y-75041703D02*
X118753100Y-75105853D01*
X118892481Y-75198985D01*
X119011015Y-75317519D01*
X119104147Y-75456900D01*
X119168297Y-75611772D01*
X119201000Y-75776184D01*
X119201000Y-75943816D01*
X119168297Y-76108228D01*
X119104147Y-76263100D01*
X119011015Y-76402481D01*
X118892481Y-76521015D01*
X118753100Y-76614147D01*
X118598228Y-76678297D01*
X118433816Y-76711000D01*
X118266184Y-76711000D01*
X118101772Y-76678297D01*
X117946900Y-76614147D01*
X117807519Y-76521015D01*
X117688985Y-76402481D01*
X117595853Y-76263100D01*
X117531703Y-76108228D01*
X117499000Y-75943816D01*
X117499000Y-75776184D01*
X117531703Y-75611772D01*
X117595853Y-75456900D01*
X117688985Y-75317519D01*
X117807519Y-75198985D01*
X117946900Y-75105853D01*
X118101772Y-75041703D01*
X118266184Y-75009000D01*
X118433816Y-75009000D01*
X118598228Y-75041703D01*
X118598228Y-75041703D01*
G37*
G36*
X101603252Y-71347818D02*
X101603254Y-71347819D01*
X101603255Y-71347819D01*
X101976513Y-71502427D01*
X102023985Y-71534147D01*
X102312439Y-71726886D01*
X102598114Y-72012561D01*
X102598116Y-72012564D01*
X102822573Y-72348487D01*
X102912609Y-72565854D01*
X102977182Y-72721748D01*
X103056000Y-73117993D01*
X103056000Y-73522007D01*
X102988276Y-73862481D01*
X102977181Y-73918255D01*
X102822573Y-74291513D01*
X102822572Y-74291514D01*
X102598114Y-74627439D01*
X102312439Y-74913114D01*
X102312436Y-74913116D01*
X101976513Y-75137573D01*
X101603255Y-75292181D01*
X101603254Y-75292181D01*
X101603252Y-75292182D01*
X101207007Y-75371000D01*
X100802993Y-75371000D01*
X100406748Y-75292182D01*
X100406746Y-75292181D01*
X100406745Y-75292181D01*
X100033487Y-75137573D01*
X99697564Y-74913116D01*
X99697561Y-74913114D01*
X99411886Y-74627439D01*
X99187428Y-74291514D01*
X99187427Y-74291513D01*
X99032819Y-73918255D01*
X99021725Y-73862481D01*
X98954000Y-73522007D01*
X98954000Y-73117993D01*
X99032818Y-72721748D01*
X99097391Y-72565854D01*
X99187427Y-72348487D01*
X99411884Y-72012564D01*
X99411886Y-72012561D01*
X99697561Y-71726886D01*
X99986015Y-71534147D01*
X100033487Y-71502427D01*
X100406745Y-71347819D01*
X100406746Y-71347819D01*
X100406748Y-71347818D01*
X100802993Y-71269000D01*
X101207007Y-71269000D01*
X101603252Y-71347818D01*
X101603252Y-71347818D01*
G37*
G36*
X126603252Y-71347818D02*
X126603254Y-71347819D01*
X126603255Y-71347819D01*
X126976513Y-71502427D01*
X127023985Y-71534147D01*
X127312439Y-71726886D01*
X127598114Y-72012561D01*
X127598116Y-72012564D01*
X127822573Y-72348487D01*
X127912609Y-72565854D01*
X127977182Y-72721748D01*
X128056000Y-73117993D01*
X128056000Y-73522007D01*
X127988276Y-73862481D01*
X127977181Y-73918255D01*
X127822573Y-74291513D01*
X127822572Y-74291514D01*
X127598114Y-74627439D01*
X127312439Y-74913114D01*
X127312436Y-74913116D01*
X126976513Y-75137573D01*
X126603255Y-75292181D01*
X126603254Y-75292181D01*
X126603252Y-75292182D01*
X126207007Y-75371000D01*
X125802993Y-75371000D01*
X125406748Y-75292182D01*
X125406746Y-75292181D01*
X125406745Y-75292181D01*
X125033487Y-75137573D01*
X124697564Y-74913116D01*
X124697561Y-74913114D01*
X124411886Y-74627439D01*
X124187428Y-74291514D01*
X124187427Y-74291513D01*
X124032819Y-73918255D01*
X124021725Y-73862481D01*
X123954000Y-73522007D01*
X123954000Y-73117993D01*
X124032818Y-72721748D01*
X124097391Y-72565854D01*
X124187427Y-72348487D01*
X124411884Y-72012564D01*
X124411886Y-72012561D01*
X124697561Y-71726886D01*
X124986015Y-71534147D01*
X125033487Y-71502427D01*
X125406745Y-71347819D01*
X125406746Y-71347819D01*
X125406748Y-71347818D01*
X125802993Y-71269000D01*
X126207007Y-71269000D01*
X126603252Y-71347818D01*
X126603252Y-71347818D01*
G37*
G36*
X108293228Y-72501703D02*
X108448100Y-72565853D01*
X108587481Y-72658985D01*
X108706015Y-72777519D01*
X108799147Y-72916900D01*
X108863297Y-73071772D01*
X108896000Y-73236184D01*
X108896000Y-73403816D01*
X108863297Y-73568228D01*
X108799147Y-73723100D01*
X108706015Y-73862481D01*
X108587481Y-73981015D01*
X108448100Y-74074147D01*
X108293228Y-74138297D01*
X108128816Y-74171000D01*
X107961184Y-74171000D01*
X107796772Y-74138297D01*
X107641900Y-74074147D01*
X107502519Y-73981015D01*
X107383985Y-73862481D01*
X107290853Y-73723100D01*
X107226703Y-73568228D01*
X107194000Y-73403816D01*
X107194000Y-73236184D01*
X107226703Y-73071772D01*
X107290853Y-72916900D01*
X107383985Y-72777519D01*
X107502519Y-72658985D01*
X107641900Y-72565853D01*
X107796772Y-72501703D01*
X107961184Y-72469000D01*
X108128816Y-72469000D01*
X108293228Y-72501703D01*
X108293228Y-72501703D01*
G37*
G36*
X110583228Y-72501703D02*
X110738100Y-72565853D01*
X110877481Y-72658985D01*
X110996015Y-72777519D01*
X111089147Y-72916900D01*
X111153297Y-73071772D01*
X111186000Y-73236184D01*
X111186000Y-73403816D01*
X111153297Y-73568228D01*
X111089147Y-73723100D01*
X110996015Y-73862481D01*
X110877481Y-73981015D01*
X110738100Y-74074147D01*
X110583228Y-74138297D01*
X110418816Y-74171000D01*
X110251184Y-74171000D01*
X110086772Y-74138297D01*
X109931900Y-74074147D01*
X109792519Y-73981015D01*
X109673985Y-73862481D01*
X109580853Y-73723100D01*
X109516703Y-73568228D01*
X109484000Y-73403816D01*
X109484000Y-73236184D01*
X109516703Y-73071772D01*
X109580853Y-72916900D01*
X109673985Y-72777519D01*
X109792519Y-72658985D01*
X109931900Y-72565853D01*
X110086772Y-72501703D01*
X110251184Y-72469000D01*
X110418816Y-72469000D01*
X110583228Y-72501703D01*
X110583228Y-72501703D01*
G37*
G36*
X112873228Y-72501703D02*
X113028100Y-72565853D01*
X113167481Y-72658985D01*
X113286015Y-72777519D01*
X113379147Y-72916900D01*
X113443297Y-73071772D01*
X113476000Y-73236184D01*
X113476000Y-73403816D01*
X113443297Y-73568228D01*
X113379147Y-73723100D01*
X113286015Y-73862481D01*
X113167481Y-73981015D01*
X113028100Y-74074147D01*
X112873228Y-74138297D01*
X112708816Y-74171000D01*
X112541184Y-74171000D01*
X112376772Y-74138297D01*
X112221900Y-74074147D01*
X112082519Y-73981015D01*
X111963985Y-73862481D01*
X111870853Y-73723100D01*
X111806703Y-73568228D01*
X111774000Y-73403816D01*
X111774000Y-73236184D01*
X111806703Y-73071772D01*
X111870853Y-72916900D01*
X111963985Y-72777519D01*
X112082519Y-72658985D01*
X112221900Y-72565853D01*
X112376772Y-72501703D01*
X112541184Y-72469000D01*
X112708816Y-72469000D01*
X112873228Y-72501703D01*
X112873228Y-72501703D01*
G37*
G36*
X115163228Y-72501703D02*
X115318100Y-72565853D01*
X115457481Y-72658985D01*
X115576015Y-72777519D01*
X115669147Y-72916900D01*
X115733297Y-73071772D01*
X115766000Y-73236184D01*
X115766000Y-73403816D01*
X115733297Y-73568228D01*
X115669147Y-73723100D01*
X115576015Y-73862481D01*
X115457481Y-73981015D01*
X115318100Y-74074147D01*
X115163228Y-74138297D01*
X114998816Y-74171000D01*
X114831184Y-74171000D01*
X114666772Y-74138297D01*
X114511900Y-74074147D01*
X114372519Y-73981015D01*
X114253985Y-73862481D01*
X114160853Y-73723100D01*
X114096703Y-73568228D01*
X114064000Y-73403816D01*
X114064000Y-73236184D01*
X114096703Y-73071772D01*
X114160853Y-72916900D01*
X114253985Y-72777519D01*
X114372519Y-72658985D01*
X114511900Y-72565853D01*
X114666772Y-72501703D01*
X114831184Y-72469000D01*
X114998816Y-72469000D01*
X115163228Y-72501703D01*
X115163228Y-72501703D01*
G37*
G36*
X117453228Y-72501703D02*
X117608100Y-72565853D01*
X117747481Y-72658985D01*
X117866015Y-72777519D01*
X117959147Y-72916900D01*
X118023297Y-73071772D01*
X118056000Y-73236184D01*
X118056000Y-73403816D01*
X118023297Y-73568228D01*
X117959147Y-73723100D01*
X117866015Y-73862481D01*
X117747481Y-73981015D01*
X117608100Y-74074147D01*
X117453228Y-74138297D01*
X117288816Y-74171000D01*
X117121184Y-74171000D01*
X116956772Y-74138297D01*
X116801900Y-74074147D01*
X116662519Y-73981015D01*
X116543985Y-73862481D01*
X116450853Y-73723100D01*
X116386703Y-73568228D01*
X116354000Y-73403816D01*
X116354000Y-73236184D01*
X116386703Y-73071772D01*
X116450853Y-72916900D01*
X116543985Y-72777519D01*
X116662519Y-72658985D01*
X116801900Y-72565853D01*
X116956772Y-72501703D01*
X117121184Y-72469000D01*
X117288816Y-72469000D01*
X117453228Y-72501703D01*
X117453228Y-72501703D01*
G37*
G36*
X116308228Y-69961703D02*
X116463100Y-70025853D01*
X116602481Y-70118985D01*
X116721015Y-70237519D01*
X116814147Y-70376900D01*
X116878297Y-70531772D01*
X116911000Y-70696184D01*
X116911000Y-70863816D01*
X116878297Y-71028228D01*
X116814147Y-71183100D01*
X116721015Y-71322481D01*
X116602481Y-71441015D01*
X116463100Y-71534147D01*
X116308228Y-71598297D01*
X116143816Y-71631000D01*
X115976184Y-71631000D01*
X115811772Y-71598297D01*
X115656900Y-71534147D01*
X115517519Y-71441015D01*
X115398985Y-71322481D01*
X115305853Y-71183100D01*
X115241703Y-71028228D01*
X115209000Y-70863816D01*
X115209000Y-70696184D01*
X115241703Y-70531772D01*
X115305853Y-70376900D01*
X115398985Y-70237519D01*
X115517519Y-70118985D01*
X115656900Y-70025853D01*
X115811772Y-69961703D01*
X115976184Y-69929000D01*
X116143816Y-69929000D01*
X116308228Y-69961703D01*
X116308228Y-69961703D01*
G37*
G36*
X109438228Y-69961703D02*
X109593100Y-70025853D01*
X109732481Y-70118985D01*
X109851015Y-70237519D01*
X109944147Y-70376900D01*
X110008297Y-70531772D01*
X110041000Y-70696184D01*
X110041000Y-70863816D01*
X110008297Y-71028228D01*
X109944147Y-71183100D01*
X109851015Y-71322481D01*
X109732481Y-71441015D01*
X109593100Y-71534147D01*
X109438228Y-71598297D01*
X109273816Y-71631000D01*
X109106184Y-71631000D01*
X108941772Y-71598297D01*
X108786900Y-71534147D01*
X108647519Y-71441015D01*
X108528985Y-71322481D01*
X108435853Y-71183100D01*
X108371703Y-71028228D01*
X108339000Y-70863816D01*
X108339000Y-70696184D01*
X108371703Y-70531772D01*
X108435853Y-70376900D01*
X108528985Y-70237519D01*
X108647519Y-70118985D01*
X108786900Y-70025853D01*
X108941772Y-69961703D01*
X109106184Y-69929000D01*
X109273816Y-69929000D01*
X109438228Y-69961703D01*
X109438228Y-69961703D01*
G37*
G36*
X111728228Y-69961703D02*
X111883100Y-70025853D01*
X112022481Y-70118985D01*
X112141015Y-70237519D01*
X112234147Y-70376900D01*
X112298297Y-70531772D01*
X112331000Y-70696184D01*
X112331000Y-70863816D01*
X112298297Y-71028228D01*
X112234147Y-71183100D01*
X112141015Y-71322481D01*
X112022481Y-71441015D01*
X111883100Y-71534147D01*
X111728228Y-71598297D01*
X111563816Y-71631000D01*
X111396184Y-71631000D01*
X111231772Y-71598297D01*
X111076900Y-71534147D01*
X110937519Y-71441015D01*
X110818985Y-71322481D01*
X110725853Y-71183100D01*
X110661703Y-71028228D01*
X110629000Y-70863816D01*
X110629000Y-70696184D01*
X110661703Y-70531772D01*
X110725853Y-70376900D01*
X110818985Y-70237519D01*
X110937519Y-70118985D01*
X111076900Y-70025853D01*
X111231772Y-69961703D01*
X111396184Y-69929000D01*
X111563816Y-69929000D01*
X111728228Y-69961703D01*
X111728228Y-69961703D01*
G37*
G36*
X114018228Y-69961703D02*
X114173100Y-70025853D01*
X114312481Y-70118985D01*
X114431015Y-70237519D01*
X114524147Y-70376900D01*
X114588297Y-70531772D01*
X114621000Y-70696184D01*
X114621000Y-70863816D01*
X114588297Y-71028228D01*
X114524147Y-71183100D01*
X114431015Y-71322481D01*
X114312481Y-71441015D01*
X114173100Y-71534147D01*
X114018228Y-71598297D01*
X113853816Y-71631000D01*
X113686184Y-71631000D01*
X113521772Y-71598297D01*
X113366900Y-71534147D01*
X113227519Y-71441015D01*
X113108985Y-71322481D01*
X113015853Y-71183100D01*
X112951703Y-71028228D01*
X112919000Y-70863816D01*
X112919000Y-70696184D01*
X112951703Y-70531772D01*
X113015853Y-70376900D01*
X113108985Y-70237519D01*
X113227519Y-70118985D01*
X113366900Y-70025853D01*
X113521772Y-69961703D01*
X113686184Y-69929000D01*
X113853816Y-69929000D01*
X114018228Y-69961703D01*
X114018228Y-69961703D01*
G37*
G36*
X118598228Y-69961703D02*
X118753100Y-70025853D01*
X118892481Y-70118985D01*
X119011015Y-70237519D01*
X119104147Y-70376900D01*
X119168297Y-70531772D01*
X119201000Y-70696184D01*
X119201000Y-70863816D01*
X119168297Y-71028228D01*
X119104147Y-71183100D01*
X119011015Y-71322481D01*
X118892481Y-71441015D01*
X118753100Y-71534147D01*
X118598228Y-71598297D01*
X118433816Y-71631000D01*
X118266184Y-71631000D01*
X118101772Y-71598297D01*
X117946900Y-71534147D01*
X117807519Y-71441015D01*
X117688985Y-71322481D01*
X117595853Y-71183100D01*
X117531703Y-71028228D01*
X117499000Y-70863816D01*
X117499000Y-70696184D01*
X117531703Y-70531772D01*
X117595853Y-70376900D01*
X117688985Y-70237519D01*
X117807519Y-70118985D01*
X117946900Y-70025853D01*
X118101772Y-69961703D01*
X118266184Y-69929000D01*
X118433816Y-69929000D01*
X118598228Y-69961703D01*
X118598228Y-69961703D01*
G37*
G36*
X93525331Y-64648211D02*
X93853092Y-64783974D01*
X94148073Y-64981074D01*
X94398926Y-65231927D01*
X94596026Y-65526908D01*
X94731789Y-65854669D01*
X94801000Y-66202616D01*
X94801000Y-66557384D01*
X94731789Y-66905331D01*
X94596026Y-67233092D01*
X94398926Y-67528073D01*
X94148073Y-67778926D01*
X93853092Y-67976026D01*
X93525331Y-68111789D01*
X93177384Y-68181000D01*
X92822616Y-68181000D01*
X92474669Y-68111789D01*
X92146908Y-67976026D01*
X91851927Y-67778926D01*
X91601074Y-67528073D01*
X91403974Y-67233092D01*
X91268211Y-66905331D01*
X91199000Y-66557384D01*
X91199000Y-66202616D01*
X91268211Y-65854669D01*
X91403974Y-65526908D01*
X91601074Y-65231927D01*
X91851927Y-64981074D01*
X92146908Y-64783974D01*
X92474669Y-64648211D01*
X92822616Y-64579000D01*
X93177384Y-64579000D01*
X93525331Y-64648211D01*
X93525331Y-64648211D01*
G37*
G36*
X134525331Y-64648211D02*
X134853092Y-64783974D01*
X135148073Y-64981074D01*
X135398926Y-65231927D01*
X135596026Y-65526908D01*
X135731789Y-65854669D01*
X135801000Y-66202616D01*
X135801000Y-66557384D01*
X135731789Y-66905331D01*
X135596026Y-67233092D01*
X135398926Y-67528073D01*
X135148073Y-67778926D01*
X134853092Y-67976026D01*
X134525331Y-68111789D01*
X134177384Y-68181000D01*
X133822616Y-68181000D01*
X133474669Y-68111789D01*
X133146908Y-67976026D01*
X132851927Y-67778926D01*
X132601074Y-67528073D01*
X132403974Y-67233092D01*
X132268211Y-66905331D01*
X132199000Y-66557384D01*
X132199000Y-66202616D01*
X132268211Y-65854669D01*
X132403974Y-65526908D01*
X132601074Y-65231927D01*
X132851927Y-64981074D01*
X133146908Y-64783974D01*
X133474669Y-64648211D01*
X133822616Y-64579000D01*
X134177384Y-64579000D01*
X134525331Y-64648211D01*
X134525331Y-64648211D01*
G37*
M02*
