M48
;DRILL file {KiCad (5.0.2)-1} date 14.02.2019 19:53:06
;FORMAT={-:-/ absolute / inch / decimal}
FMAT,2
INCH,TZ
T1C0.0374
T2C0.0394
T3C0.0433
T4C0.1260
T5C0.1378
%
G90
G05
T1
X4.1264Y-3.8976
X4.2248Y-3.8976
X4.3232Y-3.8976
X4.6173Y-3.8976
X4.7157Y-3.8976
X4.8142Y-3.8976
T2
X4.2537Y-2.8866
X4.2988Y-2.7866
X4.2988Y-2.9866
X4.3439Y-2.8866
X4.389Y-2.7866
X4.389Y-2.9866
X4.4341Y-2.8866
X4.4791Y-2.7866
X4.4791Y-2.9866
X4.5242Y-2.8866
X4.5693Y-2.7866
X4.5693Y-2.9866
X4.6144Y-2.8866
X4.6594Y-2.7866
X4.6594Y-2.9866
X4.8374Y-3.3346
X4.8374Y-3.4331
X3.6622Y-3.3346
X3.6622Y-3.4331
X5.2783Y-3.3346
X5.2783Y-3.4331
X5.2783Y-2.9976
X5.2783Y-3.0961
X4.1094Y-3.3346
X4.1094Y-3.4331
T3
X3.6287Y-3.8169
X3.8287Y-3.8169
X5.1122Y-3.8169
X5.3122Y-3.8169
T4
X3.9766Y-2.8866
X4.9608Y-2.8866
T5
X5.2756Y-2.6134
X3.6614Y-2.6134
X4.4685Y-3.4815
T0
M30
