%TF.GenerationSoftware,KiCad,Pcbnew,(5.0.2)-1*%
%TF.CreationDate,2019-02-13T20:03:15+01:00*%
%TF.ProjectId,VGA-Terminal_XT,5647412d-5465-4726-9d69-6e616c5f5854,rev?*%
%TF.SameCoordinates,Original*%
%TF.FileFunction,Legend,Top*%
%TF.FilePolarity,Positive*%
%FSLAX46Y46*%
G04 Gerber Fmt 4.6, Leading zero omitted, Abs format (unit mm)*
G04 Created by KiCad (PCBNEW (5.0.2)-1) date 13.02.2019 20:03:15*
%MOMM*%
%LPD*%
G01*
G04 APERTURE LIST*
%ADD10C,0.300000*%
%ADD11C,0.275000*%
%ADD12C,0.120000*%
%ADD13C,0.150000*%
G04 APERTURE END LIST*
D10*
X128971428Y-78747142D02*
X127828571Y-78747142D01*
X128951428Y-81197142D02*
X127808571Y-81197142D01*
X128380000Y-81768571D02*
X128380000Y-80625714D01*
X129001428Y-87097142D02*
X127858571Y-87097142D01*
X128971428Y-89847142D02*
X127828571Y-89847142D01*
X128400000Y-90418571D02*
X128400000Y-89275714D01*
D11*
X130537619Y-105157142D02*
X129437619Y-105157142D01*
X129437619Y-104738094D01*
X129490000Y-104633332D01*
X129542380Y-104580951D01*
X129647142Y-104528570D01*
X129804285Y-104528570D01*
X129909047Y-104580951D01*
X129961428Y-104633332D01*
X130013809Y-104738094D01*
X130013809Y-105157142D01*
X130537619Y-103480951D02*
X130537619Y-104109523D01*
X130537619Y-103795237D02*
X129437619Y-103795237D01*
X129594761Y-103899999D01*
X129699523Y-104004761D01*
X129751904Y-104109523D01*
X129804285Y-102538094D02*
X130537619Y-102538094D01*
X129385238Y-102799999D02*
X130170952Y-103061904D01*
X130170952Y-102380951D01*
X132260000Y-104738095D02*
X132207619Y-104842857D01*
X132207619Y-105000000D01*
X132260000Y-105157142D01*
X132364761Y-105261904D01*
X132469523Y-105314285D01*
X132679047Y-105366666D01*
X132836190Y-105366666D01*
X133045714Y-105314285D01*
X133150476Y-105261904D01*
X133255238Y-105157142D01*
X133307619Y-105000000D01*
X133307619Y-104895238D01*
X133255238Y-104738095D01*
X133202857Y-104685714D01*
X132836190Y-104685714D01*
X132836190Y-104895238D01*
X133307619Y-104214285D02*
X132207619Y-104214285D01*
X133307619Y-103585714D01*
X132207619Y-103585714D01*
X133307619Y-103061904D02*
X132207619Y-103061904D01*
X132207619Y-102800000D01*
X132260000Y-102642857D01*
X132364761Y-102538095D01*
X132469523Y-102485714D01*
X132679047Y-102433333D01*
X132836190Y-102433333D01*
X133045714Y-102485714D01*
X133150476Y-102538095D01*
X133255238Y-102642857D01*
X133307619Y-102800000D01*
X133307619Y-103061904D01*
X121930000Y-104738095D02*
X121877619Y-104842857D01*
X121877619Y-105000000D01*
X121930000Y-105157142D01*
X122034761Y-105261904D01*
X122139523Y-105314285D01*
X122349047Y-105366666D01*
X122506190Y-105366666D01*
X122715714Y-105314285D01*
X122820476Y-105261904D01*
X122925238Y-105157142D01*
X122977619Y-105000000D01*
X122977619Y-104895238D01*
X122925238Y-104738095D01*
X122872857Y-104685714D01*
X122506190Y-104685714D01*
X122506190Y-104895238D01*
X122977619Y-104214285D02*
X121877619Y-104214285D01*
X122977619Y-103585714D01*
X121877619Y-103585714D01*
X122977619Y-103061904D02*
X121877619Y-103061904D01*
X121877619Y-102800000D01*
X121930000Y-102642857D01*
X122034761Y-102538095D01*
X122139523Y-102485714D01*
X122349047Y-102433333D01*
X122506190Y-102433333D01*
X122715714Y-102485714D01*
X122820476Y-102538095D01*
X122925238Y-102642857D01*
X122977619Y-102800000D01*
X122977619Y-103061904D01*
X120295238Y-104580952D02*
X120347619Y-104423809D01*
X120347619Y-104161904D01*
X120295238Y-104057143D01*
X120242857Y-104004762D01*
X120138095Y-103952381D01*
X120033333Y-103952381D01*
X119928571Y-104004762D01*
X119876190Y-104057143D01*
X119823809Y-104161904D01*
X119771428Y-104371428D01*
X119719047Y-104476190D01*
X119666666Y-104528571D01*
X119561904Y-104580952D01*
X119457142Y-104580952D01*
X119352380Y-104528571D01*
X119300000Y-104476190D01*
X119247619Y-104371428D01*
X119247619Y-104109523D01*
X119300000Y-103952381D01*
X120347619Y-103480952D02*
X119614285Y-103480952D01*
X119247619Y-103480952D02*
X119300000Y-103533333D01*
X119352380Y-103480952D01*
X119300000Y-103428571D01*
X119247619Y-103480952D01*
X119352380Y-103480952D01*
X119614285Y-102485714D02*
X120504761Y-102485714D01*
X120609523Y-102538095D01*
X120661904Y-102590476D01*
X120714285Y-102695238D01*
X120714285Y-102852381D01*
X120661904Y-102957143D01*
X120295238Y-102485714D02*
X120347619Y-102590476D01*
X120347619Y-102800000D01*
X120295238Y-102904762D01*
X120242857Y-102957143D01*
X120138095Y-103009523D01*
X119823809Y-103009523D01*
X119719047Y-102957143D01*
X119666666Y-102904762D01*
X119614285Y-102800000D01*
X119614285Y-102590476D01*
X119666666Y-102485714D01*
X116687619Y-104947618D02*
X117787619Y-104580952D01*
X116687619Y-104214285D01*
X117735238Y-103376190D02*
X117787619Y-103480952D01*
X117787619Y-103690475D01*
X117735238Y-103795237D01*
X117682857Y-103847618D01*
X117578095Y-103899999D01*
X117263809Y-103899999D01*
X117159047Y-103847618D01*
X117106666Y-103795237D01*
X117054285Y-103690475D01*
X117054285Y-103480952D01*
X117106666Y-103376190D01*
X117735238Y-102433333D02*
X117787619Y-102538095D01*
X117787619Y-102747618D01*
X117735238Y-102852380D01*
X117682857Y-102904761D01*
X117578095Y-102957142D01*
X117263809Y-102957142D01*
X117159047Y-102904761D01*
X117106666Y-102852380D01*
X117054285Y-102747618D01*
X117054285Y-102538095D01*
X117106666Y-102433333D01*
X109070000Y-104738095D02*
X109017619Y-104842857D01*
X109017619Y-105000000D01*
X109070000Y-105157142D01*
X109174761Y-105261904D01*
X109279523Y-105314285D01*
X109489047Y-105366666D01*
X109646190Y-105366666D01*
X109855714Y-105314285D01*
X109960476Y-105261904D01*
X110065238Y-105157142D01*
X110117619Y-105000000D01*
X110117619Y-104895238D01*
X110065238Y-104738095D01*
X110012857Y-104685714D01*
X109646190Y-104685714D01*
X109646190Y-104895238D01*
X110117619Y-104214285D02*
X109017619Y-104214285D01*
X110117619Y-103585714D01*
X109017619Y-103585714D01*
X110117619Y-103061904D02*
X109017619Y-103061904D01*
X109017619Y-102800000D01*
X109070000Y-102642857D01*
X109174761Y-102538095D01*
X109279523Y-102485714D01*
X109489047Y-102433333D01*
X109646190Y-102433333D01*
X109855714Y-102485714D01*
X109960476Y-102538095D01*
X110065238Y-102642857D01*
X110117619Y-102800000D01*
X110117619Y-103061904D01*
X107435238Y-104580952D02*
X107487619Y-104423809D01*
X107487619Y-104161904D01*
X107435238Y-104057143D01*
X107382857Y-104004762D01*
X107278095Y-103952381D01*
X107173333Y-103952381D01*
X107068571Y-104004762D01*
X107016190Y-104057143D01*
X106963809Y-104161904D01*
X106911428Y-104371428D01*
X106859047Y-104476190D01*
X106806666Y-104528571D01*
X106701904Y-104580952D01*
X106597142Y-104580952D01*
X106492380Y-104528571D01*
X106440000Y-104476190D01*
X106387619Y-104371428D01*
X106387619Y-104109523D01*
X106440000Y-103952381D01*
X107487619Y-103480952D02*
X106754285Y-103480952D01*
X106387619Y-103480952D02*
X106440000Y-103533333D01*
X106492380Y-103480952D01*
X106440000Y-103428571D01*
X106387619Y-103480952D01*
X106492380Y-103480952D01*
X106754285Y-102485714D02*
X107644761Y-102485714D01*
X107749523Y-102538095D01*
X107801904Y-102590476D01*
X107854285Y-102695238D01*
X107854285Y-102852381D01*
X107801904Y-102957143D01*
X107435238Y-102485714D02*
X107487619Y-102590476D01*
X107487619Y-102800000D01*
X107435238Y-102904762D01*
X107382857Y-102957143D01*
X107278095Y-103009523D01*
X106963809Y-103009523D01*
X106859047Y-102957143D01*
X106806666Y-102904762D01*
X106754285Y-102800000D01*
X106754285Y-102590476D01*
X106806666Y-102485714D01*
X103827619Y-104947618D02*
X104927619Y-104580952D01*
X103827619Y-104214285D01*
X104875238Y-103376190D02*
X104927619Y-103480952D01*
X104927619Y-103690475D01*
X104875238Y-103795237D01*
X104822857Y-103847618D01*
X104718095Y-103899999D01*
X104403809Y-103899999D01*
X104299047Y-103847618D01*
X104246666Y-103795237D01*
X104194285Y-103690475D01*
X104194285Y-103480952D01*
X104246666Y-103376190D01*
X104875238Y-102433333D02*
X104927619Y-102538095D01*
X104927619Y-102747618D01*
X104875238Y-102852380D01*
X104822857Y-102904761D01*
X104718095Y-102957142D01*
X104403809Y-102957142D01*
X104299047Y-102904761D01*
X104246666Y-102852380D01*
X104194285Y-102747618D01*
X104194285Y-102538095D01*
X104246666Y-102433333D01*
D10*
X98561428Y-103017142D02*
X97418571Y-103017142D01*
X93901428Y-103047142D02*
X92758571Y-103047142D01*
X93330000Y-103618571D02*
X93330000Y-102475714D01*
D12*
X137630000Y-75770000D02*
X136380000Y-75770000D01*
X137630000Y-77020000D02*
X137630000Y-75770000D01*
X132130000Y-82920000D02*
X132130000Y-79870000D01*
X135080000Y-82920000D02*
X132130000Y-82920000D01*
X135080000Y-83670000D02*
X135080000Y-82920000D01*
X132130000Y-76820000D02*
X132130000Y-79870000D01*
X135080000Y-76820000D02*
X132130000Y-76820000D01*
X135080000Y-76070000D02*
X135080000Y-76820000D01*
X137330000Y-83670000D02*
X137330000Y-81870000D01*
X136580000Y-83670000D02*
X137330000Y-83670000D01*
X136580000Y-81870000D02*
X136580000Y-83670000D01*
X137330000Y-81870000D02*
X136580000Y-81870000D01*
X137330000Y-77870000D02*
X137330000Y-76070000D01*
X136580000Y-77870000D02*
X137330000Y-77870000D01*
X136580000Y-76070000D02*
X136580000Y-77870000D01*
X137330000Y-76070000D02*
X136580000Y-76070000D01*
X137330000Y-80370000D02*
X137330000Y-79370000D01*
X136580000Y-80370000D02*
X137330000Y-80370000D01*
X136580000Y-79370000D02*
X136580000Y-80370000D01*
X137330000Y-79370000D02*
X136580000Y-79370000D01*
X137340000Y-83680000D02*
X137340000Y-76060000D01*
X131370000Y-83680000D02*
X137340000Y-83680000D01*
X131370000Y-76060000D02*
X131370000Y-83680000D01*
X137340000Y-76060000D02*
X131370000Y-76060000D01*
X137350000Y-84670000D02*
X131380000Y-84670000D01*
X131380000Y-84670000D02*
X131380000Y-92290000D01*
X131380000Y-92290000D02*
X137350000Y-92290000D01*
X137350000Y-92290000D02*
X137350000Y-84670000D01*
X137340000Y-87980000D02*
X136590000Y-87980000D01*
X136590000Y-87980000D02*
X136590000Y-88980000D01*
X136590000Y-88980000D02*
X137340000Y-88980000D01*
X137340000Y-88980000D02*
X137340000Y-87980000D01*
X137340000Y-84680000D02*
X136590000Y-84680000D01*
X136590000Y-84680000D02*
X136590000Y-86480000D01*
X136590000Y-86480000D02*
X137340000Y-86480000D01*
X137340000Y-86480000D02*
X137340000Y-84680000D01*
X137340000Y-90480000D02*
X136590000Y-90480000D01*
X136590000Y-90480000D02*
X136590000Y-92280000D01*
X136590000Y-92280000D02*
X137340000Y-92280000D01*
X137340000Y-92280000D02*
X137340000Y-90480000D01*
X135090000Y-84680000D02*
X135090000Y-85430000D01*
X135090000Y-85430000D02*
X132140000Y-85430000D01*
X132140000Y-85430000D02*
X132140000Y-88480000D01*
X135090000Y-92280000D02*
X135090000Y-91530000D01*
X135090000Y-91530000D02*
X132140000Y-91530000D01*
X132140000Y-91530000D02*
X132140000Y-88480000D01*
X137640000Y-85630000D02*
X137640000Y-84380000D01*
X137640000Y-84380000D02*
X136390000Y-84380000D01*
X135530000Y-101850000D02*
X135530000Y-100600000D01*
X134280000Y-101850000D02*
X135530000Y-101850000D01*
X128380000Y-96350000D02*
X131430000Y-96350000D01*
X128380000Y-99300000D02*
X128380000Y-96350000D01*
X127630000Y-99300000D02*
X128380000Y-99300000D01*
X134480000Y-96350000D02*
X131430000Y-96350000D01*
X134480000Y-99300000D02*
X134480000Y-96350000D01*
X135230000Y-99300000D02*
X134480000Y-99300000D01*
X127630000Y-101550000D02*
X129430000Y-101550000D01*
X127630000Y-100800000D02*
X127630000Y-101550000D01*
X129430000Y-100800000D02*
X127630000Y-100800000D01*
X129430000Y-101550000D02*
X129430000Y-100800000D01*
X133430000Y-101550000D02*
X135230000Y-101550000D01*
X133430000Y-100800000D02*
X133430000Y-101550000D01*
X135230000Y-100800000D02*
X133430000Y-100800000D01*
X135230000Y-101550000D02*
X135230000Y-100800000D01*
X130930000Y-101550000D02*
X131930000Y-101550000D01*
X130930000Y-100800000D02*
X130930000Y-101550000D01*
X131930000Y-100800000D02*
X130930000Y-100800000D01*
X131930000Y-101550000D02*
X131930000Y-100800000D01*
X127620000Y-101560000D02*
X135240000Y-101560000D01*
X127620000Y-95590000D02*
X127620000Y-101560000D01*
X135240000Y-95590000D02*
X127620000Y-95590000D01*
X135240000Y-101560000D02*
X135240000Y-95590000D01*
X99550000Y-101610000D02*
X99550000Y-95640000D01*
X99550000Y-95640000D02*
X91930000Y-95640000D01*
X91930000Y-95640000D02*
X91930000Y-101610000D01*
X91930000Y-101610000D02*
X99550000Y-101610000D01*
X96240000Y-101600000D02*
X96240000Y-100850000D01*
X96240000Y-100850000D02*
X95240000Y-100850000D01*
X95240000Y-100850000D02*
X95240000Y-101600000D01*
X95240000Y-101600000D02*
X96240000Y-101600000D01*
X99540000Y-101600000D02*
X99540000Y-100850000D01*
X99540000Y-100850000D02*
X97740000Y-100850000D01*
X97740000Y-100850000D02*
X97740000Y-101600000D01*
X97740000Y-101600000D02*
X99540000Y-101600000D01*
X93740000Y-101600000D02*
X93740000Y-100850000D01*
X93740000Y-100850000D02*
X91940000Y-100850000D01*
X91940000Y-100850000D02*
X91940000Y-101600000D01*
X91940000Y-101600000D02*
X93740000Y-101600000D01*
X99540000Y-99350000D02*
X98790000Y-99350000D01*
X98790000Y-99350000D02*
X98790000Y-96400000D01*
X98790000Y-96400000D02*
X95740000Y-96400000D01*
X91940000Y-99350000D02*
X92690000Y-99350000D01*
X92690000Y-99350000D02*
X92690000Y-96400000D01*
X92690000Y-96400000D02*
X95740000Y-96400000D01*
X98590000Y-101900000D02*
X99840000Y-101900000D01*
X99840000Y-101900000D02*
X99840000Y-100650000D01*
X125300000Y-101880000D02*
X125300000Y-100630000D01*
X124050000Y-101880000D02*
X125300000Y-101880000D01*
X115650000Y-96380000D02*
X119950000Y-96380000D01*
X115650000Y-99330000D02*
X115650000Y-96380000D01*
X114900000Y-99330000D02*
X115650000Y-99330000D01*
X124250000Y-96380000D02*
X119950000Y-96380000D01*
X124250000Y-99330000D02*
X124250000Y-96380000D01*
X125000000Y-99330000D02*
X124250000Y-99330000D01*
X114900000Y-101580000D02*
X116700000Y-101580000D01*
X114900000Y-100830000D02*
X114900000Y-101580000D01*
X116700000Y-100830000D02*
X114900000Y-100830000D01*
X116700000Y-101580000D02*
X116700000Y-100830000D01*
X123200000Y-101580000D02*
X125000000Y-101580000D01*
X123200000Y-100830000D02*
X123200000Y-101580000D01*
X125000000Y-100830000D02*
X123200000Y-100830000D01*
X125000000Y-101580000D02*
X125000000Y-100830000D01*
X118200000Y-101580000D02*
X121700000Y-101580000D01*
X118200000Y-100830000D02*
X118200000Y-101580000D01*
X121700000Y-100830000D02*
X118200000Y-100830000D01*
X121700000Y-101580000D02*
X121700000Y-100830000D01*
X114890000Y-101590000D02*
X125010000Y-101590000D01*
X114890000Y-95620000D02*
X114890000Y-101590000D01*
X125010000Y-95620000D02*
X114890000Y-95620000D01*
X125010000Y-101590000D02*
X125010000Y-95620000D01*
X112280000Y-101590000D02*
X112280000Y-95620000D01*
X112280000Y-95620000D02*
X102160000Y-95620000D01*
X102160000Y-95620000D02*
X102160000Y-101590000D01*
X102160000Y-101590000D02*
X112280000Y-101590000D01*
X108970000Y-101580000D02*
X108970000Y-100830000D01*
X108970000Y-100830000D02*
X105470000Y-100830000D01*
X105470000Y-100830000D02*
X105470000Y-101580000D01*
X105470000Y-101580000D02*
X108970000Y-101580000D01*
X112270000Y-101580000D02*
X112270000Y-100830000D01*
X112270000Y-100830000D02*
X110470000Y-100830000D01*
X110470000Y-100830000D02*
X110470000Y-101580000D01*
X110470000Y-101580000D02*
X112270000Y-101580000D01*
X103970000Y-101580000D02*
X103970000Y-100830000D01*
X103970000Y-100830000D02*
X102170000Y-100830000D01*
X102170000Y-100830000D02*
X102170000Y-101580000D01*
X102170000Y-101580000D02*
X103970000Y-101580000D01*
X112270000Y-99330000D02*
X111520000Y-99330000D01*
X111520000Y-99330000D02*
X111520000Y-96380000D01*
X111520000Y-96380000D02*
X107220000Y-96380000D01*
X102170000Y-99330000D02*
X102920000Y-99330000D01*
X102920000Y-99330000D02*
X102920000Y-96380000D01*
X102920000Y-96380000D02*
X107220000Y-96380000D01*
X111320000Y-101880000D02*
X112570000Y-101880000D01*
X112570000Y-101880000D02*
X112570000Y-100630000D01*
X89870000Y-80930000D02*
X95840000Y-80930000D01*
X95840000Y-80930000D02*
X95840000Y-73310000D01*
X95840000Y-73310000D02*
X89870000Y-73310000D01*
X89870000Y-73310000D02*
X89870000Y-80930000D01*
X89880000Y-77620000D02*
X90630000Y-77620000D01*
X90630000Y-77620000D02*
X90630000Y-76620000D01*
X90630000Y-76620000D02*
X89880000Y-76620000D01*
X89880000Y-76620000D02*
X89880000Y-77620000D01*
X89880000Y-80920000D02*
X90630000Y-80920000D01*
X90630000Y-80920000D02*
X90630000Y-79120000D01*
X90630000Y-79120000D02*
X89880000Y-79120000D01*
X89880000Y-79120000D02*
X89880000Y-80920000D01*
X89880000Y-75120000D02*
X90630000Y-75120000D01*
X90630000Y-75120000D02*
X90630000Y-73320000D01*
X90630000Y-73320000D02*
X89880000Y-73320000D01*
X89880000Y-73320000D02*
X89880000Y-75120000D01*
X92130000Y-80920000D02*
X92130000Y-80170000D01*
X92130000Y-80170000D02*
X95080000Y-80170000D01*
X95080000Y-80170000D02*
X95080000Y-77120000D01*
X92130000Y-73320000D02*
X92130000Y-74070000D01*
X92130000Y-74070000D02*
X95080000Y-74070000D01*
X95080000Y-74070000D02*
X95080000Y-77120000D01*
X89580000Y-79970000D02*
X89580000Y-81220000D01*
X89580000Y-81220000D02*
X90830000Y-81220000D01*
X96745275Y-89003129D02*
G75*
G02X96890000Y-89630000I-1285275J-626871D01*
G01*
X94832638Y-88344176D02*
G75*
G02X96087000Y-88344000I627362J-1285824D01*
G01*
X94174176Y-90257362D02*
G75*
G02X94174000Y-89003000I1285824J627362D01*
G01*
X96086746Y-90916611D02*
G75*
G02X94832000Y-90916000I-626746J1286611D01*
G01*
X96890940Y-89605720D02*
G75*
G02X96746000Y-90258000I-1430940J-24280D01*
G01*
X96890000Y-84550000D02*
G75*
G03X96890000Y-84550000I-1430000J0D01*
G01*
X99010000Y-92230000D02*
X99010000Y-81950000D01*
X97910000Y-92230000D02*
X97910000Y-81950000D01*
X92910000Y-92230000D02*
X92910000Y-81950000D01*
X91000000Y-92230000D02*
X91000000Y-81950000D01*
X99570000Y-92230000D02*
X99570000Y-81950000D01*
X91000000Y-92230000D02*
X99570000Y-92230000D01*
X91000000Y-81950000D02*
X99570000Y-81950000D01*
X91060000Y-90880000D02*
X91060000Y-88380000D01*
X92060000Y-90880000D02*
X92060000Y-88380000D01*
X91060000Y-90880000D02*
X92060000Y-90880000D01*
X91060000Y-88380000D02*
X92060000Y-88380000D01*
X94550000Y-83465000D02*
X94609000Y-83525000D01*
X96505000Y-85420000D02*
X96545000Y-85460000D01*
X94375000Y-83639000D02*
X94415000Y-83679000D01*
X96310000Y-85574000D02*
X96370000Y-85634000D01*
X91060000Y-85800000D02*
X91060000Y-83300000D01*
X92060000Y-85800000D02*
X92060000Y-83300000D01*
X91060000Y-85800000D02*
X92060000Y-85800000D01*
X91060000Y-83300000D02*
X92060000Y-83300000D01*
X99070000Y-92470000D02*
X99810000Y-92470000D01*
X99810000Y-92470000D02*
X99810000Y-91970000D01*
X109190000Y-76701325D02*
X109440000Y-77134338D01*
X108940000Y-77134338D02*
X109190000Y-76701325D01*
X109440000Y-77134338D02*
X108940000Y-77134338D01*
X98020000Y-77490000D02*
X98020000Y-62350000D01*
X128990000Y-77490000D02*
X98020000Y-77490000D01*
X128990000Y-62350000D02*
X128990000Y-77490000D01*
D13*
X130446666Y-85203333D02*
X130446666Y-84727142D01*
X130732380Y-85298571D02*
X129732380Y-84965238D01*
X130732380Y-84631904D01*
X130732380Y-84155714D02*
X130684761Y-84250952D01*
X130589523Y-84298571D01*
X129732380Y-84298571D01*
X130065714Y-83870000D02*
X130732380Y-83679523D01*
X130256190Y-83489047D01*
X130732380Y-83298571D01*
X130065714Y-83108095D01*
X130732380Y-82298571D02*
X130208571Y-82298571D01*
X130113333Y-82346190D01*
X130065714Y-82441428D01*
X130065714Y-82631904D01*
X130113333Y-82727142D01*
X130684761Y-82298571D02*
X130732380Y-82393809D01*
X130732380Y-82631904D01*
X130684761Y-82727142D01*
X130589523Y-82774761D01*
X130494285Y-82774761D01*
X130399047Y-82727142D01*
X130351428Y-82631904D01*
X130351428Y-82393809D01*
X130303809Y-82298571D01*
X130065714Y-81917619D02*
X130732380Y-81679523D01*
X130065714Y-81441428D02*
X130732380Y-81679523D01*
X130970476Y-81774761D01*
X131018095Y-81822380D01*
X131065714Y-81917619D01*
X130684761Y-81108095D02*
X130732380Y-81012857D01*
X130732380Y-80822380D01*
X130684761Y-80727142D01*
X130589523Y-80679523D01*
X130541904Y-80679523D01*
X130446666Y-80727142D01*
X130399047Y-80822380D01*
X130399047Y-80965238D01*
X130351428Y-81060476D01*
X130256190Y-81108095D01*
X130208571Y-81108095D01*
X130113333Y-81060476D01*
X130065714Y-80965238D01*
X130065714Y-80822380D01*
X130113333Y-80727142D01*
X129732380Y-79298571D02*
X129732380Y-79108095D01*
X129780000Y-79012857D01*
X129875238Y-78917619D01*
X130065714Y-78870000D01*
X130399047Y-78870000D01*
X130589523Y-78917619D01*
X130684761Y-79012857D01*
X130732380Y-79108095D01*
X130732380Y-79298571D01*
X130684761Y-79393809D01*
X130589523Y-79489047D01*
X130399047Y-79536666D01*
X130065714Y-79536666D01*
X129875238Y-79489047D01*
X129780000Y-79393809D01*
X129732380Y-79298571D01*
X130065714Y-78441428D02*
X130732380Y-78441428D01*
X130160952Y-78441428D02*
X130113333Y-78393809D01*
X130065714Y-78298571D01*
X130065714Y-78155714D01*
X130113333Y-78060476D01*
X130208571Y-78012857D01*
X130732380Y-78012857D01*
X130208571Y-76441428D02*
X130208571Y-76774761D01*
X130732380Y-76774761D02*
X129732380Y-76774761D01*
X129732380Y-76298571D01*
X130732380Y-75489047D02*
X130208571Y-75489047D01*
X130113333Y-75536666D01*
X130065714Y-75631904D01*
X130065714Y-75822380D01*
X130113333Y-75917619D01*
X130684761Y-75489047D02*
X130732380Y-75584285D01*
X130732380Y-75822380D01*
X130684761Y-75917619D01*
X130589523Y-75965238D01*
X130494285Y-75965238D01*
X130399047Y-75917619D01*
X130351428Y-75822380D01*
X130351428Y-75584285D01*
X130303809Y-75489047D01*
X130065714Y-75012857D02*
X130732380Y-75012857D01*
X130160952Y-75012857D02*
X130113333Y-74965238D01*
X130065714Y-74870000D01*
X130065714Y-74727142D01*
X130113333Y-74631904D01*
X130208571Y-74584285D01*
X130732380Y-74584285D01*
X130742380Y-91503809D02*
X129742380Y-91503809D01*
X129742380Y-91122857D01*
X129790000Y-91027619D01*
X129837619Y-90980000D01*
X129932857Y-90932380D01*
X130075714Y-90932380D01*
X130170952Y-90980000D01*
X130218571Y-91027619D01*
X130266190Y-91122857D01*
X130266190Y-91503809D01*
X130742380Y-90075238D02*
X130218571Y-90075238D01*
X130123333Y-90122857D01*
X130075714Y-90218095D01*
X130075714Y-90408571D01*
X130123333Y-90503809D01*
X130694761Y-90075238D02*
X130742380Y-90170476D01*
X130742380Y-90408571D01*
X130694761Y-90503809D01*
X130599523Y-90551428D01*
X130504285Y-90551428D01*
X130409047Y-90503809D01*
X130361428Y-90408571D01*
X130361428Y-90170476D01*
X130313809Y-90075238D01*
X130742380Y-89599047D02*
X130075714Y-89599047D01*
X130266190Y-89599047D02*
X130170952Y-89551428D01*
X130123333Y-89503809D01*
X130075714Y-89408571D01*
X130075714Y-89313333D01*
X130075714Y-89122857D02*
X130075714Y-88741904D01*
X129742380Y-88980000D02*
X130599523Y-88980000D01*
X130694761Y-88932380D01*
X130742380Y-88837142D01*
X130742380Y-88741904D01*
X130218571Y-87313333D02*
X130218571Y-87646666D01*
X130742380Y-87646666D02*
X129742380Y-87646666D01*
X129742380Y-87170476D01*
X130742380Y-86360952D02*
X130218571Y-86360952D01*
X130123333Y-86408571D01*
X130075714Y-86503809D01*
X130075714Y-86694285D01*
X130123333Y-86789523D01*
X130694761Y-86360952D02*
X130742380Y-86456190D01*
X130742380Y-86694285D01*
X130694761Y-86789523D01*
X130599523Y-86837142D01*
X130504285Y-86837142D01*
X130409047Y-86789523D01*
X130361428Y-86694285D01*
X130361428Y-86456190D01*
X130313809Y-86360952D01*
X130075714Y-85884761D02*
X130742380Y-85884761D01*
X130170952Y-85884761D02*
X130123333Y-85837142D01*
X130075714Y-85741904D01*
X130075714Y-85599047D01*
X130123333Y-85503809D01*
X130218571Y-85456190D01*
X130742380Y-85456190D01*
X127144285Y-94000000D02*
X127049047Y-93952380D01*
X126906190Y-93952380D01*
X126763333Y-94000000D01*
X126668095Y-94095238D01*
X126620476Y-94190476D01*
X126572857Y-94380952D01*
X126572857Y-94523809D01*
X126620476Y-94714285D01*
X126668095Y-94809523D01*
X126763333Y-94904761D01*
X126906190Y-94952380D01*
X127001428Y-94952380D01*
X127144285Y-94904761D01*
X127191904Y-94857142D01*
X127191904Y-94523809D01*
X127001428Y-94523809D01*
X127620476Y-94952380D02*
X127620476Y-93952380D01*
X128191904Y-94952380D01*
X128191904Y-93952380D01*
X128668095Y-94952380D02*
X128668095Y-93952380D01*
X128906190Y-93952380D01*
X129049047Y-94000000D01*
X129144285Y-94095238D01*
X129191904Y-94190476D01*
X129239523Y-94380952D01*
X129239523Y-94523809D01*
X129191904Y-94714285D01*
X129144285Y-94809523D01*
X129049047Y-94904761D01*
X128906190Y-94952380D01*
X128668095Y-94952380D01*
X131239523Y-94952380D02*
X131191904Y-94952380D01*
X131096666Y-94904761D01*
X130953809Y-94761904D01*
X130715714Y-94476190D01*
X130620476Y-94333333D01*
X130572857Y-94190476D01*
X130572857Y-94095238D01*
X130620476Y-94000000D01*
X130715714Y-93952380D01*
X130763333Y-93952380D01*
X130858571Y-94000000D01*
X130906190Y-94095238D01*
X130906190Y-94142857D01*
X130858571Y-94238095D01*
X130810952Y-94285714D01*
X130525238Y-94476190D01*
X130477619Y-94523809D01*
X130430000Y-94619047D01*
X130430000Y-94761904D01*
X130477619Y-94857142D01*
X130525238Y-94904761D01*
X130620476Y-94952380D01*
X130763333Y-94952380D01*
X130858571Y-94904761D01*
X130906190Y-94857142D01*
X131049047Y-94666666D01*
X131096666Y-94523809D01*
X131096666Y-94428571D01*
X132430000Y-94952380D02*
X132430000Y-93952380D01*
X132810952Y-93952380D01*
X132906190Y-94000000D01*
X132953809Y-94047619D01*
X133001428Y-94142857D01*
X133001428Y-94285714D01*
X132953809Y-94380952D01*
X132906190Y-94428571D01*
X132810952Y-94476190D01*
X132430000Y-94476190D01*
X133430000Y-94952380D02*
X133430000Y-94285714D01*
X133430000Y-93952380D02*
X133382380Y-94000000D01*
X133430000Y-94047619D01*
X133477619Y-94000000D01*
X133430000Y-93952380D01*
X133430000Y-94047619D01*
X133906190Y-94285714D02*
X133906190Y-94952380D01*
X133906190Y-94380952D02*
X133953809Y-94333333D01*
X134049047Y-94285714D01*
X134191904Y-94285714D01*
X134287142Y-94333333D01*
X134334761Y-94428571D01*
X134334761Y-94952380D01*
X135334761Y-94952380D02*
X134763333Y-94952380D01*
X135049047Y-94952380D02*
X135049047Y-93952380D01*
X134953809Y-94095238D01*
X134858571Y-94190476D01*
X134763333Y-94238095D01*
X136191904Y-94285714D02*
X136191904Y-94952380D01*
X135953809Y-93904761D02*
X135715714Y-94619047D01*
X136334761Y-94619047D01*
X92835238Y-94478571D02*
X93168571Y-94478571D01*
X93311428Y-95002380D02*
X92835238Y-95002380D01*
X92835238Y-94002380D01*
X93311428Y-94002380D01*
X93644761Y-94002380D02*
X94263809Y-94002380D01*
X93930476Y-94383333D01*
X94073333Y-94383333D01*
X94168571Y-94430952D01*
X94216190Y-94478571D01*
X94263809Y-94573809D01*
X94263809Y-94811904D01*
X94216190Y-94907142D01*
X94168571Y-94954761D01*
X94073333Y-95002380D01*
X93787619Y-95002380D01*
X93692380Y-94954761D01*
X93644761Y-94907142D01*
X94692380Y-95002380D02*
X94692380Y-94002380D01*
X94930476Y-94002380D01*
X95073333Y-94050000D01*
X95168571Y-94145238D01*
X95216190Y-94240476D01*
X95263809Y-94430952D01*
X95263809Y-94573809D01*
X95216190Y-94764285D01*
X95168571Y-94859523D01*
X95073333Y-94954761D01*
X94930476Y-95002380D01*
X94692380Y-95002380D01*
X96787619Y-94478571D02*
X96454285Y-94478571D01*
X96454285Y-95002380D02*
X96454285Y-94002380D01*
X96930476Y-94002380D01*
X97740000Y-95002380D02*
X97740000Y-94478571D01*
X97692380Y-94383333D01*
X97597142Y-94335714D01*
X97406666Y-94335714D01*
X97311428Y-94383333D01*
X97740000Y-94954761D02*
X97644761Y-95002380D01*
X97406666Y-95002380D01*
X97311428Y-94954761D01*
X97263809Y-94859523D01*
X97263809Y-94764285D01*
X97311428Y-94669047D01*
X97406666Y-94621428D01*
X97644761Y-94621428D01*
X97740000Y-94573809D01*
X98216190Y-94335714D02*
X98216190Y-95002380D01*
X98216190Y-94430952D02*
X98263809Y-94383333D01*
X98359047Y-94335714D01*
X98501904Y-94335714D01*
X98597142Y-94383333D01*
X98644761Y-94478571D01*
X98644761Y-95002380D01*
X116283333Y-93982380D02*
X116950000Y-93982380D01*
X116283333Y-94982380D01*
X116950000Y-94982380D01*
X118092857Y-94458571D02*
X118426190Y-94458571D01*
X118569047Y-94982380D02*
X118092857Y-94982380D01*
X118092857Y-93982380D01*
X118569047Y-93982380D01*
X118997619Y-94315714D02*
X118997619Y-94982380D01*
X118997619Y-94410952D02*
X119045238Y-94363333D01*
X119140476Y-94315714D01*
X119283333Y-94315714D01*
X119378571Y-94363333D01*
X119426190Y-94458571D01*
X119426190Y-94982380D01*
X120330952Y-94982380D02*
X120330952Y-93982380D01*
X120330952Y-94934761D02*
X120235714Y-94982380D01*
X120045238Y-94982380D01*
X119950000Y-94934761D01*
X119902380Y-94887142D01*
X119854761Y-94791904D01*
X119854761Y-94506190D01*
X119902380Y-94410952D01*
X119950000Y-94363333D01*
X120045238Y-94315714D01*
X120235714Y-94315714D01*
X120330952Y-94363333D01*
X120759523Y-94934761D02*
X120854761Y-94982380D01*
X121045238Y-94982380D01*
X121140476Y-94934761D01*
X121188095Y-94839523D01*
X121188095Y-94791904D01*
X121140476Y-94696666D01*
X121045238Y-94649047D01*
X120902380Y-94649047D01*
X120807142Y-94601428D01*
X120759523Y-94506190D01*
X120759523Y-94458571D01*
X120807142Y-94363333D01*
X120902380Y-94315714D01*
X121045238Y-94315714D01*
X121140476Y-94363333D01*
X121473809Y-94315714D02*
X121854761Y-94315714D01*
X121616666Y-93982380D02*
X121616666Y-94839523D01*
X121664285Y-94934761D01*
X121759523Y-94982380D01*
X121854761Y-94982380D01*
X122330952Y-94982380D02*
X122235714Y-94934761D01*
X122188095Y-94887142D01*
X122140476Y-94791904D01*
X122140476Y-94506190D01*
X122188095Y-94410952D01*
X122235714Y-94363333D01*
X122330952Y-94315714D01*
X122473809Y-94315714D01*
X122569047Y-94363333D01*
X122616666Y-94410952D01*
X122664285Y-94506190D01*
X122664285Y-94791904D01*
X122616666Y-94887142D01*
X122569047Y-94934761D01*
X122473809Y-94982380D01*
X122330952Y-94982380D01*
X123092857Y-94315714D02*
X123092857Y-95315714D01*
X123092857Y-94363333D02*
X123188095Y-94315714D01*
X123378571Y-94315714D01*
X123473809Y-94363333D01*
X123521428Y-94410952D01*
X123569047Y-94506190D01*
X123569047Y-94791904D01*
X123521428Y-94887142D01*
X123473809Y-94934761D01*
X123378571Y-94982380D01*
X123188095Y-94982380D01*
X123092857Y-94934761D01*
X103553333Y-93982380D02*
X104220000Y-94982380D01*
X104220000Y-93982380D02*
X103553333Y-94982380D01*
X105362857Y-94458571D02*
X105696190Y-94458571D01*
X105839047Y-94982380D02*
X105362857Y-94982380D01*
X105362857Y-93982380D01*
X105839047Y-93982380D01*
X106267619Y-94315714D02*
X106267619Y-94982380D01*
X106267619Y-94410952D02*
X106315238Y-94363333D01*
X106410476Y-94315714D01*
X106553333Y-94315714D01*
X106648571Y-94363333D01*
X106696190Y-94458571D01*
X106696190Y-94982380D01*
X107600952Y-94982380D02*
X107600952Y-93982380D01*
X107600952Y-94934761D02*
X107505714Y-94982380D01*
X107315238Y-94982380D01*
X107220000Y-94934761D01*
X107172380Y-94887142D01*
X107124761Y-94791904D01*
X107124761Y-94506190D01*
X107172380Y-94410952D01*
X107220000Y-94363333D01*
X107315238Y-94315714D01*
X107505714Y-94315714D01*
X107600952Y-94363333D01*
X108029523Y-94934761D02*
X108124761Y-94982380D01*
X108315238Y-94982380D01*
X108410476Y-94934761D01*
X108458095Y-94839523D01*
X108458095Y-94791904D01*
X108410476Y-94696666D01*
X108315238Y-94649047D01*
X108172380Y-94649047D01*
X108077142Y-94601428D01*
X108029523Y-94506190D01*
X108029523Y-94458571D01*
X108077142Y-94363333D01*
X108172380Y-94315714D01*
X108315238Y-94315714D01*
X108410476Y-94363333D01*
X108743809Y-94315714D02*
X109124761Y-94315714D01*
X108886666Y-93982380D02*
X108886666Y-94839523D01*
X108934285Y-94934761D01*
X109029523Y-94982380D01*
X109124761Y-94982380D01*
X109600952Y-94982380D02*
X109505714Y-94934761D01*
X109458095Y-94887142D01*
X109410476Y-94791904D01*
X109410476Y-94506190D01*
X109458095Y-94410952D01*
X109505714Y-94363333D01*
X109600952Y-94315714D01*
X109743809Y-94315714D01*
X109839047Y-94363333D01*
X109886666Y-94410952D01*
X109934285Y-94506190D01*
X109934285Y-94791904D01*
X109886666Y-94887142D01*
X109839047Y-94934761D01*
X109743809Y-94982380D01*
X109600952Y-94982380D01*
X110362857Y-94315714D02*
X110362857Y-95315714D01*
X110362857Y-94363333D02*
X110458095Y-94315714D01*
X110648571Y-94315714D01*
X110743809Y-94363333D01*
X110791428Y-94410952D01*
X110839047Y-94506190D01*
X110839047Y-94791904D01*
X110791428Y-94887142D01*
X110743809Y-94934761D01*
X110648571Y-94982380D01*
X110458095Y-94982380D01*
X110362857Y-94934761D01*
X96382380Y-80953333D02*
X96382380Y-80381904D01*
X97382380Y-80667619D02*
X96382380Y-80667619D01*
X97382380Y-80048571D02*
X96382380Y-80048571D01*
X97382380Y-79620000D02*
X96858571Y-79620000D01*
X96763333Y-79667619D01*
X96715714Y-79762857D01*
X96715714Y-79905714D01*
X96763333Y-80000952D01*
X96810952Y-80048571D01*
X97334761Y-78762857D02*
X97382380Y-78858095D01*
X97382380Y-79048571D01*
X97334761Y-79143809D01*
X97239523Y-79191428D01*
X96858571Y-79191428D01*
X96763333Y-79143809D01*
X96715714Y-79048571D01*
X96715714Y-78858095D01*
X96763333Y-78762857D01*
X96858571Y-78715238D01*
X96953809Y-78715238D01*
X97049047Y-79191428D01*
X97382380Y-78286666D02*
X96715714Y-78286666D01*
X96906190Y-78286666D02*
X96810952Y-78239047D01*
X96763333Y-78191428D01*
X96715714Y-78096190D01*
X96715714Y-78000952D01*
X97382380Y-77667619D02*
X96715714Y-77667619D01*
X96810952Y-77667619D02*
X96763333Y-77620000D01*
X96715714Y-77524761D01*
X96715714Y-77381904D01*
X96763333Y-77286666D01*
X96858571Y-77239047D01*
X97382380Y-77239047D01*
X96858571Y-77239047D02*
X96763333Y-77191428D01*
X96715714Y-77096190D01*
X96715714Y-76953333D01*
X96763333Y-76858095D01*
X96858571Y-76810476D01*
X97382380Y-76810476D01*
X97382380Y-76334285D02*
X96715714Y-76334285D01*
X96382380Y-76334285D02*
X96430000Y-76381904D01*
X96477619Y-76334285D01*
X96430000Y-76286666D01*
X96382380Y-76334285D01*
X96477619Y-76334285D01*
X97334761Y-75905714D02*
X97382380Y-75810476D01*
X97382380Y-75620000D01*
X97334761Y-75524761D01*
X97239523Y-75477142D01*
X97191904Y-75477142D01*
X97096666Y-75524761D01*
X97049047Y-75620000D01*
X97049047Y-75762857D01*
X97001428Y-75858095D01*
X96906190Y-75905714D01*
X96858571Y-75905714D01*
X96763333Y-75858095D01*
X96715714Y-75762857D01*
X96715714Y-75620000D01*
X96763333Y-75524761D01*
X96715714Y-75191428D02*
X96715714Y-74810476D01*
X96382380Y-75048571D02*
X97239523Y-75048571D01*
X97334761Y-75000952D01*
X97382380Y-74905714D01*
X97382380Y-74810476D01*
X97382380Y-74334285D02*
X97334761Y-74429523D01*
X97287142Y-74477142D01*
X97191904Y-74524761D01*
X96906190Y-74524761D01*
X96810952Y-74477142D01*
X96763333Y-74429523D01*
X96715714Y-74334285D01*
X96715714Y-74191428D01*
X96763333Y-74096190D01*
X96810952Y-74048571D01*
X96906190Y-74000952D01*
X97191904Y-74000952D01*
X97287142Y-74048571D01*
X97334761Y-74096190D01*
X97382380Y-74191428D01*
X97382380Y-74334285D01*
X97382380Y-73572380D02*
X96715714Y-73572380D01*
X96906190Y-73572380D02*
X96810952Y-73524761D01*
X96763333Y-73477142D01*
X96715714Y-73381904D01*
X96715714Y-73286666D01*
X101022380Y-89280476D02*
X100022380Y-89280476D01*
X100498571Y-89280476D02*
X100498571Y-88709047D01*
X101022380Y-88709047D02*
X100022380Y-88709047D01*
X100974761Y-87851904D02*
X101022380Y-87947142D01*
X101022380Y-88137619D01*
X100974761Y-88232857D01*
X100879523Y-88280476D01*
X100498571Y-88280476D01*
X100403333Y-88232857D01*
X100355714Y-88137619D01*
X100355714Y-87947142D01*
X100403333Y-87851904D01*
X100498571Y-87804285D01*
X100593809Y-87804285D01*
X100689047Y-88280476D01*
X101022380Y-86947142D02*
X100498571Y-86947142D01*
X100403333Y-86994761D01*
X100355714Y-87090000D01*
X100355714Y-87280476D01*
X100403333Y-87375714D01*
X100974761Y-86947142D02*
X101022380Y-87042380D01*
X101022380Y-87280476D01*
X100974761Y-87375714D01*
X100879523Y-87423333D01*
X100784285Y-87423333D01*
X100689047Y-87375714D01*
X100641428Y-87280476D01*
X100641428Y-87042380D01*
X100593809Y-86947142D01*
X100355714Y-86613809D02*
X100355714Y-86232857D01*
X100022380Y-86470952D02*
X100879523Y-86470952D01*
X100974761Y-86423333D01*
X101022380Y-86328095D01*
X101022380Y-86232857D01*
X100974761Y-85518571D02*
X101022380Y-85613809D01*
X101022380Y-85804285D01*
X100974761Y-85899523D01*
X100879523Y-85947142D01*
X100498571Y-85947142D01*
X100403333Y-85899523D01*
X100355714Y-85804285D01*
X100355714Y-85613809D01*
X100403333Y-85518571D01*
X100498571Y-85470952D01*
X100593809Y-85470952D01*
X100689047Y-85947142D01*
X101022380Y-85042380D02*
X100355714Y-85042380D01*
X100546190Y-85042380D02*
X100450952Y-84994761D01*
X100403333Y-84947142D01*
X100355714Y-84851904D01*
X100355714Y-84756666D01*
X113356666Y-77852380D02*
X113356666Y-78566666D01*
X113309047Y-78709523D01*
X113213809Y-78804761D01*
X113070952Y-78852380D01*
X112975714Y-78852380D01*
X114356666Y-78852380D02*
X113785238Y-78852380D01*
X114070952Y-78852380D02*
X114070952Y-77852380D01*
X113975714Y-77995238D01*
X113880476Y-78090476D01*
X113785238Y-78138095D01*
M02*
